<?xml version="1.0" encoding="UTF-8"?>
<svg id="svg7986" xmlns="http://www.w3.org/2000/svg" viewBox="0 0 476.1389 527.326">
  <defs>
    <style>
      .cls-1 {
        fill: none;
        stroke: #a99c6b;
        stroke-miterlimit: 10;
        stroke-width: 2px;
      }

      .cls-2 {
        fill: #a99c6b;
        stroke-width: 0px;
      }
    </style>
  </defs>
  <g id="g2418">
    <path id="path2420" class="cls-1" d="M404,521H83.511c-45.57,0-82.511-36.941-82.511-82.511V83.511C1,37.941,37.941,1,83.511,1h304.978c45.57,0,82.511,36.941,82.511,82.511v362.489"/>
  </g>
  <g id="g2422">
    <path id="path2424" class="cls-1" d="M429.5981,453.0362l-25.109,67.964"/>
  </g>
  <g id="g2426">
    <path id="path2428" class="cls-1" d="M444.8906,468.9521l-29.15,21.134"/>
  </g>
  <g id="g2430">
    <path id="path2432" class="cls-1" d="M465.8345,462.9657c-6.024,4.494-13.684,6.476-20.944,5.986.117-5.993,3.262-12.071,9.286-16.565,6.025-4.494,13.684-6.476,20.944-5.985-.117,5.992-3.262,12.071-9.286,16.564Z"/>
  </g>
  <g id="g2434">
    <path id="path2436" class="cls-1" d="M444.7871,439.4091c-2.688,6.233-8.368,11.044-15.189,13.627-3.53-5.051-4.39-11.421-1.703-17.655,2.688-6.234,8.368-11.044,15.189-13.627,3.53,5.051,4.39,11.421,1.703,17.655Z"/>
  </g>
  <g id="g2438">
    <path id="path2440" class="cls-1" d="M428.0586,504.1631l-23.483,16.305"/>
  </g>
  <g id="g2442">
    <path id="path2444" class="cls-1" d="M431.6992,521.4414l-27.21-.441"/>
  </g>
  <g id="g2446">
    <path id="path2448" class="cls-1" d="M448.4492,526.2471c-5.992.499-12.029-1.398-16.75-4.806,2.617-4.018,7.326-6.812,13.317-7.311,5.992-.5,12.03,1.398,16.75,4.805-2.616,4.018-7.325,6.812-13.317,7.312Z"/>
  </g>
  <g id="g2450">
    <path id="path2452" class="cls-1" d="M444.1382,501.3447c-4.464,3.094-10.356,3.954-16.08,2.818-.257-4.922,1.856-9.61,6.32-12.704,4.464-3.093,10.356-3.953,16.08-2.818.257,4.923-1.856,9.611-6.32,12.704Z"/>
  </g>
  <g>
    <path class="cls-2" d="M58.5892,273.0794l1.5,1.2002-3.96,5.2197,3.96,5.2197-1.5,1.2002-5.3398-6.4199,5.3398-6.4199ZM64.2289,273.0794l1.5,1.2002-3.9302,5.2197,3.96,5.2197-1.5298,1.2002-5.3398-6.4199,5.3398-6.4199Z"/>
    <path class="cls-2" d="M87.0882,267.3196h8.0098v2.04h-2.04l-4.9199,18.2393h-2.9399l-4.5596-13.2598-4.5601,13.2598h-2.9697l-4.98-18.2393h-2.0698v-2.04h7.4399v2.04h-2.8799l4.1099,15.8096,4.7695-13.709-1.5-4.1406h2.73l5.8496,17.8193,4.1099-15.7793h-3.5996v-2.04Z"/>
    <path class="cls-2" d="M105.5985,284.4192l.7798,1.8594c-1.2598.8701-3.1201,1.6504-5.1899,1.6504-4.5298,0-6.2397-3-6.2397-7.1992,0-3.9609,1.8901-7.1104,6-7.1104,3.8096,0,5.4595,2.8193,5.4595,5.7598,0,.6299-.0898,1.5303-.1797,2.1006h-8.8799c.0601,2.6992,1.1401,4.4092,3.8701,4.4092,1.5898,0,3.1196-.6006,4.3799-1.4697ZM104.1283,279.679c.0303-.1797.0601-.4492.0601-.5996,0-2.0996-1.1997-3.4805-3.2397-3.4805-2.5498,0-3.4199,1.7402-3.5698,4.0801h6.7495Z"/>
    <path class="cls-2" d="M124.6781,285.7688l-3.4497-5.0098-2.4302,2.0703v2.7598h2.8799v2.0098h-7.1694v-2.0098h2.0698v-16.8301h-2.2197v-2.0391h4.4395v14.1592l5.73-4.9199h-2.2798v-2.04h6.8398v2.04h-2.04l-4.1997,3.6299,4.2598,6h2.6997v2.0098h-5.1299v-1.8301Z"/>
    <path class="cls-2" d="M131.638,285.5891h1.98v-9.6299h-1.9497v-2.04h4.02v1.5303c.8398-.8994,2.5195-1.8301,4.7998-1.8301,3.3599,0,4.5596,1.7705,4.5596,5.25v6.7197h1.9497v2.0098h-6.5093v-2.0098h2.3096v-6.54c0-2.0098-.3896-3.2695-2.9399-3.2695-1.6499,0-3.2397.75-3.9897,1.4092v8.4004h2.2798v2.0098h-6.5098v-2.0098Z"/>
    <path class="cls-2" d="M161.3978,280.7298c0,4.2285-1.6499,7.1992-6.27,7.1992-4.4697,0-6.1797-2.9707-6.1797-7.1699s1.71-7.1396,6.2397-7.1396c4.5601,0,6.21,2.9697,6.21,7.1104ZM158.9979,280.7591c0-3.21-.8999-5.0391-3.8398-5.0391-2.8799,0-3.8101,1.8291-3.8101,5.0098,0,3.2393.96,5.0996,3.8398,5.0996,2.9102,0,3.8101-1.8906,3.8101-5.0703Z"/>
    <path class="cls-2" d="M179.2171,273.9192h6.6602v2.04h-1.77l-3.6001,11.6396h-2.6699l-3.3296-8.3096-3.5103,8.3096h-2.6099l-3.7495-11.6396h-1.6802v-2.04h6.5098v2.04h-2.4297l2.8799,9.4199,3.4497-8.3994-1.1699-3.0605h2.3701l4.4995,11.4297,2.7002-9.3896h-2.5503v-2.04Z"/>
    <path class="cls-2" d="M197.5472,283.6985c0,1.2305.54,2.0703,1.8301,2.0703.5996,0,1.5-.0898,2.1299-.3301l.2402,2.0098c-.6602.2705-1.8896.4805-2.9404.4805-2.4893,0-3.5098-1.6504-3.5098-3.9902v-7.9795h-2.6094v-1.7393l2.6094-.3008v-3.4492l2.25-.4199v3.8691h3.7197v2.04h-3.7197v7.7393Z"/>
    <path class="cls-2" d="M203.1576,285.5891h2.0098v-16.7988h-2.1602v-2.0703h4.4102v8.5488c.9004-.8398,2.6699-1.6494,4.6797-1.6494,3.4199,0,4.6201,1.7705,4.6201,5.25v6.7197h1.9795v2.0098h-6.5693v-2.0098h2.3398v-6.54c0-2.0098-.3896-3.2695-2.9697-3.2695-1.6797,0-3.2998.75-4.0801,1.4092v8.4004h2.3398v2.0098h-6.5996v-2.0098Z"/>
    <path class="cls-2" d="M223.557,278.5989h-1.9199c-.2393-.5996-.3896-1.2598-.3896-2.0098,0-1.7402,1.6504-2.9697,5.1299-2.9697,4.5293,0,5.0693,1.5898,5.0693,5.1592v5.9404c0,.75.3301,1.0205.8408,1.0205.3594,0,.7197-.0605,1.0498-.1211v2.0098c-.5703.1211-1.2305.1504-1.71.1504-1.3799,0-2.25-.75-2.3398-2.0391-.8105.9893-2.3701,2.1895-4.6797,2.1895-2.79,0-4.1699-1.4707-4.1699-3.8398,0-2.8203,2.4893-3.7793,6.2998-4.1992l2.3994-.3008v-3.3594c-.5703-.3604-1.7402-.541-2.7598-.541-1.29,0-2.0703.1504-2.8203.541v2.3691ZM225.1771,285.9485c1.7705,0,3.21-.8994,3.96-1.6494v-3.0898l-2.3398.3301c-2.7002.3896-3.9297.9297-3.9297,2.3994,0,1.2305.6895,2.0098,2.3096,2.0098Z"/>
    <path class="cls-2" d="M239.1869,283.6985c0,1.2305.54,2.0703,1.8301,2.0703.5996,0,1.5-.0898,2.1299-.3301l.2402,2.0098c-.6602.2705-1.8896.4805-2.9404.4805-2.4893,0-3.5098-1.6504-3.5098-3.9902v-7.9795h-2.6094v-1.7393l2.6094-.3008v-3.4492l2.25-.4199v3.8691h3.7197v2.04h-3.7197v7.7393Z"/>
    <path class="cls-2" d="M255.3568,283.6985c0,1.2305.54,2.0703,1.8301,2.0703.5996,0,1.5-.0898,2.1299-.3301l.2402,2.0098c-.6602.2705-1.8896.4805-2.9404.4805-2.4893,0-3.5098-1.6504-3.5098-3.9902v-7.9795h-2.6094v-1.7393l2.6094-.3008v-3.4492l2.25-.4199v3.8691h3.7197v2.04h-3.7197v7.7393Z"/>
    <path class="cls-2" d="M261.4173,273.9192h4.1699v2.9395c.5693-1.5293,2.1592-3.2393,3.9297-3.2393.8096,0,1.6797.0898,2.2197.1807l-.2695,2.7598-2.25-.5703c-1.3506.1191-2.79,1.1396-3.5098,2.6396v6.96h3.2695v2.0098h-7.5596v-1.7998l2.04-.4199v-9.4199h-2.04v-2.04Z"/>
    <path class="cls-2" d="M286.1361,285.5589h2.0996v2.04h-3.9893v-2.1895c-.8398,1.1396-2.6396,2.5195-5.0703,2.5195-3.1797,0-4.3496-1.7695-4.3496-5.2793v-6.7207h-2.2197v-2.0098h4.4697v8.5498c0,2.0107.3896,3.2705,2.79,3.2705,1.7402,0,3.3594-1.0205,4.0195-2.1006v-7.71h-2.79v-2.0098h5.04v11.6396Z"/>
    <path class="cls-2" d="M300.1761,278.0891h-1.7998l-.3301-2.3096c-.7197-.2705-1.4404-.3896-2.4297-.3896-1.8008,0-2.5205,1.0488-2.5205,2.0391,0,.9609.5098,1.5303,1.6797,1.8906l2.3398.7793c2.25.6904,3.5703,1.8008,3.5703,3.9004s-1.71,3.9297-5.3096,3.9297c-1.7402,0-3.3896-.3906-4.7998-1.0195l-.3301-4.0205h1.7998l.6299,2.7607c.6904.2988,1.6201.5391,2.6699.5391,1.6504,0,2.8203-.7197,2.8203-2.0098,0-1.0498-.7207-1.6191-1.9199-1.9805l-2.46-.8096c-1.9502-.6299-3.1797-1.7998-3.1797-3.749,0-1.9199,1.3496-4.0205,5.0098-4.0205,1.5898,0,3.3594.3301,4.5596.8398v3.6299Z"/>
    <path class="cls-2" d="M307.2855,283.6985c0,1.2305.54,2.0703,1.8301,2.0703.5996,0,1.5-.0898,2.1299-.3301l.2402,2.0098c-.6602.2705-1.8896.4805-2.9404.4805-2.4893,0-3.5098-1.6504-3.5098-3.9902v-7.9795h-2.6094v-1.7393l2.6094-.3008v-3.4492l2.25-.4199v3.8691h3.7197v2.04h-3.7197v7.7393Z"/>
    <path class="cls-2" d="M319.1644,285.5891h3v-9.6299h-3v-2.04h5.25v11.6699h2.8496v2.0098h-8.0996v-2.0098ZM321.4749,268.9397c0-1.1396.7197-1.6201,1.6494-1.6201.8398,0,1.6201.4805,1.6201,1.6201s-.7803,1.5898-1.6201,1.5898c-.9297,0-1.6494-.4502-1.6494-1.5898Z"/>
    <path class="cls-2" d="M338.9652,278.0891h-1.7998l-.3301-2.3096c-.7197-.2705-1.4404-.3896-2.4297-.3896-1.8008,0-2.5205,1.0488-2.5205,2.0391,0,.9609.5098,1.5303,1.6797,1.8906l2.3398.7793c2.25.6904,3.5703,1.8008,3.5703,3.9004s-1.71,3.9297-5.3096,3.9297c-1.7402,0-3.3896-.3906-4.7998-1.0195l-.3301-4.0205h1.7998l.6299,2.7607c.6904.2988,1.6201.5391,2.6699.5391,1.6504,0,2.8203-.7197,2.8203-2.0098,0-1.0498-.7207-1.6191-1.9199-1.9805l-2.46-.8096c-1.9502-.6299-3.1797-1.7998-3.1797-3.749,0-1.9199,1.3496-4.0205,5.0098-4.0205,1.5898,0,3.3594.3301,4.5596.8398v3.6299Z"/>
    <path class="cls-2" d="M352.0746,283.6985c0,1.2305.54,2.0703,1.8301,2.0703.5996,0,1.5-.0898,2.1299-.3301l.2402,2.0098c-.6602.2705-1.8896.4805-2.9404.4805-2.4893,0-3.5098-1.6504-3.5098-3.9902v-7.9795h-2.6094v-1.7393l2.6094-.3008v-3.4492l2.25-.4199v3.8691h3.7197v2.04h-3.7197v7.7393Z"/>
    <path class="cls-2" d="M357.6839,285.5891h2.0098v-16.7988h-2.1602v-2.0703h4.4102v8.5488c.9004-.8398,2.6699-1.6494,4.6797-1.6494,3.4199,0,4.6201,1.7705,4.6201,5.25v6.7197h1.9795v2.0098h-6.5693v-2.0098h2.3398v-6.54c0-2.0098-.3896-3.2695-2.9697-3.2695-1.6797,0-3.2998.75-4.0801,1.4092v8.4004h2.3398v2.0098h-6.5996v-2.0098Z"/>
    <path class="cls-2" d="M385.8236,284.4192l.7793,1.8594c-1.2598.8701-3.1191,1.6504-5.1895,1.6504-4.5293,0-6.2393-3-6.2393-7.1992,0-3.9609,1.8896-7.1104,5.999-7.1104,3.8105,0,5.46,2.8193,5.46,5.7598,0,.6299-.0898,1.5303-.1797,2.1006h-8.8799c.0605,2.6992,1.1396,4.4092,3.8701,4.4092,1.5898,0,3.1201-.6006,4.3799-1.4697ZM384.3539,279.679c.0293-.1797.0596-.4492.0596-.5996,0-2.0996-1.2002-3.4805-3.2402-3.4805-2.5498,0-3.4199,1.7402-3.5693,4.0801h6.75Z"/>
    <path class="cls-2" d="M53.3695,325.5891h1.9795v-9.6299h-1.9497v-2.04h4.02v1.4395c.7798-.9297,2.2197-1.7393,3.9595-1.7393,1.98,0,3.0298.6904,3.8101,1.9502,1.02-1.2002,2.5801-1.9502,4.5-1.9502,3.2095,0,4.2896,1.7998,4.2896,5.1006v6.8691h1.9199v2.0098h-5.9995v-2.0098h1.7998v-6.7197c0-2.0107-.4502-3.0898-2.46-3.0898-1.4399,0-2.6997.5996-3.3599,1.4092v8.4004h1.7998v2.0098h-5.9097v-2.0098h1.8301v-8.2793c-.48-.9609-1.3799-1.5303-2.7603-1.5303-1.5298,0-2.5195.6299-3.2397,1.4092v8.4004h1.7998v2.0098h-6.0293v-2.0098Z"/>
    <path class="cls-2" d="M90.3285,320.7298c0,4.2285-1.6499,7.1992-6.27,7.1992-4.4697,0-6.1797-2.9707-6.1797-7.1699s1.71-7.1396,6.2397-7.1396c4.5601,0,6.21,2.9697,6.21,7.1104ZM87.9286,320.7591c0-3.21-.8999-5.0391-3.8398-5.0391-2.8799,0-3.8101,1.8291-3.8101,5.0098,0,3.2393.96,5.0996,3.8398,5.0996,2.9102,0,3.8101-1.8906,3.8101-5.0703Z"/>
    <path class="cls-2" d="M102.8685,318.0891h-1.8003l-.3296-2.3096c-.7202-.2705-1.4399-.3896-2.4302-.3896-1.7998,0-2.52,1.0488-2.52,2.0391,0,.9609.5103,1.5303,1.6802,1.8906l2.3398.7793c2.25.6904,3.5698,1.8008,3.5698,3.9004s-1.71,3.9297-5.3096,3.9297c-1.7402,0-3.3901-.3906-4.7998-1.0195l-.3301-4.0205h1.7998l.6299,2.7607c.6899.2988,1.6201.5391,2.6699.5391,1.6499,0,2.8198-.7197,2.8198-2.0098,0-1.0498-.7197-1.6191-1.9199-1.9805l-2.46-.8096c-1.9497-.6299-3.1797-1.7998-3.1797-3.749,0-1.9199,1.3501-4.0205,5.0098-4.0205,1.5898,0,3.3599.3301,4.5601.8398v3.6299Z"/>
    <path class="cls-2" d="M109.9779,323.6985c0,1.2305.54,2.0703,1.8301,2.0703.6001,0,1.5-.0898,2.1299-.3301l.2402,2.0098c-.6602.2705-1.8901.4805-2.9399.4805-2.4897,0-3.5098-1.6504-3.5098-3.9902v-7.9795h-2.6099v-1.7393l2.6099-.3008v-3.4492l2.2495-.4199v3.8691h3.7202v2.04h-3.7202v7.7393Z"/>
    <path class="cls-2" d="M121.8578,325.5891h3v-9.6299h-3v-2.04h5.2495v11.6699h2.8501v2.0098h-8.0996v-2.0098ZM124.1678,308.9397c0-1.1396.7197-1.6201,1.6499-1.6201.8398,0,1.6196.4805,1.6196,1.6201s-.7798,1.5898-1.6196,1.5898c-.9302,0-1.6499-.4502-1.6499-1.5898Z"/>
    <path class="cls-2" d="M131.638,325.5891h1.9795v-9.6299h-1.9497v-2.04h4.02v1.4395c.7798-.9297,2.2197-1.7393,3.9595-1.7393,1.98,0,3.0298.6904,3.8101,1.9502,1.02-1.2002,2.5801-1.9502,4.5-1.9502,3.2095,0,4.2896,1.7998,4.2896,5.1006v6.8691h1.9199v2.0098h-5.9995v-2.0098h1.7998v-6.7197c0-2.0107-.4502-3.0898-2.46-3.0898-1.4399,0-2.6997.5996-3.3599,1.4092v8.4004h1.7998v2.0098h-5.9097v-2.0098h1.8301v-8.2793c-.48-.9609-1.3799-1.5303-2.7603-1.5303-1.5298,0-2.5195.6299-3.2397,1.4092v8.4004h1.7998v2.0098h-6.0293v-2.0098Z"/>
    <path class="cls-2" d="M155.6976,334.0794v-1.8613l1.8599-.3594v-15.8994h-2.0698v-2.04h4.1699v1.5303c.75-.9902,1.9199-1.8301,3.96-1.8301,4.0195,0,5.8496,2.7295,5.8496,7.1699,0,4.3496-1.77,7.1396-5.8496,7.1396-1.9199,0-3.0898-.75-3.8101-1.6201v5.7295h3.1499v2.041h-7.2598ZM163.1976,315.7796c-1.8003,0-2.8799.9297-3.3901,1.7393v6.5703c.48.7197,1.5,1.6797,3.3901,1.6797,3.0298,0,3.8696-2.0996,3.8696-4.9795s-.8101-5.0098-3.8696-5.0098Z"/>
    <path class="cls-2" d="M184.5872,320.7298c0,4.2285-1.6499,7.1992-6.27,7.1992-4.4697,0-6.1797-2.9707-6.1797-7.1699s1.71-7.1396,6.2397-7.1396c4.5601,0,6.21,2.9697,6.21,7.1104ZM182.1873,320.7591c0-3.21-.8999-5.0391-3.8398-5.0391-2.8799,0-3.8101,1.8291-3.8101,5.0098,0,3.2393.96,5.0996,3.8398,5.0996,2.9102,0,3.8101-1.8906,3.8101-5.0703Z"/>
    <path class="cls-2" d="M187.0472,313.9192h4.1699v2.9395c.5693-1.5293,2.1592-3.2393,3.9297-3.2393.8096,0,1.6797.0898,2.2197.1807l-.2695,2.7598-2.25-.5703c-1.3506.1191-2.79,1.1396-3.5098,2.6396v6.96h3.2695v2.0098h-7.5596v-1.7998l2.04-.4199v-9.4199h-2.04v-2.04Z"/>
    <path class="cls-2" d="M203.1263,323.6985c0,1.2305.54,2.0703,1.8301,2.0703.5996,0,1.5-.0898,2.1299-.3301l.2402,2.0098c-.6602.2705-1.8896.4805-2.9404.4805-2.4893,0-3.5098-1.6504-3.5098-3.9902v-7.9795h-2.6094v-1.7393l2.6094-.3008v-3.4492l2.25-.4199v3.8691h3.7197v2.04h-3.7197v7.7393Z"/>
    <path class="cls-2" d="M212.2162,318.5989h-1.9199c-.2393-.5996-.3896-1.2598-.3896-2.0098,0-1.7402,1.6504-2.9697,5.1299-2.9697,4.5293,0,5.0693,1.5898,5.0693,5.1592v5.9404c0,.75.3301,1.0205.8398,1.0205.3604,0,.7207-.0605,1.0508-.1211v2.0098c-.5703.1211-1.2305.1504-1.71.1504-1.3799,0-2.25-.75-2.3398-2.0391-.8105.9893-2.3701,2.1895-4.6807,2.1895-2.7891,0-4.1689-1.4707-4.1689-3.8398,0-2.8203,2.4893-3.7793,6.2998-4.1992l2.3994-.3008v-3.3594c-.5703-.3604-1.7402-.541-2.7598-.541-1.29,0-2.0703.1504-2.8203.541v2.3691ZM213.8363,325.9485c1.7705,0,3.21-.8994,3.96-1.6494v-3.0898l-2.3398.3301c-2.7002.3896-3.9297.9297-3.9297,2.3994,0,1.2305.6895,2.0098,2.3096,2.0098Z"/>
    <path class="cls-2" d="M223.7962,325.5891h1.9795v-9.6299h-1.9502v-2.04h4.0205v1.5303c.8398-.8994,2.5195-1.8301,4.7998-1.8301,3.3594,0,4.5596,1.7705,4.5596,5.25v6.7197h1.9502v2.0098h-6.5098v-2.0098h2.3096v-6.54c0-2.0098-.3896-3.2695-2.9395-3.2695-1.6504,0-3.2402.75-3.9902,1.4092v8.4004h2.2803v2.0098h-6.5098v-2.0098Z"/>
    <path class="cls-2" d="M244.9164,323.6985c0,1.2305.54,2.0703,1.8301,2.0703.5996,0,1.5-.0898,2.1299-.3301l.2402,2.0098c-.6602.2705-1.8896.4805-2.9404.4805-2.4893,0-3.5098-1.6504-3.5098-3.9902v-7.9795h-2.6094v-1.7393l2.6094-.3008v-3.4492l2.25-.4199v3.8691h3.7197v2.04h-3.7197v7.7393Z"/>
    <path class="cls-2" d="M264.9554,308.7298c-.5098-.0898-1.0498-.1797-1.6797-.1797-1.5605,0-2.0098.9902-2.0098,2.6699v2.6992h4.0791v2.0098h-4.0791v9.6602h3.209v2.0098h-7.4697v-1.7998l2.04-.4199v-9.4502h-2.0693v-2.0098h2.0693v-2.8496c0-2.4902,1.0801-4.6504,4.1104-4.6504.7197,0,1.4395.1504,1.7998.2402v2.0703Z"/>
    <path class="cls-2" d="M270.3851,318.5989h-1.9199c-.2393-.5996-.3896-1.2598-.3896-2.0098,0-1.7402,1.6504-2.9697,5.1299-2.9697,4.5293,0,5.0693,1.5898,5.0693,5.1592v5.9404c0,.75.3301,1.0205.8408,1.0205.3594,0,.7197-.0605,1.0498-.1211v2.0098c-.5703.1211-1.2305.1504-1.71.1504-1.3799,0-2.25-.75-2.3398-2.0391-.8105.9893-2.3701,2.1895-4.6797,2.1895-2.79,0-4.1699-1.4707-4.1699-3.8398,0-2.8203,2.4893-3.7793,6.2998-4.1992l2.3994-.3008v-3.3594c-.5703-.3604-1.7402-.541-2.7598-.541-1.29,0-2.0703.1504-2.8203.541v2.3691ZM272.0052,325.9485c1.7705,0,3.21-.8994,3.96-1.6494v-3.0898l-2.3398.3301c-2.7002.3896-3.9297.9297-3.9297,2.3994,0,1.2305.6895,2.0098,2.3096,2.0098Z"/>
    <path class="cls-2" d="M292.8558,324.5384l.6592,1.9512c-1.2891.75-3.209,1.4395-5.3096,1.4395-4.3496,0-6.1494-3.1797-6.1494-7.1992,0-3.9004,2.0098-7.1104,6.2695-7.1104,2.1299,0,3.8096.5693,4.9795,1.1396l-.5098,4.6504h-1.8301v-3.3594c-.7793-.3008-1.5596-.4209-2.6094-.4209-2.7305,0-3.8096,2.1299-3.8096,4.9502,0,2.9102.96,5.2197,3.8994,5.2197,1.6201,0,3.2695-.54,4.4102-1.2607Z"/>
    <path class="cls-2" d="M299.9349,323.6985c0,1.2305.54,2.0703,1.8301,2.0703.5996,0,1.5-.0898,2.1299-.3301l.2402,2.0098c-.6602.2705-1.8896.4805-2.9404.4805-2.4893,0-3.5098-1.6504-3.5098-3.9902v-7.9795h-2.6094v-1.7393l2.6094-.3008v-3.4492l2.25-.4199v3.8691h3.7197v2.04h-3.7197v7.7393Z"/>
    <path class="cls-2" d="M318.5052,320.7298c0,4.2285-1.6504,7.1992-6.2695,7.1992-4.4697,0-6.1797-2.9707-6.1797-7.1699s1.71-7.1396,6.2393-7.1396c4.5596,0,6.21,2.9697,6.21,7.1104ZM316.1048,320.7591c0-3.21-.8994-5.0391-3.8398-5.0391-2.8799,0-3.8096,1.8291-3.8096,5.0098,0,3.2393.96,5.0996,3.8398,5.0996,2.9102,0,3.8096-1.8906,3.8096-5.0703Z"/>
    <path class="cls-2" d="M320.9652,313.9192h4.1699v2.9395c.5693-1.5293,2.1592-3.2393,3.9297-3.2393.8096,0,1.6797.0898,2.2197.1807l-.2695,2.7598-2.25-.5703c-1.3506.1191-2.79,1.1396-3.5098,2.6396v6.96h3.2695v2.0098h-7.5596v-1.7998l2.04-.4199v-9.4199h-2.04v-2.04Z"/>
    <path class="cls-2" d="M354.3539,313.9192h6.6602v2.04h-1.7705l-3.5996,11.6396h-2.6699l-3.3301-8.3096-3.5098,8.3096h-2.6094l-3.75-11.6396h-1.6797v-2.04h6.5098v2.04h-2.4307l2.8799,9.4199,3.4502-8.3994-1.1699-3.0605h2.3701l4.5,11.4297,2.6992-9.3896h-2.5498v-2.04Z"/>
    <path class="cls-2" d="M361.9447,325.5891h2.0098v-16.7988h-2.1602v-2.0703h4.4102v8.5488c.9004-.8398,2.6699-1.6494,4.6797-1.6494,3.4199,0,4.6201,1.7705,4.6201,5.25v6.7197h1.9795v2.0098h-6.5693v-2.0098h2.3398v-6.54c0-2.0098-.3896-3.2695-2.9697-3.2695-1.6797,0-3.2998.75-4.0801,1.4092v8.4004h2.3398v2.0098h-6.5996v-2.0098Z"/>
    <path class="cls-2" d="M390.0843,324.4192l.7793,1.8594c-1.2598.8701-3.1191,1.6504-5.1895,1.6504-4.5293,0-6.2393-3-6.2393-7.1992,0-3.9609,1.8896-7.1104,5.999-7.1104,3.8105,0,5.46,2.8193,5.46,5.7598,0,.6299-.0898,1.5303-.1797,2.1006h-8.8799c.0605,2.6992,1.1396,4.4092,3.8701,4.4092,1.5898,0,3.1201-.6006,4.3799-1.4697ZM388.6146,319.679c.0293-.1797.0596-.4492.0596-.5996,0-2.0996-1.2002-3.4805-3.2402-3.4805-2.5498,0-3.4199,1.7402-3.5693,4.0801h6.75Z"/>
    <path class="cls-2" d="M393.4447,325.5891h1.9795v-9.6299h-1.9502v-2.04h4.0205v1.5303c.8398-.8994,2.5195-1.8301,4.7998-1.8301,3.3594,0,4.5596,1.7705,4.5596,5.25v6.7197h1.9502v2.0098h-6.5098v-2.0098h2.3096v-6.54c0-2.0098-.3896-3.2695-2.9395-3.2695-1.6504,0-3.2402.75-3.9902,1.4092v8.4004h2.2803v2.0098h-6.5098v-2.0098Z"/>
    <path class="cls-2" d="M53.1893,365.5891h3v-9.6299h-3v-2.04h5.2495v11.6699h2.8501v2.0098h-8.0996v-2.0098ZM55.4994,348.9397c0-1.1396.7197-1.6201,1.6499-1.6201.8398,0,1.6196.4805,1.6196,1.6201s-.7798,1.5898-1.6196,1.5898c-.9302,0-1.6499-.4502-1.6499-1.5898Z"/>
    <path class="cls-2" d="M66.8387,363.6985c0,1.2305.54,2.0703,1.8301,2.0703.6001,0,1.5-.0898,2.1299-.3301l.2402,2.0098c-.6602.2705-1.8901.4805-2.9399.4805-2.4902,0-3.5098-1.6504-3.5098-3.9902v-7.9795h-2.6099v-1.7393l2.6099-.3008v-3.4492l2.2495-.4199v3.8691h3.7202v2.04h-3.7202v7.7393Z"/>
    <path class="cls-2" d="M89.7879,364.5384l.6602,1.9512c-1.29.75-3.21,1.4395-5.3101,1.4395-4.3496,0-6.1494-3.1797-6.1494-7.1992,0-3.9004,2.0098-7.1104,6.2695-7.1104,2.1299,0,3.8101.5693,4.98,1.1396l-.5103,4.6504h-1.8296v-3.3594c-.7803-.3008-1.5601-.4209-2.6099-.4209-2.73,0-3.8101,2.1299-3.8101,4.9502,0,2.9102.96,5.2197,3.8999,5.2197,1.6201,0,3.27-.54,4.4097-1.2607Z"/>
    <path class="cls-2" d="M105.328,360.7298c0,4.2285-1.6499,7.1992-6.27,7.1992-4.4697,0-6.1797-2.9707-6.1797-7.1699s1.71-7.1396,6.2397-7.1396c4.5601,0,6.21,2.9697,6.21,7.1104ZM102.9281,360.7591c0-3.21-.8999-5.0391-3.8398-5.0391-2.8799,0-3.8101,1.8291-3.8101,5.0098,0,3.2393.96,5.0996,3.8398,5.0996,2.9102,0,3.8101-1.8906,3.8101-5.0703Z"/>
    <path class="cls-2" d="M107.7884,365.5891h1.9795v-9.6299h-1.9497v-2.04h4.02v1.4395c.7798-.9297,2.2197-1.7393,3.9595-1.7393,1.98,0,3.0298.6904,3.8101,1.9502,1.02-1.2002,2.5801-1.9502,4.5-1.9502,3.2095,0,4.2896,1.7998,4.2896,5.1006v6.8691h1.9199v2.0098h-5.9995v-2.0098h1.7998v-6.7197c0-2.0107-.4502-3.0898-2.46-3.0898-1.4399,0-2.6997.5996-3.3599,1.4092v8.4004h1.7998v2.0098h-5.9097v-2.0098h1.8301v-8.2793c-.48-.9609-1.3799-1.5303-2.7603-1.5303-1.5298,0-2.5195.6299-3.2397,1.4092v8.4004h1.7998v2.0098h-6.0293v-2.0098Z"/>
    <path class="cls-2" d="M142.9476,364.4192l.7798,1.8594c-1.2598.8701-3.1201,1.6504-5.1899,1.6504-4.5298,0-6.2397-3-6.2397-7.1992,0-3.9609,1.8901-7.1104,6-7.1104,3.8096,0,5.4595,2.8193,5.4595,5.7598,0,.6299-.0898,1.5303-.1797,2.1006h-8.8799c.0601,2.6992,1.1401,4.4092,3.8701,4.4092,1.5898,0,3.1196-.6006,4.3799-1.4697ZM141.4774,359.679c.0303-.1797.0601-.4492.0601-.5996,0-2.0996-1.2002-3.4805-3.2397-3.4805-2.5498,0-3.4199,1.7402-3.5698,4.0801h6.7495Z"/>
    <path class="cls-2" d="M156.3275,358.0891h-1.8003l-.3296-2.3096c-.7202-.2705-1.4399-.3896-2.4302-.3896-1.7998,0-2.52,1.0488-2.52,2.0391,0,.9609.5103,1.5303,1.6802,1.8906l2.3398.7793c2.25.6904,3.5698,1.8008,3.5698,3.9004s-1.71,3.9297-5.3096,3.9297c-1.7402,0-3.3901-.3906-4.7998-1.0195l-.3301-4.0205h1.7998l.6299,2.7607c.6899.2988,1.6201.5391,2.6699.5391,1.6499,0,2.8198-.7197,2.8198-2.0098,0-1.0498-.7197-1.6191-1.9199-1.9805l-2.46-.8096c-1.9497-.6299-3.1797-1.7998-3.1797-3.749,0-1.9199,1.3501-4.0205,5.0098-4.0205,1.5898,0,3.3599.3301,4.5601.8398v3.6299Z"/>
    <path class="cls-2" d="M169.4369,363.6985c0,1.2305.54,2.0703,1.8301,2.0703.6001,0,1.5-.0898,2.1299-.3301l.2402,2.0098c-.6602.2705-1.8901.4805-2.9399.4805-2.4897,0-3.5098-1.6504-3.5098-3.9902v-7.9795h-2.6099v-1.7393l2.6099-.3008v-3.4492l2.2495-.4199v3.8691h3.7202v2.04h-3.7202v7.7393Z"/>
    <path class="cls-2" d="M188.0062,360.7298c0,4.2285-1.6494,7.1992-6.2695,7.1992-4.4697,0-6.1797-2.9707-6.1797-7.1699s1.71-7.1396,6.2397-7.1396c4.5601,0,6.2095,2.9697,6.2095,7.1104ZM185.6068,360.7591c0-3.21-.8999-5.0391-3.8398-5.0391-2.8799,0-3.8101,1.8291-3.8101,5.0098,0,3.2393.96,5.0996,3.8398,5.0996,2.9102,0,3.8101-1.8906,3.8101-5.0703Z"/>
    <path class="cls-2" d="M207.2962,364.4192l.7793,1.8594c-1.2598.8701-3.1191,1.6504-5.1895,1.6504-4.5293,0-6.2393-3-6.2393-7.1992,0-3.9609,1.8896-7.1104,5.999-7.1104,3.8105,0,5.46,2.8193,5.46,5.7598,0,.6299-.0898,1.5303-.1797,2.1006h-8.8799c.0605,2.6992,1.1396,4.4092,3.8701,4.4092,1.5898,0,3.1201-.6006,4.3799-1.4697ZM205.8265,359.679c.0293-.1797.0596-.4492.0596-.5996,0-2.0996-1.2002-3.4805-3.2402-3.4805-2.5498,0-3.4199,1.7402-3.5693,4.0801h6.75Z"/>
    <path class="cls-2" d="M220.6761,358.0891h-1.7998l-.3301-2.3096c-.7197-.2705-1.4404-.3896-2.4297-.3896-1.8008,0-2.5205,1.0488-2.5205,2.0391,0,.9609.5098,1.5303,1.6797,1.8906l2.3398.7793c2.25.6904,3.5703,1.8008,3.5703,3.9004s-1.71,3.9297-5.3096,3.9297c-1.7402,0-3.3896-.3906-4.7998-1.0195l-.3301-4.0205h1.7998l.6299,2.7607c.6904.2988,1.6201.5391,2.6699.5391,1.6504,0,2.8203-.7197,2.8203-2.0098,0-1.0498-.7207-1.6191-1.9199-1.9805l-2.46-.8096c-1.9502-.6299-3.1797-1.7998-3.1797-3.749,0-1.9199,1.3496-4.0205,5.0098-4.0205,1.5898,0,3.3594.3301,4.5596.8398v3.6299Z"/>
    <path class="cls-2" d="M227.7855,363.6985c0,1.2305.54,2.0703,1.8301,2.0703.5996,0,1.5-.0898,2.1299-.3301l.2402,2.0098c-.6602.2705-1.8896.4805-2.9404.4805-2.4893,0-3.5098-1.6504-3.5098-3.9902v-7.9795h-2.6094v-1.7393l2.6094-.3008v-3.4492l2.25-.4199v3.8691h3.7197v2.04h-3.7197v7.7393Z"/>
    <path class="cls-2" d="M236.8753,358.5989h-1.9199c-.2393-.5996-.3896-1.2598-.3896-2.0098,0-1.7402,1.6504-2.9697,5.1299-2.9697,4.5293,0,5.0693,1.5898,5.0693,5.1592v5.9404c0,.75.3301,1.0205.8408,1.0205.3594,0,.7197-.0605,1.0498-.1211v2.0098c-.5703.1211-1.2305.1504-1.71.1504-1.3799,0-2.25-.75-2.3398-2.0391-.8105.9893-2.3701,2.1895-4.6797,2.1895-2.79,0-4.1699-1.4707-4.1699-3.8398,0-2.8203,2.4893-3.7793,6.2998-4.1992l2.3994-.3008v-3.3594c-.5703-.3604-1.7402-.541-2.7598-.541-1.29,0-2.0703.1504-2.8203.541v2.3691ZM238.4955,365.9485c1.7705,0,3.21-.8994,3.96-1.6494v-3.0898l-2.3398.3301c-2.7002.3896-3.9297.9297-3.9297,2.3994,0,1.2305.6895,2.0098,2.3096,2.0098Z"/>
    <path class="cls-2" d="M251.6956,355.2688c.7207-.8994,1.8906-1.6494,3.8398-1.6494,4.1406,0,5.8203,2.7598,5.8203,7.1104,0,4.2891-1.8604,7.1992-5.8203,7.1992-2.0391,0-3.2998-.75-4.0791-1.6504l-1.0205,1.3203h-.9902v-18.8398h-2.0693v-2.0391h4.3193v8.5488ZM255.0863,355.7796c-1.8906,0-2.9102.9297-3.3906,1.6494v6.5703c.54.8096,1.5898,1.7695,3.3604,1.7695,3.0898,0,3.8994-2.1895,3.8994-5.0391,0-2.8809-.7793-4.9502-3.8691-4.9502Z"/>
    <path class="cls-2" d="M264.8656,348.7591h-2.5205v-2.0391h4.7402v17.2188c0,1.29.3301,1.8301,1.3799,1.8301.4805,0,.9297-.0605,1.3496-.21l.1807,2.0107c-.6006.2393-1.3203.3594-2.1006.3594-2.3398,0-3.0293-1.4102-3.0293-3.75v-15.4199Z"/>
    <path class="cls-2" d="M271.2552,365.5891h3v-9.6299h-3v-2.04h5.25v11.6699h2.8506v2.0098h-8.1006v-2.0098ZM273.5658,348.9397c0-1.1396.7197-1.6201,1.6494-1.6201.8398,0,1.6201.4805,1.6201,1.6201s-.7803,1.5898-1.6201,1.5898c-.9297,0-1.6494-.4502-1.6494-1.5898Z"/>
    <path class="cls-2" d="M291.055,358.0891h-1.7998l-.3301-2.3096c-.7197-.2705-1.4404-.3896-2.4297-.3896-1.8008,0-2.5205,1.0488-2.5205,2.0391,0,.9609.5098,1.5303,1.6797,1.8906l2.3398.7793c2.25.6904,3.5703,1.8008,3.5703,3.9004s-1.71,3.9297-5.3096,3.9297c-1.7402,0-3.3896-.3906-4.7998-1.0195l-.3301-4.0205h1.7998l.6299,2.7607c.6904.2988,1.6201.5391,2.6699.5391,1.6504,0,2.8203-.7197,2.8203-2.0098,0-1.0498-.7207-1.6191-1.9199-1.9805l-2.46-.8096c-1.9502-.6299-3.1797-1.7998-3.1797-3.749,0-1.9199,1.3496-4.0205,5.0098-4.0205,1.5898,0,3.3594.3301,4.5596.8398v3.6299Z"/>
    <path class="cls-2" d="M293.6048,365.5891h2.0098v-16.7988h-2.1602v-2.0703h4.4102v8.5488c.9004-.8398,2.6699-1.6494,4.6797-1.6494,3.4199,0,4.6201,1.7705,4.6201,5.25v6.7197h1.9795v2.0098h-6.5693v-2.0098h2.3398v-6.54c0-2.0098-.3896-3.2695-2.9697-3.2695-1.6797,0-3.2998.75-4.0801,1.4092v8.4004h2.3398v2.0098h-6.5996v-2.0098Z"/>
    <path class="cls-2" d="M310.7943,365.5891h3v-9.6299h-3v-2.04h5.25v11.6699h2.8506v2.0098h-8.1006v-2.0098ZM313.1048,348.9397c0-1.1396.7197-1.6201,1.6494-1.6201.8398,0,1.6201.4805,1.6201,1.6201s-.7803,1.5898-1.6201,1.5898c-.9297,0-1.6494-.4502-1.6494-1.5898Z"/>
    <path class="cls-2" d="M320.5746,365.5891h1.9795v-9.6299h-1.9502v-2.04h4.0205v1.5303c.8398-.8994,2.5195-1.8301,4.7998-1.8301,3.3594,0,4.5596,1.7705,4.5596,5.25v6.7197h1.9502v2.0098h-6.5098v-2.0098h2.3096v-6.54c0-2.0098-.3896-3.2695-2.9395-3.2695-1.6504,0-3.2402.75-3.9902,1.4092v8.4004h2.2803v2.0098h-6.5098v-2.0098Z"/>
    <path class="cls-2" d="M348.1146,355.7493c.6895.7207,1.0801,1.9199,1.0801,3.1504,0,3.0898-2.1299,4.8594-5.5801,4.8594-.7803,0-1.7705-.0898-2.3096-.2998l-.4199,2.4297h4.499c3.0303,0,4.5898,1.3193,4.5898,3.6592,0,2.9102-2.6094,4.8301-6.6895,4.8301-4.29,0-5.9102-1.5293-5.9102-3.7188,0-1.6211,1.3203-2.7607,2.3701-3.0605-.6602-.2998-.9902-.9902-.9902-1.6504,0-1.2295.8408-2.1895,1.5-2.7891-1.5-.7803-2.3994-2.2803-2.3994-4.3203,0-3.1191,1.9502-5.2197,5.79-5.2197,1.3496,0,2.7891.4199,3.4795.9307,1.2002-1.5312,2.3994-1.9512,3.6602-1.9199l.21,2.1592-2.8799.96ZM339.6849,370.1487c0,1.4697.9893,2.3398,3.6592,2.3398,2.3701,0,4.2305-.8398,4.2305-2.6699,0-1.0498-.6006-1.8604-2.5498-1.8604h-3.9297c-.8105.541-1.4102,1.1699-1.4102,2.1904ZM346.9447,358.8391c0-1.7998-.9307-3.1797-3.3604-3.1797-2.5498,0-3.4492,1.3496-3.4492,3.1797,0,1.7695.8994,3.1201,3.4492,3.1201,2.4004,0,3.3604-1.2295,3.3604-3.1201Z"/>
    <path class="cls-2" d="M361.4037,358.5989h-1.9199c-.2393-.5996-.3896-1.2598-.3896-2.0098,0-1.7402,1.6504-2.9697,5.1299-2.9697,4.5293,0,5.0693,1.5898,5.0693,5.1592v5.9404c0,.75.3301,1.0205.8398,1.0205.3604,0,.7207-.0605,1.0508-.1211v2.0098c-.5703.1211-1.2305.1504-1.71.1504-1.3799,0-2.25-.75-2.3398-2.0391-.8105.9893-2.3701,2.1895-4.6807,2.1895-2.7891,0-4.1689-1.4707-4.1689-3.8398,0-2.8203,2.4893-3.7793,6.2998-4.1992l2.3994-.3008v-3.3594c-.5703-.3604-1.7402-.541-2.7598-.541-1.29,0-2.0703.1504-2.8203.541v2.3691ZM363.0238,365.9485c1.7705,0,3.21-.8994,3.96-1.6494v-3.0898l-2.3398.3301c-2.7002.3896-3.9297.9297-3.9297,2.3994,0,1.2305.6895,2.0098,2.3096,2.0098Z"/>
    <path class="cls-2" d="M372.9847,365.5891h1.9795v-9.6299h-1.9502v-2.04h4.0205v1.5303c.8398-.8994,2.5195-1.8301,4.7998-1.8301,3.3594,0,4.5596,1.7705,4.5596,5.25v6.7197h1.9502v2.0098h-6.5098v-2.0098h2.3096v-6.54c0-2.0098-.3896-3.2695-2.9395-3.2695-1.6504,0-3.2402.75-3.9902,1.4092v8.4004h2.2803v2.0098h-6.5098v-2.0098Z"/>
    <path class="cls-2" d="M400.1039,348.7591h-2.8203v-2.0391h5.0703v18.8691h2.0693v2.0098h-1.9502c-1.4395,0-2.0391-.6602-2.0996-1.8906-.7197.9307-2.1299,2.2207-4.3193,2.2207-3.9307,0-5.7305-2.7305-5.7305-7.1992,0-4.3506,1.8301-7.1104,5.8203-7.1104,2.0098,0,3.2393.75,3.96,1.6494v-6.5098ZM396.5941,365.7688c1.6191,0,2.8496-.9297,3.5098-1.7998v-6.54c-.5107-.7197-1.5898-1.6494-3.4805-1.6494-3,0-3.9297,2.0693-3.9297,4.9502,0,2.8496.8701,5.0391,3.9004,5.0391Z"/>
    <path class="cls-2" d="M56.3993,398.5989h-1.9199c-.2402-.5996-.3901-1.2598-.3901-2.0098,0-1.7402,1.6499-2.9697,5.1299-2.9697,4.5298,0,5.0698,1.5898,5.0698,5.1592v5.9404c0,.75.3301,1.0205.8398,1.0205.3599,0,.7202-.0605,1.0498-.1211v2.0098c-.5698.1211-1.23.1504-1.71.1504-1.3799,0-2.2495-.75-2.3398-2.0391-.8101.9893-2.3696,2.1895-4.6797,2.1895-2.79,0-4.1699-1.4707-4.1699-3.8398,0-2.8203,2.4897-3.7793,6.2998-4.1992l2.3999-.3008v-3.3594c-.5698-.3604-1.7397-.541-2.7598-.541-1.29,0-2.0698.1504-2.8198.541v2.3691ZM58.0189,405.9485c1.77,0,3.21-.8994,3.96-1.6494v-3.0898l-2.3398.3301c-2.6997.3896-3.9297.9297-3.9297,2.3994,0,1.2305.6899,2.0098,2.3096,2.0098Z"/>
    <path class="cls-2" d="M77.9989,398.0891h-1.8003l-.3296-2.3096c-.7202-.2705-1.4399-.3896-2.4302-.3896-1.7998,0-2.52,1.0488-2.52,2.0391,0,.9609.5103,1.5303,1.6802,1.8906l2.3398.7793c2.25.6904,3.5698,1.8008,3.5698,3.9004s-1.71,3.9297-5.3096,3.9297c-1.7402,0-3.3901-.3906-4.7998-1.0195l-.3301-4.0205h1.7998l.6299,2.7607c.6899.2988,1.6201.5391,2.6699.5391,1.6499,0,2.8198-.7197,2.8198-2.0098,0-1.0498-.7197-1.6191-1.9199-1.9805l-2.46-.8096c-1.9497-.6299-3.1797-1.7998-3.1797-3.749,0-1.9199,1.3501-4.0205,5.0098-4.0205,1.5898,0,3.3599.3301,4.5601.8398v3.6299Z"/>
    <path class="cls-2" d="M91.0189,398.0891h-1.8003l-.3296-2.3096c-.7202-.2705-1.4399-.3896-2.4302-.3896-1.7998,0-2.52,1.0488-2.52,2.0391,0,.9609.5103,1.5303,1.6802,1.8906l2.3398.7793c2.25.6904,3.5698,1.8008,3.5698,3.9004s-1.71,3.9297-5.3096,3.9297c-1.7402,0-3.3901-.3906-4.7998-1.0195l-.3301-4.0205h1.7998l.6299,2.7607c.6899.2988,1.6201.5391,2.6699.5391,1.6499,0,2.8198-.7197,2.8198-2.0098,0-1.0498-.7197-1.6191-1.9199-1.9805l-2.46-.8096c-1.9497-.6299-3.1797-1.7998-3.1797-3.749,0-1.9199,1.3501-4.0205,5.0098-4.0205,1.5898,0,3.3599.3301,4.5601.8398v3.6299Z"/>
    <path class="cls-2" d="M93.8387,405.5891h3v-9.6299h-3v-2.04h5.2495v11.6699h2.8501v2.0098h-8.0996v-2.0098ZM96.1488,388.9397c0-1.1396.7197-1.6201,1.6499-1.6201.8398,0,1.6196.4805,1.6196,1.6201s-.7798,1.5898-1.6196,1.5898c-.9302,0-1.6499-.4502-1.6499-1.5898Z"/>
    <path class="cls-2" d="M113.9676,395.7493c.6899.7207,1.0801,1.9199,1.0801,3.1504,0,3.0898-2.1299,4.8594-5.5796,4.8594-.7803,0-1.77-.0898-2.3101-.2998l-.4199,2.4297h4.5c3.0298,0,4.5898,1.3193,4.5898,3.6592,0,2.9102-2.6099,4.8301-6.6899,4.8301-4.29,0-5.9097-1.5293-5.9097-3.7188,0-1.6211,1.3198-2.7607,2.3696-3.0605-.6597-.2998-.9897-.9902-.9897-1.6504,0-1.2295.8398-2.1895,1.5-2.7891-1.5-.7803-2.3999-2.2803-2.3999-4.3203,0-3.1191,1.9497-5.2197,5.7896-5.2197,1.3501,0,2.79.4199,3.48.9307,1.2002-1.5312,2.3999-1.9512,3.6597-1.9199l.21,2.1592-2.8799.96ZM105.5384,410.1487c0,1.4697.9897,2.3398,3.6597,2.3398,2.3696,0,4.23-.8398,4.23-2.6699,0-1.0498-.6001-1.8604-2.5503-1.8604h-3.9297c-.8101.541-1.4097,1.1699-1.4097,2.1904ZM112.7977,398.8391c0-1.7998-.9297-3.1797-3.3599-3.1797-2.5498,0-3.4497,1.3496-3.4497,3.1797,0,1.7695.8999,3.1201,3.4497,3.1201,2.3999,0,3.3599-1.2295,3.3599-3.1201Z"/>
    <path class="cls-2" d="M118.2289,405.5891h1.9795v-9.6299h-1.9497v-2.04h4.02v1.5303c.8398-.8994,2.5195-1.8301,4.7998-1.8301,3.3599,0,4.5596,1.7705,4.5596,5.25v6.7197h1.9502v2.0098h-6.5098v-2.0098h2.3096v-6.54c0-2.0098-.3896-3.2695-2.9399-3.2695-1.6499,0-3.2397.75-3.9897,1.4092v8.4004h2.2798v2.0098h-6.5093v-2.0098Z"/>
    <path class="cls-2" d="M135.2386,405.5891h3v-9.6299h-3v-2.04h5.2495v11.6699h2.8501v2.0098h-8.0996v-2.0098ZM137.5487,388.9397c0-1.1396.7197-1.6201,1.6499-1.6201.8398,0,1.6196.4805,1.6196,1.6201s-.7798,1.5898-1.6196,1.5898c-.9302,0-1.6499-.4502-1.6499-1.5898Z"/>
    <path class="cls-2" d="M145.0179,405.5891h1.98v-9.6299h-1.9497v-2.04h4.02v1.5303c.8398-.8994,2.5195-1.8301,4.7998-1.8301,3.3599,0,4.5596,1.7705,4.5596,5.25v6.7197h1.9497v2.0098h-6.5093v-2.0098h2.3096v-6.54c0-2.0098-.3896-3.2695-2.9399-3.2695-1.6499,0-3.2397.75-3.9897,1.4092v8.4004h2.2798v2.0098h-6.5098v-2.0098Z"/>
    <path class="cls-2" d="M172.5575,395.7493c.6899.7207,1.0801,1.9199,1.0801,3.1504,0,3.0898-2.1299,4.8594-5.5796,4.8594-.7803,0-1.77-.0898-2.3101-.2998l-.4199,2.4297h4.5c3.0298,0,4.5898,1.3193,4.5898,3.6592,0,2.9102-2.6099,4.8301-6.6899,4.8301-4.29,0-5.9097-1.5293-5.9097-3.7188,0-1.6211,1.3198-2.7607,2.3696-3.0605-.6597-.2998-.9897-.9902-.9897-1.6504,0-1.2295.8398-2.1895,1.5-2.7891-1.5-.7803-2.3999-2.2803-2.3999-4.3203,0-3.1191,1.9497-5.2197,5.7896-5.2197,1.3501,0,2.79.4199,3.48.9307,1.2002-1.5312,2.3999-1.9512,3.6597-1.9199l.21,2.1592-2.8799.96ZM164.1283,410.1487c0,1.4697.9897,2.3398,3.6597,2.3398,2.3696,0,4.23-.8398,4.23-2.6699,0-1.0498-.6001-1.8604-2.5503-1.8604h-3.9297c-.8101.541-1.4097,1.1699-1.4097,2.1904ZM171.3875,398.8391c0-1.7998-.9297-3.1797-3.3599-3.1797-2.5498,0-3.4497,1.3496-3.4497,3.1797,0,1.7695.8999,3.1201,3.4497,3.1201,2.3999,0,3.3599-1.2295,3.3599-3.1201Z"/>
    <path class="cls-2" d="M186.9276,403.6985c0,1.2305.54,2.0703,1.8306,2.0703.5996,0,1.5-.0898,2.1299-.3301l.2393,2.0098c-.6592.2705-1.8896.4805-2.9395.4805-2.4902,0-3.5098-1.6504-3.5098-3.9902v-7.9795h-2.6099v-1.7393l2.6099-.3008v-3.4492l2.2495-.4199v3.8691h3.7202v2.04h-3.7202v7.7393Z"/>
    <path class="cls-2" d="M192.5374,405.5891h2.0098v-16.7988h-2.1602v-2.0703h4.4102v8.5488c.9004-.8398,2.6699-1.6494,4.6797-1.6494,3.4199,0,4.6201,1.7705,4.6201,5.25v6.7197h1.9795v2.0098h-6.5693v-2.0098h2.3398v-6.54c0-2.0098-.3896-3.2695-2.9697-3.2695-1.6797,0-3.2998.75-4.0801,1.4092v8.4004h2.3398v2.0098h-6.5996v-2.0098Z"/>
    <path class="cls-2" d="M220.6771,404.4192l.7793,1.8594c-1.2598.8701-3.1191,1.6504-5.1895,1.6504-4.5293,0-6.2393-3-6.2393-7.1992,0-3.9609,1.8896-7.1104,5.999-7.1104,3.8105,0,5.46,2.8193,5.46,5.7598,0,.6299-.0898,1.5303-.1797,2.1006h-8.8799c.0605,2.6992,1.1396,4.4092,3.8701,4.4092,1.5898,0,3.1201-.6006,4.3799-1.4697ZM219.2074,399.679c.0293-.1797.0596-.4492.0596-.5996,0-2.0996-1.2002-3.4805-3.2402-3.4805-2.5498,0-3.4199,1.7402-3.5693,4.0801h6.75Z"/>
    <path class="cls-2" d="M230.0374,405.5891h1.9795v-9.6299h-1.9502v-2.04h4.0205v1.4395c.7793-.9297,2.2197-1.7393,3.96-1.7393,1.9795,0,3.0293.6904,3.8096,1.9502,1.0195-1.2002,2.5801-1.9502,4.5-1.9502,3.21,0,4.29,1.7998,4.29,5.1006v6.8691h1.9199v2.0098h-6v-2.0098h1.7998v-6.7197c0-2.0107-.4502-3.0898-2.46-3.0898-1.4404,0-2.7002.5996-3.3604,1.4092v8.4004h1.8008v2.0098h-5.9102v-2.0098h1.8301v-8.2793c-.4805-.9609-1.3799-1.5303-2.7598-1.5303-1.5303,0-2.5205.6299-3.2402,1.4092v8.4004h1.7998v2.0098h-6.0293v-2.0098Z"/>
    <path class="cls-2" d="M257.4564,398.5989h-1.9199c-.2393-.5996-.3896-1.2598-.3896-2.0098,0-1.7402,1.6504-2.9697,5.1299-2.9697,4.5293,0,5.0693,1.5898,5.0693,5.1592v5.9404c0,.75.3301,1.0205.8398,1.0205.3604,0,.7207-.0605,1.0508-.1211v2.0098c-.5703.1211-1.2305.1504-1.71.1504-1.3799,0-2.25-.75-2.3398-2.0391-.8105.9893-2.3701,2.1895-4.6807,2.1895-2.7891,0-4.1689-1.4707-4.1689-3.8398,0-2.8203,2.4893-3.7793,6.2998-4.1992l2.3994-.3008v-3.3594c-.5703-.3604-1.7402-.541-2.7598-.541-1.29,0-2.0703.1504-2.8203.541v2.3691ZM259.0765,405.9485c1.7705,0,3.21-.8994,3.96-1.6494v-3.0898l-2.3398.3301c-2.7002.3896-3.9297.9297-3.9297,2.3994,0,1.2305.6895,2.0098,2.3096,2.0098Z"/>
    <path class="cls-2" d="M269.0374,405.5891h1.9795v-9.6299h-1.9502v-2.04h4.0205v1.5303c.8398-.8994,2.5195-1.8301,4.7998-1.8301,3.3594,0,4.5596,1.7705,4.5596,5.25v6.7197h1.9502v2.0098h-6.5098v-2.0098h2.3096v-6.54c0-2.0098-.3896-3.2695-2.9395-3.2695-1.6504,0-3.2402.75-3.9902,1.4092v8.4004h2.2803v2.0098h-6.5098v-2.0098Z"/>
    <path class="cls-2" d="M289.2562,398.5989h-1.9199c-.2393-.5996-.3896-1.2598-.3896-2.0098,0-1.7402,1.6504-2.9697,5.1299-2.9697,4.5293,0,5.0693,1.5898,5.0693,5.1592v5.9404c0,.75.3301,1.0205.8408,1.0205.3594,0,.7197-.0605,1.0498-.1211v2.0098c-.5703.1211-1.2305.1504-1.71.1504-1.3799,0-2.25-.75-2.3398-2.0391-.8105.9893-2.3701,2.1895-4.6797,2.1895-2.79,0-4.1699-1.4707-4.1699-3.8398,0-2.8203,2.4893-3.7793,6.2998-4.1992l2.3994-.3008v-3.3594c-.5703-.3604-1.7402-.541-2.7598-.541-1.29,0-2.0703.1504-2.8203.541v2.3691ZM290.8763,405.9485c1.7705,0,3.21-.8994,3.96-1.6494v-3.0898l-2.3398.3301c-2.7002.3896-3.9297.9297-3.9297,2.3994,0,1.2305.6895,2.0098,2.3096,2.0098Z"/>
    <path class="cls-2" d="M311.1869,395.7493c.6895.7207,1.0801,1.9199,1.0801,3.1504,0,3.0898-2.1299,4.8594-5.5801,4.8594-.7803,0-1.7705-.0898-2.3096-.2998l-.4199,2.4297h4.499c3.0303,0,4.5898,1.3193,4.5898,3.6592,0,2.9102-2.6094,4.8301-6.6895,4.8301-4.29,0-5.9102-1.5293-5.9102-3.7188,0-1.6211,1.3203-2.7607,2.3701-3.0605-.6602-.2998-.9902-.9902-.9902-1.6504,0-1.2295.8408-2.1895,1.5-2.7891-1.5-.7803-2.3994-2.2803-2.3994-4.3203,0-3.1191,1.9502-5.2197,5.79-5.2197,1.3496,0,2.7891.4199,3.4795.9307,1.2002-1.5312,2.3994-1.9512,3.6602-1.9199l.21,2.1592-2.8799.96ZM302.7572,410.1487c0,1.4697.9893,2.3398,3.6592,2.3398,2.3701,0,4.2305-.8398,4.2305-2.6699,0-1.0498-.6006-1.8604-2.5498-1.8604h-3.9297c-.8105.541-1.4102,1.1699-1.4102,2.1904ZM310.0169,398.8391c0-1.7998-.9307-3.1797-3.3604-3.1797-2.5498,0-3.4492,1.3496-3.4492,3.1797,0,1.7695.8994,3.1201,3.4492,3.1201,2.4004,0,3.3604-1.2295,3.3604-3.1201Z"/>
    <path class="cls-2" d="M326.2162,404.4192l.7793,1.8594c-1.2598.8701-3.1191,1.6504-5.1895,1.6504-4.5293,0-6.2393-3-6.2393-7.1992,0-3.9609,1.8896-7.1104,5.999-7.1104,3.8105,0,5.46,2.8193,5.46,5.7598,0,.6299-.0898,1.5303-.1797,2.1006h-8.8799c.0605,2.6992,1.1396,4.4092,3.8701,4.4092,1.5898,0,3.1201-.6006,4.3799-1.4697ZM324.7464,399.679c.0293-.1797.0596-.4492.0596-.5996,0-2.0996-1.2002-3.4805-3.2402-3.4805-2.5498,0-3.4199,1.7402-3.5693,4.0801h6.75Z"/>
    <path class="cls-2" d="M329.5765,405.5891h1.9795v-9.6299h-1.9502v-2.04h4.0205v1.4395c.7793-.9297,2.2197-1.7393,3.96-1.7393,1.9795,0,3.0293.6904,3.8096,1.9502,1.0195-1.2002,2.5801-1.9502,4.5-1.9502,3.21,0,4.29,1.7998,4.29,5.1006v6.8691h1.9199v2.0098h-6v-2.0098h1.7998v-6.7197c0-2.0107-.4502-3.0898-2.46-3.0898-1.4404,0-2.7002.5996-3.3604,1.4092v8.4004h1.8008v2.0098h-5.9102v-2.0098h1.8301v-8.2793c-.4805-.9609-1.3799-1.5303-2.7598-1.5303-1.5303,0-2.5205.6299-3.2402,1.4092v8.4004h1.7998v2.0098h-6.0293v-2.0098Z"/>
    <path class="cls-2" d="M364.7357,404.4192l.7793,1.8594c-1.2598.8701-3.1191,1.6504-5.1895,1.6504-4.5293,0-6.2393-3-6.2393-7.1992,0-3.9609,1.8896-7.1104,5.999-7.1104,3.8105,0,5.46,2.8193,5.46,5.7598,0,.6299-.0898,1.5303-.1797,2.1006h-8.8799c.0605,2.6992,1.1396,4.4092,3.8701,4.4092,1.5898,0,3.1201-.6006,4.3799-1.4697ZM363.266,399.679c.0293-.1797.0596-.4492.0596-.5996,0-2.0996-1.2002-3.4805-3.2402-3.4805-2.5498,0-3.4199,1.7402-3.5693,4.0801h6.75Z"/>
    <path class="cls-2" d="M368.096,405.5891h1.9795v-9.6299h-1.9502v-2.04h4.0205v1.5303c.8398-.8994,2.5195-1.8301,4.7998-1.8301,3.3594,0,4.5596,1.7705,4.5596,5.25v6.7197h1.9502v2.0098h-6.5098v-2.0098h2.3096v-6.54c0-2.0098-.3896-3.2695-2.9395-3.2695-1.6504,0-3.2402.75-3.9902,1.4092v8.4004h2.2803v2.0098h-6.5098v-2.0098Z"/>
    <path class="cls-2" d="M389.2152,403.6985c0,1.2305.54,2.0703,1.8301,2.0703.5996,0,1.5-.0898,2.1299-.3301l.2402,2.0098c-.6602.2705-1.8896.4805-2.9404.4805-2.4893,0-3.5098-1.6504-3.5098-3.9902v-7.9795h-2.6094v-1.7393l2.6094-.3008v-3.4492l2.25-.4199v3.8691h3.7197v2.04h-3.7197v7.7393Z"/>
    <path class="cls-2" d="M65.9388,440.7298c0,4.2285-1.6499,7.1992-6.27,7.1992-4.4697,0-6.1797-2.9707-6.1797-7.1699s1.71-7.1396,6.2397-7.1396c4.5601,0,6.21,2.9697,6.21,7.1104ZM63.5389,440.7591c0-3.21-.8999-5.0391-3.8398-5.0391-2.8799,0-3.8101,1.8291-3.8101,5.0098,0,3.2393.96,5.0996,3.8398,5.0996,2.9102,0,3.8101-1.8906,3.8101-5.0703Z"/>
    <path class="cls-2" d="M76.3788,428.7298c-.5103-.0898-1.0498-.1797-1.6802-.1797-1.5596,0-2.0098.9902-2.0098,2.6699v2.6992h4.0801v2.0098h-4.0801v9.6602h3.21v2.0098h-7.4697v-1.7998l2.04-.4199v-9.4502h-2.0703v-2.0098h2.0703v-2.8496c0-2.4902,1.0796-4.6504,4.1099-4.6504.7197,0,1.4399.1504,1.7998.2402v2.0703Z"/>
    <path class="cls-2" d="M87.8089,438.5989h-1.9199c-.2402-.5996-.3901-1.2598-.3901-2.0098,0-1.7402,1.6499-2.9697,5.1299-2.9697,4.5298,0,5.0698,1.5898,5.0698,5.1592v5.9404c0,.75.3301,1.0205.8398,1.0205.3599,0,.7197-.0605,1.0498-.1211v2.0098c-.5698.1211-1.23.1504-1.71.1504-1.3799,0-2.2495-.75-2.3398-2.0391-.8101.9893-2.3696,2.1895-4.6797,2.1895-2.79,0-4.1699-1.4707-4.1699-3.8398,0-2.8203,2.4902-3.7793,6.2998-4.1992l2.3999-.3008v-3.3594c-.5698-.3604-1.7397-.541-2.7598-.541-1.29,0-2.0698.1504-2.8198.541v2.3691ZM89.4286,445.9485c1.77,0,3.21-.8994,3.96-1.6494v-3.0898l-2.3398.3301c-2.6997.3896-3.9297.9297-3.9297,2.3994,0,1.2305.6899,2.0098,2.3096,2.0098Z"/>
    <path class="cls-2" d="M110.3685,443.1888c0,1.1104.6299,1.5898,1.5601,1.5898.48,0,1.4399-.0898,2.0698-.209l.0898,2.9395c-.7197.2402-2.1899.4199-3.1797.4199-2.79,0-3.8696-1.8301-3.8696-4.2598v-6.8398h-2.4902v-2.6094l2.4902-.3008v-3.3594l3.3296-.54v3.8994h3.2397v2.9102h-3.2397v6.3594Z"/>
    <path class="cls-2" d="M115.6781,433.9192h5.0698v2.9707c.4199-1.291,2.04-3.2705,3.8701-3.2705.6299,0,1.5.0596,2.0996.1494l-.27,3.8398-2.4297-.4492c-1.29.0898-2.4297.75-3.0298,1.7998v5.7598h3.0298v2.8799h-8.3398v-2.6094l1.98-.541v-7.6191h-1.98v-2.9102Z"/>
    <path class="cls-2" d="M141.5975,444.6888h2.04v2.9102h-4.6797v-2.4004c-.7202,1.2012-2.2803,2.7002-5.0698,2.7002-2.9399,0-4.4399-1.8291-4.4399-5.3994v-5.6992h-1.98v-2.8809h5.3101v8.2197c0,1.6494.5396,2.6104,2.5195,2.6104,1.2002,0,2.46-.6602,3-1.6504v-6.2988h-2.52v-2.8809h5.8198v10.7695Z"/>
    <path class="cls-2" d="M155.7577,438.179h-2.6396l-.3901-1.8301c-.54-.209-1.1396-.3301-1.8896-.3301-1.2002,0-1.7402.6904-1.7402,1.4404,0,.6602.27,1.1396,1.2603,1.4697l2.1597.6602c2.4897.7803,3.75,2.0098,3.75,4.1406,0,2.0693-1.4102,4.1992-5.6699,4.1992-2.1001,0-3.6899-.3301-5.1597-.9297l-.2402-3.9004h2.6401l.6001,2.04c.5396.2705,1.3198.4199,2.1299.4199,1.1699,0,1.9199-.5098,1.9199-1.4404,0-.6592-.4204-1.1699-1.3203-1.4688l-2.2798-.7207c-2.3101-.7197-3.5098-2.0098-3.5098-4.0801,0-1.9199,1.23-4.2295,5.46-4.2295,1.7695,0,3.7495.3604,4.9194.8701v3.6895Z"/>
    <path class="cls-2" d="M163.4378,443.1888c0,1.1104.6299,1.5898,1.5601,1.5898.48,0,1.4399-.0898,2.0698-.209l.0898,2.9395c-.7197.2402-2.1899.4199-3.1797.4199-2.79,0-3.8696-1.8301-3.8696-4.2598v-6.8398h-2.4902v-2.6094l2.4902-.3008v-3.3594l3.3296-.54v3.8994h3.2397v2.9102h-3.2397v6.3594Z"/>
    <path class="cls-2" d="M183.3871,429.5989c-.54-.0293-1.23-.1191-1.9497-.1191-1.0498,0-1.4399.6299-1.4399,1.7695v2.6699h3.6899v2.9102h-3.6899v7.8896h2.8496v2.8799h-8.0693v-2.6094l1.9199-.541v-7.6191h-1.9502v-2.9102h1.9502v-2.9395c0-2.4004,1.3198-4.5605,4.4697-4.5605.8398,0,1.7998.1807,2.2197.3301v2.8496Z"/>
    <path class="cls-2" d="M198.9271,444.6888h2.04v2.9102h-4.6797v-2.4004c-.7197,1.2012-2.2803,2.7002-5.0703,2.7002-2.9395,0-4.4395-1.8291-4.4395-5.3994v-5.6992h-1.98v-2.8809h5.3101v8.2197c0,1.6494.54,2.6104,2.5195,2.6104,1.2002,0,2.46-.6602,3-1.6504v-6.2988h-2.5195v-2.8809h5.8193v10.7695Z"/>
    <path class="cls-2" d="M202.558,444.719h1.7695v-7.8896h-1.71v-2.9102h4.6797v1.6201c.6904-.8398,1.8906-1.9199,4.6201-1.9199,3.1201,0,4.6201,1.8604,4.6201,5.3994v5.7002h1.7402v2.8799h-7.0498v-2.8799h1.9795v-5.3398c0-1.6494-.5703-2.6104-2.5801-2.6104-1.1699,0-2.3994.5703-2.9697,1.0205v6.9297h1.9199v2.8799h-7.0195v-2.8799Z"/>
    <path class="cls-2" d="M229.2572,429.6302h-2.5801v-2.9102h5.9092v17.999h1.9805v2.8799h-2.3398c-1.6201,0-2.3398-.9902-2.46-2.04-.6602.96-2.0703,2.3701-4.3799,2.3701-3.6299,0-5.6104-2.6406-5.6104-7.1992,0-4.4404,1.9502-7.1104,5.7305-7.1104,1.9795,0,3.1494.75,3.75,1.4404v-5.4297ZM226.4066,444.7786c1.2002,0,2.3105-.5693,2.8506-1.1992v-5.8203c-.4502-.4199-1.3506-.9902-2.8203-.9902-2.4297,0-3.21,1.6504-3.21,3.9609,0,2.2793.75,4.0488,3.1797,4.0488Z"/>
    <path class="cls-2" d="M243.2962,439.4993l-5.3398,6.4199-1.5303-1.2002,3.96-5.2197-3.9297-5.2197,1.5-1.2002,5.3398,6.4199ZM248.9359,439.4993l-5.3398,6.4199-1.5-1.2002,3.96-5.2197-3.96-5.2197,1.5-1.2002,5.3398,6.4199Z"/>
  </g>
</svg>