<?xml version="1.0" encoding="UTF-8"?>
<svg id="svg7986" xmlns="http://www.w3.org/2000/svg" viewBox="0 0 476.1389 527.326">
  <defs>
    <style>
      .cls-1 {
        fill: none;
        stroke: #a99c6b;
        stroke-miterlimit: 10;
        stroke-width: 2px;
      }

      .cls-2 {
        fill: #a99c6b;
        stroke-width: 0px;
      }
    </style>
  </defs>
  <g id="g2418">
    <path id="path2420" class="cls-1" d="M404,521H83.511c-45.57,0-82.511-36.941-82.511-82.511V83.511C1,37.941,37.941,1,83.511,1h304.978c45.57,0,82.511,36.941,82.511,82.511v362.489"/>
  </g>
  <g id="g2422">
    <path id="path2424" class="cls-1" d="M429.5981,453.0362l-25.109,67.964"/>
  </g>
  <g id="g2426">
    <path id="path2428" class="cls-1" d="M444.8906,468.9521l-29.15,21.134"/>
  </g>
  <g id="g2430">
    <path id="path2432" class="cls-1" d="M465.8345,462.9657c-6.024,4.494-13.684,6.476-20.944,5.986.117-5.993,3.262-12.071,9.286-16.565,6.025-4.494,13.684-6.476,20.944-5.985-.117,5.992-3.262,12.071-9.286,16.564Z"/>
  </g>
  <g id="g2434">
    <path id="path2436" class="cls-1" d="M444.7871,439.4091c-2.688,6.233-8.368,11.044-15.189,13.627-3.53-5.051-4.39-11.421-1.703-17.655,2.688-6.234,8.368-11.044,15.189-13.627,3.53,5.051,4.39,11.421,1.703,17.655Z"/>
  </g>
  <g id="g2438">
    <path id="path2440" class="cls-1" d="M428.0586,504.1631l-23.483,16.305"/>
  </g>
  <g id="g2442">
    <path id="path2444" class="cls-1" d="M431.6992,521.4414l-27.21-.441"/>
  </g>
  <g id="g2446">
    <path id="path2448" class="cls-1" d="M448.4492,526.2471c-5.992.499-12.029-1.398-16.75-4.806,2.617-4.018,7.326-6.812,13.317-7.311,5.992-.5,12.03,1.398,16.75,4.805-2.616,4.018-7.325,6.812-13.317,7.312Z"/>
  </g>
  <g id="g2450">
    <path id="path2452" class="cls-1" d="M444.1382,501.3447c-4.464,3.094-10.356,3.954-16.08,2.818-.257-4.922,1.856-9.61,6.32-12.704,4.464-3.093,10.356-3.953,16.08-2.818.257,4.923-1.856,9.611-6.32,12.704Z"/>
  </g>
  <g>
    <path class="cls-2" d="M58.5892,273.0794l1.5,1.2002-3.96,5.2197,3.96,5.2197-1.5,1.2002-5.3398-6.4199,5.3398-6.4199ZM64.2289,273.0794l1.5,1.2002-3.9302,5.2197,3.96,5.2197-1.5298,1.2002-5.3398-6.4199,5.3398-6.4199Z"/>
    <path class="cls-2" d="M79.7987,273.2591h-1.98l-.4502-3.6602c-.9897-.3291-2.0098-.5098-3.27-.5098-2.4897,0-3.7495,1.6211-3.7495,3.4199,0,1.6504.8398,2.5508,2.7598,3.2705l2.6997.9893c3.1201,1.1104,4.6499,2.7598,4.6499,5.5801,0,2.7002-2.1597,5.5801-6.5698,5.5801-2.1597,0-4.3794-.4502-6.0298-1.3203l-.2998-5.3398h1.98l.6899,3.96c.8999.4209,2.46.6904,3.6299.6904,2.3999,0,4.0498-1.3496,4.0498-3.4199,0-1.6504-1.1699-2.79-2.79-3.3906l-2.9399-1.0801c-2.9395-1.0791-4.3496-2.5791-4.3496-5.4297,0-2.6699,1.9497-5.5791,6.2695-5.5791,2.1304,0,4.1401.5098,5.7002,1.2598v4.9795Z"/>
    <path class="cls-2" d="M86.1288,278.5989h-1.9199c-.2402-.5996-.3901-1.2598-.3901-2.0098,0-1.7402,1.6499-2.9697,5.1299-2.9697,4.5298,0,5.0698,1.5898,5.0698,5.1592v5.9404c0,.75.3301,1.0205.8398,1.0205.3599,0,.7202-.0605,1.0498-.1211v2.0098c-.5698.1211-1.23.1504-1.71.1504-1.3799,0-2.2495-.75-2.3398-2.0391-.8101.9893-2.3696,2.1895-4.6797,2.1895-2.79,0-4.1699-1.4707-4.1699-3.8398,0-2.8203,2.4897-3.7793,6.2998-4.1992l2.3999-.3008v-3.3594c-.5698-.3604-1.7397-.541-2.7598-.541-1.29,0-2.0698.1504-2.8198.541v2.3691ZM87.7484,285.9485c1.77,0,3.21-.8994,3.96-1.6494v-3.0898l-2.3398.3301c-2.6997.3896-3.9297.9297-3.9297,2.3994,0,1.2305.6899,2.0098,2.3096,2.0098Z"/>
    <path class="cls-2" d="M100.9486,275.2688c.7197-.8994,1.8896-1.6494,3.8398-1.6494,4.1396,0,5.8198,2.7598,5.8198,7.1104,0,4.2891-1.8599,7.1992-5.8198,7.1992-2.04,0-3.2998-.75-4.0801-1.6504l-1.02,1.3203h-.9897v-18.8398h-2.0698v-2.0391h4.3198v8.5488ZM104.3382,275.7796c-1.8896,0-2.9097.9297-3.3896,1.6494v6.5703c.54.8096,1.5898,1.7695,3.3599,1.7695,3.0898,0,3.8999-2.1895,3.8999-5.0391,0-2.8809-.7803-4.9502-3.8701-4.9502Z"/>
    <path class="cls-2" d="M123.9281,284.4192l.7798,1.8594c-1.2598.8701-3.1201,1.6504-5.1899,1.6504-4.5298,0-6.2397-3-6.2397-7.1992,0-3.9609,1.8901-7.1104,6-7.1104,3.8096,0,5.4595,2.8193,5.4595,5.7598,0,.6299-.0898,1.5303-.1797,2.1006h-8.8799c.0601,2.6992,1.1401,4.4092,3.8701,4.4092,1.5898,0,3.1196-.6006,4.3799-1.4697ZM122.4579,279.679c.0303-.1797.0601-.4492.0601-.5996,0-2.0996-1.2002-3.4805-3.2397-3.4805-2.5498,0-3.4199,1.7402-3.5698,4.0801h6.7495Z"/>
    <path class="cls-2" d="M127.2884,285.5891h1.9795v-9.6299h-1.9497v-2.04h4.02v1.4395c.7798-.9297,2.2197-1.7393,3.9595-1.7393,1.98,0,3.0298.6904,3.8101,1.9502,1.02-1.2002,2.5801-1.9502,4.5-1.9502,3.2095,0,4.2896,1.7998,4.2896,5.1006v6.8691h1.9199v2.0098h-5.9995v-2.0098h1.7998v-6.7197c0-2.0107-.4502-3.0898-2.46-3.0898-1.4399,0-2.6997.5996-3.3599,1.4092v8.4004h1.7998v2.0098h-5.9097v-2.0098h1.8301v-8.2793c-.48-.9609-1.3799-1.5303-2.7603-1.5303-1.5298,0-2.5195.6299-3.2397,1.4092v8.4004h1.7998v2.0098h-6.0293v-2.0098Z"/>
    <path class="cls-2" d="M164.2474,280.7298c0,4.2285-1.6499,7.1992-6.27,7.1992-4.4697,0-6.1797-2.9707-6.1797-7.1699s1.71-7.1396,6.2397-7.1396c4.5601,0,6.21,2.9697,6.21,7.1104ZM161.8475,280.7591c0-3.21-.8999-5.0391-3.8398-5.0391-2.8799,0-3.8101,1.8291-3.8101,5.0098,0,3.2393.96,5.0996,3.8398,5.0996,2.9102,0,3.8101-1.8906,3.8101-5.0703Z"/>
    <path class="cls-2" d="M176.7874,278.0891h-1.8003l-.3296-2.3096c-.7202-.2705-1.4399-.3896-2.4302-.3896-1.7998,0-2.52,1.0488-2.52,2.0391,0,.9609.5103,1.5303,1.6802,1.8906l2.3398.7793c2.25.6904,3.5698,1.8008,3.5698,3.9004s-1.71,3.9297-5.3096,3.9297c-1.7402,0-3.3901-.3906-4.7998-1.0195l-.3301-4.0205h1.7998l.6299,2.7607c.6899.2988,1.6201.5391,2.6699.5391,1.6499,0,2.8198-.7197,2.8198-2.0098,0-1.0498-.7197-1.6191-1.9199-1.9805l-2.46-.8096c-1.9497-.6299-3.1797-1.7998-3.1797-3.749,0-1.9199,1.3501-4.0205,5.0098-4.0205,1.5898,0,3.3599.3301,4.5601.8398v3.6299Z"/>
    <path class="cls-2" d="M192.3871,294.0794v-2.041h3.21v-5.7295c-.7197.8701-1.8896,1.6201-3.8398,1.6201-4.0801,0-5.8198-2.79-5.8198-7.1396,0-4.4404,1.7993-7.1699,5.8198-7.1699,1.9199,0,3.2393.8398,4.1094,1.6807l.4199-2.5801h1.5605v19.1992l1.9492.3594v1.8008h-7.4092ZM195.597,277.5188c-.5098-.8096-1.6201-1.7393-3.3896-1.7393-3.0605,0-3.9004,2.1299-3.9004,5.0098s.8398,4.9795,3.9004,4.9795c1.8896,0,2.9092-.96,3.3896-1.6797v-6.5703Z"/>
    <path class="cls-2" d="M214.0765,285.5589h2.0996v2.04h-3.9893v-2.1895c-.8398,1.1396-2.6396,2.5195-5.0703,2.5195-3.1797,0-4.3496-1.7695-4.3496-5.2793v-6.7207h-2.2197v-2.0098h4.4697v8.5498c0,2.0107.3896,3.2705,2.79,3.2705,1.7402,0,3.3594-1.0205,4.0195-2.1006v-7.71h-2.79v-2.0098h5.04v11.6396Z"/>
    <path class="cls-2" d="M228.806,284.4192l.7793,1.8594c-1.2598.8701-3.1191,1.6504-5.1895,1.6504-4.5293,0-6.2393-3-6.2393-7.1992,0-3.9609,1.8896-7.1104,5.999-7.1104,3.8105,0,5.46,2.8193,5.46,5.7598,0,.6299-.0898,1.5303-.1797,2.1006h-8.8799c.0605,2.6992,1.1396,4.4092,3.8701,4.4092,1.5898,0,3.1201-.6006,4.3799-1.4697ZM227.3363,279.679c.0293-.1797.0596-.4492.0596-.5996,0-2.0996-1.2002-3.4805-3.2402-3.4805-2.5498,0-3.4199,1.7402-3.5693,4.0801h6.75Z"/>
    <path class="cls-2" d="M248.9359,284.4192l.7793,1.8594c-1.2598.8701-3.1191,1.6504-5.1895,1.6504-4.5293,0-6.2393-3-6.2393-7.1992,0-3.9609,1.8896-7.1104,5.999-7.1104,3.8105,0,5.46,2.8193,5.46,5.7598,0,.6299-.0898,1.5303-.1797,2.1006h-8.8799c.0605,2.6992,1.1396,4.4092,3.8701,4.4092,1.5898,0,3.1201-.6006,4.3799-1.4697ZM247.4662,279.679c.0293-.1797.0596-.4492.0596-.5996,0-2.0996-1.2002-3.4805-3.2402-3.4805-2.5498,0-3.4199,1.7402-3.5693,4.0801h6.75Z"/>
    <path class="cls-2" d="M253.2562,268.7591h-2.5205v-2.0391h4.7402v17.2188c0,1.29.3301,1.8301,1.3799,1.8301.4805,0,.9297-.0605,1.3496-.21l.1807,2.0107c-.6006.2393-1.3203.3594-2.1006.3594-2.3398,0-3.0293-1.4102-3.0293-3.75v-15.4199Z"/>
    <path class="cls-2" d="M273.806,268.7298c-.5098-.0898-1.0498-.1797-1.6797-.1797-1.5605,0-2.0098.9902-2.0098,2.6699v2.6992h4.0791v2.0098h-4.0791v9.6602h3.209v2.0098h-7.4697v-1.7998l2.04-.4199v-9.4502h-2.0693v-2.0098h2.0693v-2.8496c0-2.4902,1.0801-4.6504,4.1104-4.6504.7197,0,1.4395.1504,1.7998.2402v2.0703Z"/>
    <path class="cls-2" d="M279.2347,278.5989h-1.9199c-.2393-.5996-.3896-1.2598-.3896-2.0098,0-1.7402,1.6504-2.9697,5.1299-2.9697,4.5293,0,5.0693,1.5898,5.0693,5.1592v5.9404c0,.75.3301,1.0205.8408,1.0205.3594,0,.7197-.0605,1.0498-.1211v2.0098c-.5703.1211-1.2305.1504-1.71.1504-1.3799,0-2.25-.75-2.3398-2.0391-.8105.9893-2.3701,2.1895-4.6797,2.1895-2.79,0-4.1699-1.4707-4.1699-3.8398,0-2.8203,2.4893-3.7793,6.2998-4.1992l2.3994-.3008v-3.3594c-.5703-.3604-1.7402-.541-2.7598-.541-1.29,0-2.0703.1504-2.8203.541v2.3691ZM280.8548,285.9485c1.7705,0,3.21-.8994,3.96-1.6494v-3.0898l-2.3398.3301c-2.7002.3896-3.9297.9297-3.9297,2.3994,0,1.2305.6895,2.0098,2.3096,2.0098Z"/>
    <path class="cls-2" d="M301.7054,284.5384l.6592,1.9512c-1.2891.75-3.209,1.4395-5.3096,1.4395-4.3496,0-6.1494-3.1797-6.1494-7.1992,0-3.9004,2.0098-7.1104,6.2695-7.1104,2.1299,0,3.8096.5693,4.9795,1.1396l-.5098,4.6504h-1.8301v-3.3594c-.7793-.3008-1.5596-.4209-2.6094-.4209-2.7305,0-3.8096,2.1299-3.8096,4.9502,0,2.9102.96,5.2197,3.8994,5.2197,1.6201,0,3.2695-.54,4.4102-1.2607Z"/>
    <path class="cls-2" d="M308.7845,283.6985c0,1.2305.54,2.0703,1.8301,2.0703.5996,0,1.5-.0898,2.1299-.3301l.2402,2.0098c-.6602.2705-1.8896.4805-2.9404.4805-2.4893,0-3.5098-1.6504-3.5098-3.9902v-7.9795h-2.6094v-1.7393l2.6094-.3008v-3.4492l2.25-.4199v3.8691h3.7197v2.04h-3.7197v7.7393Z"/>
    <path class="cls-2" d="M327.3548,280.7298c0,4.2285-1.6504,7.1992-6.2695,7.1992-4.4697,0-6.1797-2.9707-6.1797-7.1699s1.71-7.1396,6.2393-7.1396c4.5596,0,6.21,2.9697,6.21,7.1104ZM324.9544,280.7591c0-3.21-.8994-5.0391-3.8398-5.0391-2.8799,0-3.8096,1.8291-3.8096,5.0098,0,3.2393.96,5.0996,3.8398,5.0996,2.9102,0,3.8096-1.8906,3.8096-5.0703Z"/>
    <path class="cls-2" d="M329.8148,273.9192h4.1699v2.9395c.5693-1.5293,2.1592-3.2393,3.9297-3.2393.8096,0,1.6797.0898,2.2197.1807l-.2695,2.7598-2.25-.5703c-1.3506.1191-2.79,1.1396-3.5098,2.6396v6.96h3.2695v2.0098h-7.5596v-1.7998l2.04-.4199v-9.4199h-2.04v-2.04Z"/>
    <path class="cls-2" d="M53.3695,325.5891h1.9795v-9.6299h-1.9497v-2.04h4.02v1.4395c.7798-.9297,2.2197-1.7393,3.9595-1.7393,1.98,0,3.0298.6904,3.8101,1.9502,1.02-1.2002,2.5801-1.9502,4.5-1.9502,3.2095,0,4.2896,1.7998,4.2896,5.1006v6.8691h1.9199v2.0098h-5.9995v-2.0098h1.7998v-6.7197c0-2.0107-.4502-3.0898-2.46-3.0898-1.4399,0-2.6997.5996-3.3599,1.4092v8.4004h1.7998v2.0098h-5.9097v-2.0098h1.8301v-8.2793c-.48-.9609-1.3799-1.5303-2.7603-1.5303-1.5298,0-2.5195.6299-3.2397,1.4092v8.4004h1.7998v2.0098h-6.0293v-2.0098Z"/>
    <path class="cls-2" d="M80.7889,318.5989h-1.9199c-.2402-.5996-.3901-1.2598-.3901-2.0098,0-1.7402,1.6499-2.9697,5.1299-2.9697,4.5298,0,5.0698,1.5898,5.0698,5.1592v5.9404c0,.75.3301,1.0205.8398,1.0205.3599,0,.7202-.0605,1.0498-.1211v2.0098c-.5698.1211-1.23.1504-1.71.1504-1.3799,0-2.2495-.75-2.3398-2.0391-.8101.9893-2.3696,2.1895-4.6797,2.1895-2.79,0-4.1699-1.4707-4.1699-3.8398,0-2.8203,2.4897-3.7793,6.2998-4.1992l2.3999-.3008v-3.3594c-.5698-.3604-1.7397-.541-2.7598-.541-1.29,0-2.0698.1504-2.8198.541v2.3691ZM82.4085,325.9485c1.77,0,3.21-.8994,3.96-1.6494v-3.0898l-2.3398.3301c-2.6997.3896-3.9297.9297-3.9297,2.3994,0,1.2305.6899,2.0098,2.3096,2.0098ZM87.0887,306.72l-2.6099,4.6494h-2.1304l2.2803-4.6494h2.46Z"/>
    <path class="cls-2" d="M102.3885,318.0891h-1.8003l-.3296-2.3096c-.7202-.2705-1.4399-.3896-2.4302-.3896-1.7998,0-2.52,1.0488-2.52,2.0391,0,.9609.5103,1.5303,1.6802,1.8906l2.3398.7793c2.25.6904,3.5698,1.8008,3.5698,3.9004s-1.71,3.9297-5.3096,3.9297c-1.7402,0-3.3901-.3906-4.7998-1.0195l-.3301-4.0205h1.7998l.6299,2.7607c.6899.2988,1.6201.5391,2.6699.5391,1.6499,0,2.8198-.7197,2.8198-2.0098,0-1.0498-.7197-1.6191-1.9199-1.9805l-2.46-.8096c-1.9497-.6299-3.1797-1.7998-3.1797-3.749,0-1.9199,1.3501-4.0205,5.0098-4.0205,1.5898,0,3.3599.3301,4.5601.8398v3.6299Z"/>
    <path class="cls-2" d="M121.3177,308.7591h-2.8198v-2.0391h5.0698v18.8691h2.0698v2.0098h-1.9497c-1.4399,0-2.04-.6602-2.1001-1.8906-.7197.9307-2.1299,2.2207-4.3198,2.2207-3.9297,0-5.7295-2.7305-5.7295-7.1992,0-4.3506,1.8296-7.1104,5.8198-7.1104,2.0098,0,3.2397.75,3.9595,1.6494v-6.5098ZM117.808,325.7688c1.6201,0,2.8501-.9297,3.5098-1.7998v-6.54c-.5098-.7197-1.5898-1.6494-3.4795-1.6494-3,0-3.9302,2.0693-3.9302,4.9502,0,2.8496.8701,5.0391,3.8999,5.0391Z"/>
    <path class="cls-2" d="M138.2679,324.4192l.7798,1.8594c-1.2598.8701-3.1201,1.6504-5.1899,1.6504-4.5298,0-6.2397-3-6.2397-7.1992,0-3.9609,1.8901-7.1104,6-7.1104,3.8096,0,5.4595,2.8193,5.4595,5.7598,0,.6299-.0898,1.5303-.1797,2.1006h-8.8799c.0601,2.6992,1.1401,4.4092,3.8701,4.4092,1.5898,0,3.1196-.6006,4.3799-1.4697ZM136.7977,319.679c.0303-.1797.0601-.4492.0601-.5996,0-2.0996-1.2002-3.4805-3.2397-3.4805-2.5498,0-3.4199,1.7402-3.5698,4.0801h6.7495Z"/>
    <path class="cls-2" d="M145.7376,323.6985c0,1.2305.54,2.0703,1.8301,2.0703.6001,0,1.5-.0898,2.1299-.3301l.2402,2.0098c-.6602.2705-1.8901.4805-2.9399.4805-2.4897,0-3.5098-1.6504-3.5098-3.9902v-7.9795h-2.6099v-1.7393l2.6099-.3008v-3.4492l2.2495-.4199v3.8691h3.7202v2.04h-3.7202v7.7393Z"/>
    <path class="cls-2" d="M162.5072,324.4192l.7798,1.8594c-1.2598.8701-3.1201,1.6504-5.1899,1.6504-4.5298,0-6.2397-3-6.2397-7.1992,0-3.9609,1.8901-7.1104,6-7.1104,3.8096,0,5.4595,2.8193,5.4595,5.7598,0,.6299-.0898,1.5303-.1797,2.1006h-8.8799c.0601,2.6992,1.1401,4.4092,3.8701,4.4092,1.5898,0,3.1196-.6006,4.3799-1.4697ZM161.037,319.679c.0303-.1797.0601-.4492.0601-.5996,0-2.0996-1.2002-3.4805-3.2397-3.4805-2.5498,0-3.4199,1.7402-3.5698,4.0801h6.7495Z"/>
    <path class="cls-2" d="M165.8675,313.9192h4.1694v2.9395c.5703-1.5293,2.1602-3.2393,3.9302-3.2393.8096,0,1.6797.0898,2.2197.1807l-.27,2.7598-2.25-.5703c-1.3496.1191-2.7896,1.1396-3.5098,2.6396v6.96h3.27v2.0098h-7.5596v-1.7998l2.0396-.4199v-9.4199h-2.0396v-2.04Z"/>
    <path class="cls-2" d="M177.8372,325.5891h1.9795v-9.6299h-1.9497v-2.04h4.02v1.4395c.7798-.9297,2.2197-1.7393,3.9595-1.7393,1.98,0,3.0298.6904,3.8101,1.9502,1.0195-1.2002,2.5801-1.9502,4.5-1.9502,3.21,0,4.29,1.7998,4.29,5.1006v6.8691h1.9199v2.0098h-6v-2.0098h1.7998v-6.7197c0-2.0107-.4502-3.0898-2.46-3.0898-1.4404,0-2.7002.5996-3.3604,1.4092v8.4004h1.8008v2.0098h-5.9102v-2.0098h1.8301v-8.2793c-.48-.9609-1.3799-1.5303-2.7603-1.5303-1.5298,0-2.5195.6299-3.2397,1.4092v8.4004h1.7998v2.0098h-6.0293v-2.0098Z"/>
    <path class="cls-2" d="M202.0462,325.5891h3v-9.6299h-3v-2.04h5.25v11.6699h2.8506v2.0098h-8.1006v-2.0098ZM204.3568,308.9397c0-1.1396.7197-1.6201,1.6494-1.6201.8398,0,1.6201.4805,1.6201,1.6201s-.7803,1.5898-1.6201,1.5898c-.9297,0-1.6494-.4502-1.6494-1.5898Z"/>
    <path class="cls-2" d="M211.8265,325.5891h1.9795v-9.6299h-1.9502v-2.04h4.0205v1.5303c.8398-.8994,2.5195-1.8301,4.7998-1.8301,3.3594,0,4.5596,1.7705,4.5596,5.25v6.7197h1.9502v2.0098h-6.5098v-2.0098h2.3096v-6.54c0-2.0098-.3896-3.2695-2.9395-3.2695-1.6504,0-3.2402.75-3.9902,1.4092v8.4004h2.2803v2.0098h-6.5098v-2.0098Z"/>
    <path class="cls-2" d="M232.0462,318.5989h-1.9199c-.2393-.5996-.3896-1.2598-.3896-2.0098,0-1.7402,1.6504-2.9697,5.1299-2.9697,4.5293,0,5.0693,1.5898,5.0693,5.1592v5.9404c0,.75.3301,1.0205.8398,1.0205.3604,0,.7207-.0605,1.0508-.1211v2.0098c-.5703.1211-1.2305.1504-1.71.1504-1.3799,0-2.25-.75-2.3398-2.0391-.8105.9893-2.3701,2.1895-4.6807,2.1895-2.7891,0-4.1689-1.4707-4.1689-3.8398,0-2.8203,2.4893-3.7793,6.2998-4.1992l2.3994-.3008v-3.3594c-.5703-.3604-1.7402-.541-2.7598-.541-1.29,0-2.0703.1504-2.8203.541v2.3691ZM233.6664,325.9485c1.7705,0,3.21-.8994,3.96-1.6494v-3.0898l-2.3398.3301c-2.7002.3896-3.9297.9297-3.9297,2.3994,0,1.2305.6895,2.0098,2.3096,2.0098Z"/>
    <path class="cls-2" d="M243.6263,325.5891h1.9795v-9.6299h-1.9502v-2.04h4.0205v1.5303c.8398-.8994,2.5195-1.8301,4.7998-1.8301,3.3594,0,4.5596,1.7705,4.5596,5.25v6.7197h1.9502v2.0098h-6.5098v-2.0098h2.3096v-6.54c0-2.0098-.3896-3.2695-2.9395-3.2695-1.6504,0-3.2402.75-3.9902,1.4092v8.4004h2.2803v2.0098h-6.5098v-2.0098Z"/>
    <path class="cls-2" d="M264.7464,323.6985c0,1.2305.54,2.0703,1.8301,2.0703.5996,0,1.5-.0898,2.1299-.3301l.2402,2.0098c-.6602.2705-1.8896.4805-2.9404.4805-2.4893,0-3.5098-1.6504-3.5098-3.9902v-7.9795h-2.6094v-1.7393l2.6094-.3008v-3.4492l2.25-.4199v3.8691h3.7197v2.04h-3.7197v7.7393Z"/>
    <path class="cls-2" d="M281.516,324.4192l.7793,1.8594c-1.2598.8701-3.1191,1.6504-5.1895,1.6504-4.5293,0-6.2393-3-6.2393-7.1992,0-3.9609,1.8896-7.1104,5.999-7.1104,3.8105,0,5.46,2.8193,5.46,5.7598,0,.6299-.0898,1.5303-.1797,2.1006h-8.8799c.0605,2.6992,1.1396,4.4092,3.8701,4.4092,1.5898,0,3.1201-.6006,4.3799-1.4697ZM280.0462,319.679c.0293-.1797.0596-.4492.0596-.5996,0-2.0996-1.2002-3.4805-3.2402-3.4805-2.5498,0-3.4199,1.7402-3.5693,4.0801h6.75Z"/>
    <path class="cls-2" d="M293.9056,318.5989h-1.9199c-.2393-.5996-.3896-1.2598-.3896-2.0098,0-1.7402,1.6504-2.9697,5.1299-2.9697,4.5293,0,5.0693,1.5898,5.0693,5.1592v5.9404c0,.75.3301,1.0205.8398,1.0205.3604,0,.7207-.0605,1.0508-.1211v2.0098c-.5703.1211-1.2305.1504-1.71.1504-1.3799,0-2.25-.75-2.3398-2.0391-.8105.9893-2.3701,2.1895-4.6807,2.1895-2.7891,0-4.1689-1.4707-4.1689-3.8398,0-2.8203,2.4893-3.7793,6.2998-4.1992l2.3994-.3008v-3.3594c-.5703-.3604-1.7402-.541-2.7598-.541-1.29,0-2.0703.1504-2.8203.541v2.3691ZM295.5257,325.9485c1.7705,0,3.21-.8994,3.96-1.6494v-3.0898l-2.3398.3301c-2.7002.3896-3.9297.9297-3.9297,2.3994,0,1.2305.6895,2.0098,2.3096,2.0098Z"/>
    <path class="cls-2" d="M312.4456,308.7591h-2.5205v-2.0391h4.7402v17.2188c0,1.29.3301,1.8301,1.3799,1.8301.4805,0,.9297-.0605,1.3496-.21l.1807,2.0107c-.6006.2393-1.3203.3594-2.1006.3594-2.3398,0-3.0293-1.4102-3.0293-3.75v-15.4199Z"/>
    <path class="cls-2" d="M322.1654,318.5989h-1.9199c-.2393-.5996-.3896-1.2598-.3896-2.0098,0-1.7402,1.6504-2.9697,5.1299-2.9697,4.5293,0,5.0693,1.5898,5.0693,5.1592v5.9404c0,.75.3301,1.0205.8398,1.0205.3604,0,.7207-.0605,1.0508-.1211v2.0098c-.5703.1211-1.2305.1504-1.71.1504-1.3799,0-2.25-.75-2.3398-2.0391-.8105.9893-2.3701,2.1895-4.6807,2.1895-2.7891,0-4.1689-1.4707-4.1689-3.8398,0-2.8203,2.4893-3.7793,6.2998-4.1992l2.3994-.3008v-3.3594c-.5703-.3604-1.7402-.541-2.7598-.541-1.29,0-2.0703.1504-2.8203.541v2.3691ZM323.7855,325.9485c1.7705,0,3.21-.8994,3.96-1.6494v-3.0898l-2.3398.3301c-2.7002.3896-3.9297.9297-3.9297,2.3994,0,1.2305.6895,2.0098,2.3096,2.0098Z"/>
    <path class="cls-2" d="M339.2953,325.5891h2.0098v-16.7988h-2.1602v-2.0703h4.4102v8.5488c.9004-.8398,2.6699-1.6494,4.6797-1.6494,3.4199,0,4.6201,1.7705,4.6201,5.25v6.7197h1.9795v2.0098h-6.5693v-2.0098h2.3398v-6.54c0-2.0098-.3896-3.2695-2.9697-3.2695-1.6797,0-3.2998.75-4.0801,1.4092v8.4004h2.3398v2.0098h-6.5996v-2.0098Z"/>
    <path class="cls-2" d="M369.2347,320.7298c0,4.2285-1.6504,7.1992-6.2695,7.1992-4.4697,0-6.1797-2.9707-6.1797-7.1699s1.71-7.1396,6.2393-7.1396c4.5596,0,6.21,2.9697,6.21,7.1104ZM366.8343,320.7591c0-3.21-.8994-5.0391-3.8398-5.0391-2.8799,0-3.8096,1.8291-3.8096,5.0098,0,3.2393.96,5.0996,3.8398,5.0996,2.9102,0,3.8096-1.8906,3.8096-5.0703Z"/>
    <path class="cls-2" d="M371.6947,313.9192h4.1699v2.9395c.5693-1.5293,2.1592-3.2393,3.9297-3.2393.8096,0,1.6797.0898,2.2197.1807l-.2695,2.7598-2.25-.5703c-1.3506.1191-2.79,1.1396-3.5098,2.6396v6.96h3.2695v2.0098h-7.5596v-1.7998l2.04-.4199v-9.4199h-2.04v-2.04Z"/>
    <path class="cls-2" d="M386.6937,318.5989h-1.9199c-.2393-.5996-.3896-1.2598-.3896-2.0098,0-1.7402,1.6504-2.9697,5.1299-2.9697,4.5293,0,5.0693,1.5898,5.0693,5.1592v5.9404c0,.75.3301,1.0205.8408,1.0205.3594,0,.7197-.0605,1.0498-.1211v2.0098c-.5703.1211-1.2305.1504-1.71.1504-1.3799,0-2.25-.75-2.3398-2.0391-.8105.9893-2.3701,2.1895-4.6797,2.1895-2.79,0-4.1699-1.4707-4.1699-3.8398,0-2.8203,2.4893-3.7793,6.2998-4.1992l2.3994-.3008v-3.3594c-.5703-.3604-1.7402-.541-2.7598-.541-1.29,0-2.0703.1504-2.8203.541v2.3691ZM388.3138,325.9485c1.7705,0,3.21-.8994,3.96-1.6494v-3.0898l-2.3398.3301c-2.7002.3896-3.9297.9297-3.9297,2.3994,0,1.2305.6895,2.0098,2.3096,2.0098Z"/>
    <path class="cls-2" d="M63.2987,348.7591h-2.8198v-2.0391h5.0698v18.8691h2.0698v2.0098h-1.9497c-1.4399,0-2.04-.6602-2.1001-1.8906-.7197.9307-2.1299,2.2207-4.3198,2.2207-3.9297,0-5.7295-2.7305-5.7295-7.1992,0-4.3506,1.8296-7.1104,5.8198-7.1104,2.0098,0,3.2397.75,3.9595,1.6494v-6.5098ZM59.7889,365.7688c1.6201,0,2.8501-.9297,3.5098-1.7998v-6.54c-.5098-.7197-1.5898-1.6494-3.4795-1.6494-3,0-3.9302,2.0693-3.9302,4.9502,0,2.8496.8701,5.0391,3.8999,5.0391Z"/>
    <path class="cls-2" d="M80.2484,364.4192l.7798,1.8594c-1.2598.8701-3.1201,1.6504-5.1899,1.6504-4.5298,0-6.2397-3-6.2397-7.1992,0-3.9609,1.8901-7.1104,6-7.1104,3.8096,0,5.4595,2.8193,5.4595,5.7598,0,.6299-.0898,1.5303-.1797,2.1006h-8.8799c.0601,2.6992,1.1401,4.4092,3.8701,4.4092,1.5898,0,3.1196-.6006,4.3799-1.4697ZM78.7782,359.679c.0303-.1797.0601-.4492.0601-.5996,0-2.0996-1.2002-3.4805-3.2397-3.4805-2.5498,0-3.4199,1.7402-3.5698,4.0801h6.7495Z"/>
    <path class="cls-2" d="M100.4979,364.5384l.6602,1.9512c-1.29.75-3.21,1.4395-5.3101,1.4395-4.3496,0-6.1494-3.1797-6.1494-7.1992,0-3.9004,2.0098-7.1104,6.2695-7.1104,2.1299,0,3.8101.5693,4.98,1.1396l-.5103,4.6504h-1.8296v-3.3594c-.7803-.3008-1.5601-.4209-2.6099-.4209-2.73,0-3.8101,2.1299-3.8101,4.9502,0,2.9102.96,5.2197,3.8999,5.2197,1.6201,0,3.27-.54,4.4097-1.2607Z"/>
    <path class="cls-2" d="M116.0379,360.7298c0,4.2285-1.6499,7.1992-6.27,7.1992-4.4697,0-6.1797-2.9707-6.1797-7.1699s1.71-7.1396,6.2397-7.1396c4.5601,0,6.21,2.9697,6.21,7.1104ZM113.638,360.7591c0-3.21-.8999-5.0391-3.8398-5.0391-2.8799,0-3.8101,1.8291-3.8101,5.0098,0,3.2393.96,5.0996,3.8398,5.0996,2.9102,0,3.8101-1.8906,3.8101-5.0703Z"/>
    <path class="cls-2" d="M118.4984,365.5891h1.9795v-9.6299h-1.9497v-2.04h4.02v1.5303c.8398-.8994,2.5195-1.8301,4.7998-1.8301,3.3599,0,4.5596,1.7705,4.5596,5.25v6.7197h1.9502v2.0098h-6.5098v-2.0098h2.3096v-6.54c0-2.0098-.3896-3.2695-2.9399-3.2695-1.6499,0-3.2397.75-3.9897,1.4092v8.4004h2.2798v2.0098h-6.5093v-2.0098Z"/>
    <path class="cls-2" d="M145.7079,358.0891h-1.8003l-.3296-2.3096c-.7202-.2705-1.4399-.3896-2.4302-.3896-1.7998,0-2.52,1.0488-2.52,2.0391,0,.9609.5103,1.5303,1.6802,1.8906l2.3398.7793c2.25.6904,3.5698,1.8008,3.5698,3.9004s-1.71,3.9297-5.3096,3.9297c-1.7402,0-3.3901-.3906-4.7998-1.0195l-.3301-4.0205h1.7998l.6299,2.7607c.6899.2988,1.6201.5391,2.6699.5391,1.6499,0,2.8198-.7197,2.8198-2.0098,0-1.0498-.7197-1.6191-1.9199-1.9805l-2.46-.8096c-1.9497-.6299-3.1797-1.7998-3.1797-3.749,0-1.9199,1.3501-4.0205,5.0098-4.0205,1.5898,0,3.3599.3301,4.5601.8398v3.6299Z"/>
    <path class="cls-2" d="M152.8172,363.6985c0,1.2305.54,2.0703,1.8301,2.0703.6001,0,1.5-.0898,2.1299-.3301l.2402,2.0098c-.6602.2705-1.8901.4805-2.9399.4805-2.4902,0-3.5098-1.6504-3.5098-3.9902v-7.9795h-2.6099v-1.7393l2.6099-.3008v-3.4492l2.2495-.4199v3.8691h3.7202v2.04h-3.7202v7.7393Z"/>
    <path class="cls-2" d="M158.6976,365.5891h3v-9.6299h-3v-2.04h5.2495v11.6699h2.8501v2.0098h-8.0996v-2.0098ZM161.0077,348.9397c0-1.1396.7197-1.6201,1.6499-1.6201.8398,0,1.6196.4805,1.6196,1.6201s-.7798,1.5898-1.6196,1.5898c-.9302,0-1.6499-.4502-1.6499-1.5898Z"/>
    <path class="cls-2" d="M172.347,363.6985c0,1.2305.54,2.0703,1.8301,2.0703.6001,0,1.5-.0898,2.1299-.3301l.2402,2.0098c-.6602.2705-1.8901.4805-2.9399.4805-2.4897,0-3.5098-1.6504-3.5098-3.9902v-7.9795h-2.6099v-1.7393l2.6099-.3008v-3.4492l2.2495-.4199v3.8691h3.7202v2.04h-3.7202v7.7393Z"/>
    <path class="cls-2" d="M191.2767,365.5589h2.0996v2.04h-3.9902v-2.1895c-.8398,1.1396-2.6396,2.5195-5.0693,2.5195-3.1802,0-4.3501-1.7695-4.3501-5.2793v-6.7207h-2.2197v-2.0098h4.4697v8.5498c0,2.0107.3901,3.2705,2.79,3.2705,1.7397,0,3.3599-1.0205,4.02-2.1006v-7.71h-2.79v-2.0098h5.04v11.6396Z"/>
    <path class="cls-2" d="M195.1165,365.5891h3v-9.6299h-3v-2.04h5.25v11.6699h2.8506v2.0098h-8.1006v-2.0098ZM197.4271,348.9397c0-1.1396.7197-1.6201,1.6494-1.6201.8398,0,1.6201.4805,1.6201,1.6201s-.7803,1.5898-1.6201,1.5898c-.9297,0-1.6494-.4502-1.6494-1.5898Z"/>
    <path class="cls-2" d="M204.8968,353.9192h4.1699v2.9395c.5693-1.5293,2.1592-3.2393,3.9297-3.2393.8096,0,1.6797.0898,2.2197.1807l-.2695,2.7598-2.25-.5703c-1.3506.1191-2.79,1.1396-3.5098,2.6396v6.96h3.2695v2.0098h-7.5596v-1.7998l2.04-.4199v-9.4199h-2.04v-2.04Z"/>
    <path class="cls-2" d="M223.8558,372.1888h3.4502l2.2197-4.8896-4.8594-11.3398h-2.7002v-2.04h5.1602v1.9502l3.54,8.8799,3.7793-8.79h-3.5098v-2.04h7.6201v2.04h-1.7998l-7.0498,16.1396c-.75,1.7695-1.8906,2.2793-3.2998,2.2793-1.0205,0-1.9502-.1494-2.5508-.4199v-1.7695Z"/>
    <path class="cls-2" d="M249.1146,358.5989h-1.9199c-.2393-.5996-.3896-1.2598-.3896-2.0098,0-1.7402,1.6504-2.9697,5.1299-2.9697,4.5293,0,5.0693,1.5898,5.0693,5.1592v5.9404c0,.75.3301,1.0205.8398,1.0205.3604,0,.7207-.0605,1.0508-.1211v2.0098c-.5703.1211-1.2305.1504-1.71.1504-1.3799,0-2.25-.75-2.3398-2.0391-.8105.9893-2.3701,2.1895-4.6807,2.1895-2.7891,0-4.1689-1.4707-4.1689-3.8398,0-2.8203,2.4893-3.7793,6.2998-4.1992l2.3994-.3008v-3.3594c-.5703-.3604-1.7402-.541-2.7598-.541-1.29,0-2.0703.1504-2.8203.541v2.3691ZM250.7347,365.9485c1.7705,0,3.21-.8994,3.96-1.6494v-3.0898l-2.3398.3301c-2.7002.3896-3.9297.9297-3.9297,2.3994,0,1.2305.6895,2.0098,2.3096,2.0098Z"/>
    <path class="cls-2" d="M270.7152,358.0891h-1.7998l-.3301-2.3096c-.7197-.2705-1.4404-.3896-2.4297-.3896-1.8008,0-2.5205,1.0488-2.5205,2.0391,0,.9609.5098,1.5303,1.6797,1.8906l2.3398.7793c2.25.6904,3.5703,1.8008,3.5703,3.9004s-1.71,3.9297-5.3096,3.9297c-1.7402,0-3.3896-.3906-4.7998-1.0195l-.3301-4.0205h1.7998l.6299,2.7607c.6904.2988,1.6201.5391,2.6699.5391,1.6504,0,2.8203-.7197,2.8203-2.0098,0-1.0498-.7207-1.6191-1.9199-1.9805l-2.46-.8096c-1.9502-.6299-3.1797-1.7998-3.1797-3.749,0-1.9199,1.3496-4.0205,5.0098-4.0205,1.5898,0,3.3594.3301,4.5596.8398v3.6299Z"/>
    <path class="cls-2" d="M273.5345,365.5891h3v-9.6299h-3v-2.04h5.25v11.6699h2.8506v2.0098h-8.1006v-2.0098ZM275.8451,348.9397c0-1.1396.7197-1.6201,1.6494-1.6201.8398,0,1.6201.4805,1.6201,1.6201s-.7803,1.5898-1.6201,1.5898c-.9297,0-1.6494-.4502-1.6494-1.5898Z"/>
    <path class="cls-2" d="M293.6644,355.7493c.6895.7207,1.0801,1.9199,1.0801,3.1504,0,3.0898-2.1299,4.8594-5.5801,4.8594-.7803,0-1.7695-.0898-2.3096-.2998l-.4209,2.4297h4.5c3.0303,0,4.5898,1.3193,4.5898,3.6592,0,2.9102-2.6094,4.8301-6.6895,4.8301-4.29,0-5.9102-1.5293-5.9102-3.7188,0-1.6211,1.3203-2.7607,2.3701-3.0605-.6602-.2998-.9902-.9902-.9902-1.6504,0-1.2295.8408-2.1895,1.5-2.7891-1.5-.7803-2.3994-2.2803-2.3994-4.3203,0-3.1191,1.9502-5.2197,5.79-5.2197,1.3496,0,2.7891.4199,3.4795.9307,1.2002-1.5312,2.4004-1.9512,3.6602-1.9199l.21,2.1592-2.8799.96ZM285.2347,370.1487c0,1.4697.9893,2.3398,3.6592,2.3398,2.3701,0,4.2305-.8398,4.2305-2.6699,0-1.0498-.6006-1.8604-2.5498-1.8604h-3.9297c-.8105.541-1.4102,1.1699-1.4102,2.1904ZM292.4945,358.8391c0-1.7998-.9307-3.1797-3.3604-3.1797-2.5498,0-3.4492,1.3496-3.4492,3.1797,0,1.7695.8994,3.1201,3.4492,3.1201,2.4004,0,3.3604-1.2295,3.3604-3.1201Z"/>
    <path class="cls-2" d="M297.9251,365.5891h1.9795v-9.6299h-1.9502v-2.04h4.0205v1.5303c.8398-.8994,2.5195-1.8301,4.7998-1.8301,3.3594,0,4.5596,1.7705,4.5596,5.25v6.7197h1.9502v2.0098h-6.5098v-2.0098h2.3096v-6.54c0-2.0098-.3896-3.2695-2.9395-3.2695-1.6504,0-3.2402.75-3.9902,1.4092v8.4004h2.2803v2.0098h-6.5098v-2.0098Z"/>
    <path class="cls-2" d="M318.1439,358.5989h-1.9199c-.2393-.5996-.3896-1.2598-.3896-2.0098,0-1.7402,1.6504-2.9697,5.1299-2.9697,4.5293,0,5.0693,1.5898,5.0693,5.1592v5.9404c0,.75.3301,1.0205.8398,1.0205.3604,0,.7207-.0605,1.0508-.1211v2.0098c-.5703.1211-1.2305.1504-1.71.1504-1.3799,0-2.25-.75-2.3398-2.0391-.8105.9893-2.3701,2.1895-4.6807,2.1895-2.7891,0-4.1689-1.4707-4.1689-3.8398,0-2.8203,2.4893-3.7793,6.2998-4.1992l2.3994-.3008v-3.3594c-.5703-.3604-1.7402-.541-2.7598-.541-1.29,0-2.0703.1504-2.8203.541v2.3691ZM319.764,365.9485c1.7705,0,3.21-.8994,3.96-1.6494v-3.0898l-2.3398.3301c-2.7002.3896-3.9297.9297-3.9297,2.3994,0,1.2305.6895,2.0098,2.3096,2.0098Z"/>
    <path class="cls-2" d="M329.7249,353.9192h4.1699v2.9395c.5693-1.5293,2.1592-3.2393,3.9297-3.2393.8096,0,1.6797.0898,2.2197.1807l-.2695,2.7598-2.25-.5703c-1.3506.1191-2.79,1.1396-3.5098,2.6396v6.96h3.2695v2.0098h-7.5596v-1.7998l2.04-.4199v-9.4199h-2.04v-2.04Z"/>
    <path class="cls-2" d="M348.6546,348.7591h-2.5205v-2.0391h4.7402v17.2188c0,1.29.3301,1.8301,1.3799,1.8301.4805,0,.9297-.0605,1.3496-.21l.1807,2.0107c-.6006.2393-1.3203.3594-2.1006.3594-2.3398,0-3.0293-1.4102-3.0293-3.75v-15.4199Z"/>
    <path class="cls-2" d="M358.3734,358.5989h-1.9199c-.2393-.5996-.3896-1.2598-.3896-2.0098,0-1.7402,1.6504-2.9697,5.1299-2.9697,4.5293,0,5.0693,1.5898,5.0693,5.1592v5.9404c0,.75.3301,1.0205.8408,1.0205.3594,0,.7197-.0605,1.0498-.1211v2.0098c-.5703.1211-1.2305.1504-1.71.1504-1.3799,0-2.25-.75-2.3398-2.0391-.8105.9893-2.3701,2.1895-4.6797,2.1895-2.79,0-4.1699-1.4707-4.1699-3.8398,0-2.8203,2.4893-3.7793,6.2998-4.1992l2.3994-.3008v-3.3594c-.5703-.3604-1.7402-.541-2.7598-.541-1.29,0-2.0703.1504-2.8203.541v2.3691ZM359.9935,365.9485c1.7705,0,3.21-.8994,3.96-1.6494v-3.0898l-2.3398.3301c-2.7002.3896-3.9297.9297-3.9297,2.3994,0,1.2305.6895,2.0098,2.3096,2.0098Z"/>
    <path class="cls-2" d="M56.3993,398.5989h-1.9199c-.2402-.5996-.3901-1.2598-.3901-2.0098,0-1.7402,1.6499-2.9697,5.1299-2.9697,4.5298,0,5.0698,1.5898,5.0698,5.1592v5.9404c0,.75.3301,1.0205.8398,1.0205.3599,0,.7202-.0605,1.0498-.1211v2.0098c-.5698.1211-1.23.1504-1.71.1504-1.3799,0-2.2495-.75-2.3398-2.0391-.8101.9893-2.3696,2.1895-4.6797,2.1895-2.79,0-4.1699-1.4707-4.1699-3.8398,0-2.8203,2.4897-3.7793,6.2998-4.1992l2.3999-.3008v-3.3594c-.5698-.3604-1.7397-.541-2.7598-.541-1.29,0-2.0698.1504-2.8198.541v2.3691ZM58.0189,405.9485c1.77,0,3.21-.8994,3.96-1.6494v-3.0898l-2.3398.3301c-2.6997.3896-3.9297.9297-3.9297,2.3994,0,1.2305.6899,2.0098,2.3096,2.0098Z"/>
    <path class="cls-2" d="M77.9085,388.7591h-2.8198v-2.0391h5.0698v18.8691h2.0698v2.0098h-1.9497c-1.4399,0-2.04-.6602-2.1001-1.8906-.7197.9307-2.1299,2.2207-4.3198,2.2207-3.9297,0-5.7295-2.7305-5.7295-7.1992,0-4.3506,1.8296-7.1104,5.8198-7.1104,2.0098,0,3.2397.75,3.9595,1.6494v-6.5098ZM74.3988,405.7688c1.6201,0,2.8501-.9297,3.5098-1.7998v-6.54c-.5098-.7197-1.5898-1.6494-3.4795-1.6494-3,0-3.9302,2.0693-3.9302,4.9502,0,2.8496.8701,5.0391,3.8999,5.0391Z"/>
    <path class="cls-2" d="M84.0892,405.5891h1.9795v-9.6299h-1.9497v-2.04h4.02v1.4395c.7798-.9297,2.2197-1.7393,3.9595-1.7393,1.98,0,3.0298.6904,3.8101,1.9502,1.02-1.2002,2.5801-1.9502,4.5-1.9502,3.2095,0,4.2896,1.7998,4.2896,5.1006v6.8691h1.9199v2.0098h-5.9995v-2.0098h1.7998v-6.7197c0-2.0107-.4502-3.0898-2.46-3.0898-1.4399,0-2.6997.5996-3.3599,1.4092v8.4004h1.7998v2.0098h-5.9097v-2.0098h1.8301v-8.2793c-.48-.9609-1.3799-1.5303-2.7603-1.5303-1.5298,0-2.5195.6299-3.2397,1.4092v8.4004h1.7998v2.0098h-6.0293v-2.0098Z"/>
    <path class="cls-2" d="M108.2987,405.5891h3v-9.6299h-3v-2.04h5.2495v11.6699h2.8501v2.0098h-8.0996v-2.0098ZM110.6087,388.9397c0-1.1396.7197-1.6201,1.6499-1.6201.8398,0,1.6196.4805,1.6196,1.6201s-.7798,1.5898-1.6196,1.5898c-.9302,0-1.6499-.4502-1.6499-1.5898Z"/>
    <path class="cls-2" d="M118.0785,405.5891h1.9795v-9.6299h-1.9497v-2.04h4.02v1.5303c.8398-.8994,2.5195-1.8301,4.7998-1.8301,3.3599,0,4.5596,1.7705,4.5596,5.25v6.7197h1.9502v2.0098h-6.5098v-2.0098h2.3096v-6.54c0-2.0098-.3896-3.2695-2.9399-3.2695-1.6499,0-3.2397.75-3.9897,1.4092v8.4004h2.2798v2.0098h-6.5093v-2.0098Z"/>
    <path class="cls-2" d="M135.0882,405.5891h3v-9.6299h-3v-2.04h5.2495v11.6699h2.8501v2.0098h-8.0996v-2.0098ZM137.3983,388.9397c0-1.1396.7197-1.6201,1.6499-1.6201.8398,0,1.6196.4805,1.6196,1.6201s-.7798,1.5898-1.6196,1.5898c-.9302,0-1.6499-.4502-1.6499-1.5898Z"/>
    <path class="cls-2" d="M154.8875,398.0891h-1.8003l-.3296-2.3096c-.7202-.2705-1.4399-.3896-2.4302-.3896-1.7998,0-2.52,1.0488-2.52,2.0391,0,.9609.5103,1.5303,1.6802,1.8906l2.3398.7793c2.25.6904,3.5698,1.8008,3.5698,3.9004s-1.71,3.9297-5.3096,3.9297c-1.7402,0-3.3901-.3906-4.7998-1.0195l-.3301-4.0205h1.7998l.6299,2.7607c.6899.2988,1.6201.5391,2.6699.5391,1.6499,0,2.8198-.7197,2.8198-2.0098,0-1.0498-.7197-1.6191-1.9199-1.9805l-2.46-.8096c-1.9497-.6299-3.1797-1.7998-3.1797-3.749,0-1.9199,1.3501-4.0205,5.0098-4.0205,1.5898,0,3.3599.3301,4.5601.8398v3.6299Z"/>
    <path class="cls-2" d="M161.9974,403.6985c0,1.2305.54,2.0703,1.8301,2.0703.6001,0,1.5-.0898,2.1299-.3301l.2402,2.0098c-.6602.2705-1.8901.4805-2.9399.4805-2.4897,0-3.5098-1.6504-3.5098-3.9902v-7.9795h-2.6099v-1.7393l2.6099-.3008v-3.4492l2.2495-.4199v3.8691h3.7202v2.04h-3.7202v7.7393Z"/>
    <path class="cls-2" d="M168.057,393.9192h4.1699v2.9395c.5703-1.5293,2.1602-3.2393,3.9302-3.2393.8096,0,1.6797.0898,2.2197.1807l-.27,2.7598-2.25-.5703c-1.3496.1191-2.7896,1.1396-3.5098,2.6396v6.96h3.27v2.0098h-7.5601v-1.7998l2.04-.4199v-9.4199h-2.04v-2.04Z"/>
    <path class="cls-2" d="M183.057,398.5989h-1.9199c-.2402-.5996-.3901-1.2598-.3901-2.0098,0-1.7402,1.6499-2.9697,5.1299-2.9697,4.5298,0,5.0698,1.5898,5.0698,5.1592v5.9404c0,.75.3301,1.0205.8398,1.0205.3604,0,.7197-.0605,1.0498-.1211v2.0098c-.5703.1211-1.2295.1504-1.71.1504-1.3799,0-2.25-.75-2.3398-2.0391-.8096.9893-2.3696,2.1895-4.6797,2.1895-2.79,0-4.1699-1.4707-4.1699-3.8398,0-2.8203,2.4902-3.7793,6.2998-4.1992l2.4004-.3008v-3.3594c-.5703-.3604-1.7402-.541-2.7603-.541-1.29,0-2.0698.1504-2.8198.541v2.3691ZM184.6766,405.9485c1.77,0,3.2104-.8994,3.9604-1.6494v-3.0898l-2.3403.3301c-2.6997.3896-3.9297.9297-3.9297,2.3994,0,1.2305.6899,2.0098,2.3096,2.0098Z"/>
    <path class="cls-2" d="M205.5267,404.5384l.6592,1.9512c-1.2891.75-3.209,1.4395-5.3096,1.4395-4.3496,0-6.1494-3.1797-6.1494-7.1992,0-3.9004,2.0098-7.1104,6.2695-7.1104,2.1299,0,3.8096.5693,4.9795,1.1396l-.5098,4.6504h-1.8301v-3.3594c-.7793-.3008-1.5596-.4209-2.6094-.4209-2.7305,0-3.8096,2.1299-3.8096,4.9502,0,2.9102.96,5.2197,3.8994,5.2197,1.6201,0,3.2695-.54,4.4102-1.2607Z"/>
    <path class="cls-2" d="M208.3158,405.5891h3v-9.6299h-3v-2.04h5.25v11.6699h2.8506v2.0098h-8.1006v-2.0098ZM210.6263,388.9397c0-1.1396.7197-1.6201,1.6494-1.6201.8398,0,1.6201.4805,1.6201,1.6201s-.7803,1.5898-1.6201,1.5898c-.9297,0-1.6494-.4502-1.6494-1.5898Z"/>
    <path class="cls-2" d="M230.5765,400.7298c0,4.2285-1.6504,7.1992-6.2695,7.1992-4.4697,0-6.1797-2.9707-6.1797-7.1699s1.71-7.1396,6.2393-7.1396c4.5596,0,6.21,2.9697,6.21,7.1104ZM228.1761,400.7591c0-3.21-.8994-5.0391-3.8398-5.0391-2.8799,0-3.8096,1.8291-3.8096,5.0098,0,3.2393.96,5.0996,3.8398,5.0996,2.9102,0,3.8096-1.8906,3.8096-5.0703ZM227.5765,386.72l-2.6094,4.6494h-2.1309l2.2803-4.6494h2.46Z"/>
    <path class="cls-2" d="M233.0365,405.5891h1.9795v-9.6299h-1.9502v-2.04h4.0205v1.5303c.8398-.8994,2.5195-1.8301,4.7998-1.8301,3.3594,0,4.5596,1.7705,4.5596,5.25v6.7197h1.9502v2.0098h-6.5098v-2.0098h2.3096v-6.54c0-2.0098-.3896-3.2695-2.9395-3.2695-1.6504,0-3.2402.75-3.9902,1.4092v8.4004h2.2803v2.0098h-6.5098v-2.0098Z"/>
    <path class="cls-2" d="M266.1566,388.7591h-2.8203v-2.0391h5.0703v18.8691h2.0693v2.0098h-1.9502c-1.4395,0-2.0391-.6602-2.0996-1.8906-.7197.9307-2.1299,2.2207-4.3193,2.2207-3.9307,0-5.7305-2.7305-5.7305-7.1992,0-4.3506,1.8301-7.1104,5.8203-7.1104,2.0098,0,3.2393.75,3.96,1.6494v-6.5098ZM262.6468,405.7688c1.6191,0,2.8496-.9297,3.5098-1.7998v-6.54c-.5107-.7197-1.5898-1.6494-3.4805-1.6494-3,0-3.9297,2.0693-3.9297,4.9502,0,2.8496.8701,5.0391,3.9004,5.0391Z"/>
    <path class="cls-2" d="M283.1058,404.4192l.7793,1.8594c-1.2598.8701-3.1191,1.6504-5.1895,1.6504-4.5293,0-6.2393-3-6.2393-7.1992,0-3.9609,1.8896-7.1104,5.999-7.1104,3.8105,0,5.46,2.8193,5.46,5.7598,0,.6299-.0898,1.5303-.1797,2.1006h-8.8799c.0605,2.6992,1.1396,4.4092,3.8701,4.4092,1.5898,0,3.1201-.6006,4.3799-1.4697ZM281.6361,399.679c.0293-.1797.0596-.4492.0596-.5996,0-2.0996-1.2002-3.4805-3.2402-3.4805-2.5498,0-3.4199,1.7402-3.5693,4.0801h6.75Z"/>
    <path class="cls-2" d="M305.3353,405.5589h2.0996v2.04h-3.9893v-2.1895c-.8398,1.1396-2.6396,2.5195-5.0703,2.5195-3.1797,0-4.3496-1.7695-4.3496-5.2793v-6.7207h-2.2197v-2.0098h4.4697v8.5498c0,2.0107.3896,3.2705,2.79,3.2705,1.7402,0,3.3594-1.0205,4.0195-2.1006v-7.71h-2.79v-2.0098h5.04v11.6396Z"/>
    <path class="cls-2" d="M309.3558,405.5891h1.9795v-9.6299h-1.9502v-2.04h4.0205v1.5303c.8398-.8994,2.5195-1.8301,4.7998-1.8301,3.3594,0,4.5596,1.7705,4.5596,5.25v6.7197h1.9502v2.0098h-6.5098v-2.0098h2.3096v-6.54c0-2.0098-.3896-3.2695-2.9395-3.2695-1.6504,0-3.2402.75-3.9902,1.4092v8.4004h2.2803v2.0098h-6.5098v-2.0098Z"/>
    <path class="cls-2" d="M340.5247,388.7298c-.5098-.0898-1.0498-.1797-1.6797-.1797-1.5605,0-2.0098.9902-2.0098,2.6699v2.6992h4.0791v2.0098h-4.0791v9.6602h3.209v2.0098h-7.4697v-1.7998l2.04-.4199v-9.4502h-2.0693v-2.0098h2.0693v-2.8496c0-2.4902,1.0801-4.6504,4.1104-4.6504.7197,0,1.4395.1504,1.7998.2402v2.0703Z"/>
    <path class="cls-2" d="M355.3451,400.7298c0,4.2285-1.6504,7.1992-6.2695,7.1992-4.4697,0-6.1797-2.9707-6.1797-7.1699s1.71-7.1396,6.2393-7.1396c4.5596,0,6.21,2.9697,6.21,7.1104ZM352.9447,400.7591c0-3.21-.8994-5.0391-3.8398-5.0391-2.8799,0-3.8096,1.8291-3.8096,5.0098,0,3.2393.96,5.0996,3.8398,5.0996,2.9102,0,3.8096-1.8906,3.8096-5.0703Z"/>
    <path class="cls-2" d="M357.805,405.5891h1.9795v-9.6299h-1.9502v-2.04h4.0205v1.5303c.8398-.8994,2.5195-1.8301,4.7998-1.8301,3.3594,0,4.5596,1.7705,4.5596,5.25v6.7197h1.9502v2.0098h-6.5098v-2.0098h2.3096v-6.54c0-2.0098-.3896-3.2695-2.9395-3.2695-1.6504,0-3.2402.75-3.9902,1.4092v8.4004h2.2803v2.0098h-6.5098v-2.0098Z"/>
    <path class="cls-2" d="M384.9251,388.7591h-2.8203v-2.0391h5.0703v18.8691h2.0693v2.0098h-1.9502c-1.4395,0-2.0391-.6602-2.0996-1.8906-.7197.9307-2.1299,2.2207-4.3193,2.2207-3.9307,0-5.7305-2.7305-5.7305-7.1992,0-4.3506,1.8301-7.1104,5.8203-7.1104,2.0098,0,3.2393.75,3.96,1.6494v-6.5098ZM381.4154,405.7688c1.6191,0,2.8496-.9297,3.5098-1.7998v-6.54c-.5107-.7197-1.5898-1.6494-3.4805-1.6494-3,0-3.9297,2.0693-3.9297,4.9502,0,2.8496.8701,5.0391,3.9004,5.0391Z"/>
    <path class="cls-2" d="M403.6742,400.7298c0,4.2285-1.6504,7.1992-6.2695,7.1992-4.4697,0-6.1797-2.9707-6.1797-7.1699s1.71-7.1396,6.2393-7.1396c4.5596,0,6.21,2.9697,6.21,7.1104ZM401.2738,400.7591c0-3.21-.8994-5.0391-3.8398-5.0391-2.8799,0-3.8096,1.8291-3.8096,5.0098,0,3.2393.96,5.0996,3.8398,5.0996,2.9102,0,3.8096-1.8906,3.8096-5.0703Z"/>
    <path class="cls-2" d="M63.4486,445.5891h3v-9.6602h-8.7896v9.6602h3.21v2.0098h-7.4697v-1.7998l2.04-.4199v-9.4502h-2.0698v-2.0098h2.0698v-2.8496c0-2.4902,1.0796-4.6504,4.0796-4.6504.75,0,1.4702.1504,1.8301.2402v2.0703c-.5103-.0898-1.0498-.1797-1.6802-.1797-1.5596,0-2.0098.9902-2.0098,2.6699v2.6992h11.0396v11.6699h2.8501v2.0098h-8.1001v-2.0098ZM65.7586,428.9397c0-1.1396.7202-1.6201,1.6499-1.6201.8398,0,1.6201.4805,1.6201,1.6201s-.7803,1.5898-1.6201,1.5898c-.9297,0-1.6499-.4502-1.6499-1.5898Z"/>
    <path class="cls-2" d="M83.0687,428.7591h-2.8198v-2.0391h5.0698v18.8691h2.0698v2.0098h-1.9497c-1.4399,0-2.04-.6602-2.1001-1.8906-.7197.9307-2.1299,2.2207-4.3198,2.2207-3.9297,0-5.7295-2.7305-5.7295-7.1992,0-4.3506,1.8296-7.1104,5.8198-7.1104,2.0098,0,3.2397.75,3.9595,1.6494v-6.5098ZM79.5589,445.7688c1.6201,0,2.8501-.9297,3.5098-1.7998v-6.54c-.5098-.7197-1.5898-1.6494-3.4795-1.6494-3,0-3.9302,2.0693-3.9302,4.9502,0,2.8496.8701,5.0391,3.8999,5.0391Z"/>
    <path class="cls-2" d="M102.118,445.5589h2.1001v2.04h-3.9897v-2.1895c-.8403,1.1396-2.6401,2.5195-5.0698,2.5195-3.1802,0-4.3501-1.7695-4.3501-5.2793v-6.7207h-2.2197v-2.0098h4.4697v8.5498c0,2.0107.3901,3.2705,2.79,3.2705,1.7397,0,3.3599-1.0205,4.0195-2.1006v-7.71h-2.7896v-2.0098h5.0396v11.6396Z"/>
    <path class="cls-2" d="M116.9676,444.5384l.6602,1.9512c-1.29.75-3.21,1.4395-5.3101,1.4395-4.3496,0-6.1494-3.1797-6.1494-7.1992,0-3.9004,2.0098-7.1104,6.2695-7.1104,2.1299,0,3.8101.5693,4.98,1.1396l-.5103,4.6504h-1.8296v-3.3594c-.7803-.3008-1.5601-.4209-2.6099-.4209-2.73,0-3.8101,2.1299-3.8101,4.9502,0,2.9102.96,5.2197,3.8999,5.2197,1.6201,0,3.27-.54,4.4097-1.2607Z"/>
    <path class="cls-2" d="M119.7581,445.5891h3v-9.6299h-3v-2.04h5.2495v11.6699h2.8501v2.0098h-8.0996v-2.0098ZM122.0682,428.9397c0-1.1396.7197-1.6201,1.6499-1.6201.8398,0,1.6196.4805,1.6196,1.6201s-.7798,1.5898-1.6196,1.5898c-.9302,0-1.6499-.4502-1.6499-1.5898Z"/>
    <path class="cls-2" d="M132.5677,438.5989h-1.9199c-.2402-.5996-.3901-1.2598-.3901-2.0098,0-1.7402,1.6499-2.9697,5.1299-2.9697,4.5298,0,5.0698,1.5898,5.0698,5.1592v5.9404c0,.75.3301,1.0205.8398,1.0205.3599,0,.7197-.0605,1.0498-.1211v2.0098c-.5698.1211-1.23.1504-1.71.1504-1.3799,0-2.2495-.75-2.3398-2.0391-.8101.9893-2.3696,2.1895-4.6797,2.1895-2.79,0-4.1699-1.4707-4.1699-3.8398,0-2.8203,2.4902-3.7793,6.2998-4.1992l2.3999-.3008v-3.3594c-.5698-.3604-1.7397-.541-2.7598-.541-1.29,0-2.0698.1504-2.8198.541v2.3691ZM134.1873,445.9485c1.77,0,3.21-.8994,3.96-1.6494v-3.0898l-2.3398.3301c-2.6997.3896-3.9297.9297-3.9297,2.3994,0,1.2305.6899,2.0098,2.3096,2.0098Z"/>
    <path class="cls-2" d="M144.1478,433.9192h4.1699v2.9395c.5703-1.5293,2.1602-3.2393,3.9302-3.2393.8096,0,1.6797.0898,2.2197.1807l-.27,2.7598-2.25-.5703c-1.3496.1191-2.7896,1.1396-3.5098,2.6396v6.96h3.27v2.0098h-7.5601v-1.7998l2.04-.4199v-9.4199h-2.04v-2.04Z"/>
    <path class="cls-2" d="M155.9373,445.5891h3v-9.6299h-3v-2.04h5.2495v11.6699h2.8501v2.0098h-8.0996v-2.0098ZM158.2474,428.9397c0-1.1396.7197-1.6201,1.6499-1.6201.8398,0,1.6196.4805,1.6196,1.6201s-.7798,1.5898-1.6196,1.5898c-.9302,0-1.6499-.4502-1.6499-1.5898Z"/>
    <path class="cls-2" d="M178.1971,440.7298c0,4.2285-1.6499,7.1992-6.27,7.1992-4.4697,0-6.1797-2.9707-6.1797-7.1699s1.71-7.1396,6.2397-7.1396c4.5601,0,6.21,2.9697,6.21,7.1104ZM175.7972,440.7591c0-3.21-.8999-5.0391-3.8398-5.0391-2.8799,0-3.8101,1.8291-3.8101,5.0098,0,3.2393.96,5.0996,3.8398,5.0996,2.9102,0,3.8101-1.8906,3.8101-5.0703Z"/>
    <path class="cls-2" d="M197.4867,444.4192l.7803,1.8594c-1.2598.8701-3.1201,1.6504-5.1895,1.6504-4.5303,0-6.2402-3-6.2402-7.1992,0-3.9609,1.8896-7.1104,6-7.1104,3.8096,0,5.46,2.8193,5.46,5.7598,0,.6299-.0898,1.5303-.1807,2.1006h-8.8789c.0596,2.6992,1.1396,4.4092,3.8691,4.4092,1.5898,0,3.1201-.6006,4.3799-1.4697ZM196.0169,439.679c.0303-.1797.0596-.4492.0596-.5996,0-2.0996-1.1992-3.4805-3.2393-3.4805-2.5498,0-3.4199,1.7402-3.5703,4.0801h6.75Z"/>
    <path class="cls-2" d="M210.8665,438.0891h-1.7998l-.3301-2.3096c-.7197-.2705-1.4404-.3896-2.4297-.3896-1.8008,0-2.5205,1.0488-2.5205,2.0391,0,.9609.5098,1.5303,1.6797,1.8906l2.3408.7793c2.249.6904,3.5693,1.8008,3.5693,3.9004s-1.71,3.9297-5.3096,3.9297c-1.7402,0-3.3896-.3906-4.7998-1.0195l-.3301-4.0205h1.7998l.6299,2.7607c.6904.2988,1.6201.5391,2.6699.5391,1.6504,0,2.8203-.7197,2.8203-2.0098,0-1.0498-.7207-1.6191-1.9199-1.9805l-2.46-.8096c-1.9502-.6299-3.1797-1.7998-3.1797-3.749,0-1.9199,1.3496-4.0205,5.0098-4.0205,1.5898,0,3.3594.3301,4.5596.8398v3.6299Z"/>
    <path class="cls-2" d="M220.8265,428.7591h-2.5205v-2.0391h4.7402v17.2188c0,1.29.3301,1.8301,1.3799,1.8301.4805,0,.9297-.0605,1.3496-.21l.1807,2.0107c-.6006.2393-1.3203.3594-2.1006.3594-2.3398,0-3.0293-1.4102-3.0293-3.75v-15.4199Z"/>
    <path class="cls-2" d="M230.5462,438.5989h-1.9199c-.2393-.5996-.3896-1.2598-.3896-2.0098,0-1.7402,1.6504-2.9697,5.1299-2.9697,4.5293,0,5.0693,1.5898,5.0693,5.1592v5.9404c0,.75.3301,1.0205.8398,1.0205.3604,0,.7207-.0605,1.0508-.1211v2.0098c-.5703.1211-1.2305.1504-1.71.1504-1.3799,0-2.25-.75-2.3398-2.0391-.8105.9893-2.3701,2.1895-4.6807,2.1895-2.7891,0-4.1689-1.4707-4.1689-3.8398,0-2.8203,2.4893-3.7793,6.2998-4.1992l2.3994-.3008v-3.3594c-.5703-.3604-1.7402-.541-2.7598-.541-1.29,0-2.0703.1504-2.8203.541v2.3691ZM232.1664,445.9485c1.7705,0,3.21-.8994,3.96-1.6494v-3.0898l-2.3398.3301c-2.7002.3896-3.9297.9297-3.9297,2.3994,0,1.2305.6895,2.0098,2.3096,2.0098Z"/>
    <path class="cls-2" d="M258.9554,443.8792l.8105,2.7598c-1.5303.8096-3.4502,1.29-5.4297,1.29-4.6504,0-6.4502-3.3301-6.4502-7.1992,0-3.7803,2.1602-7.1104,6.6299-7.1104,2.1895,0,3.9297.6602,5.1592,1.2002l-.6299,4.9795h-2.7295v-3.0596c-.54-.1797-1.0195-.2402-1.7998-.2402-2.04,0-3,1.6797-3,3.9297,0,2.3398.75,4.3799,3.1797,4.3799,1.4404,0,3.0898-.3896,4.2598-.9297Z"/>
    <path class="cls-2" d="M274.7054,440.7298c0,4.2598-1.7402,7.1992-6.5996,7.1992-4.6494,0-6.4795-2.9707-6.4795-7.1396,0-4.2598,1.7695-7.1699,6.5996-7.1699,4.6797,0,6.4795,2.9404,6.4795,7.1104ZM271.1956,440.7893c0-2.8193-.75-4.0801-3.0596-4.0801-2.2197,0-3,1.2607-3,4.0205,0,2.8496.8096,4.1094,3.0596,4.1094,2.2803,0,3-1.3203,3-4.0498Z"/>
    <path class="cls-2" d="M276.7464,444.719h1.7695v-7.8896h-1.71v-2.9102h4.6797v1.6201c.6904-.8398,1.8906-1.9199,4.6201-1.9199,3.1201,0,4.6201,1.8604,4.6201,5.3994v5.7002h1.7393v2.8799h-7.0488v-2.8799h1.9795v-5.3398c0-1.6494-.5703-2.6104-2.5801-2.6104-1.1699,0-2.3994.5703-2.9697,1.0205v6.9297h1.9199v2.8799h-7.0195v-2.8799Z"/>
    <path class="cls-2" d="M304.1351,444.719h2.8799v-7.8896h-7.7695v7.8896h2.8496v2.8799h-8.0693v-2.6094l1.9199-.541v-7.6191h-1.9502v-2.9102h1.9502v-2.9395c0-2.4004,1.3203-4.5605,4.4395-4.5605.8701,0,1.8301.1807,2.25.3301v2.8496c-.54-.0293-1.2295-.1191-1.9502-.1191-1.0498,0-1.4395.6299-1.4395,1.7695v2.6699h11.0996v10.7998h2.6699v2.8799h-8.8799v-2.8799ZM306.4447,429.179c0-1.4395.9004-2.0693,2.1006-2.0693,1.0498,0,2.0693.6299,2.0693,2.0693,0,1.4707-1.0195,2.0107-2.0693,2.0107-1.2002,0-2.1006-.54-2.1006-2.0107Z"/>
    <path class="cls-2" d="M318.3255,438.7493h-2.9404c-.2998-.5703-.4502-1.2002-.4502-1.8594,0-1.8906,1.7402-3.2705,5.5205-3.2705,4.0498,0,5.4893,1.2002,5.4893,5.1006v5.3086c0,.5703.2998.8105.7803.8105.2998,0,.5703-.0303.8096-.0898v2.8496c-.5693.1201-1.29.1797-1.9492.1797-1.7402,0-2.6406-.8398-2.8203-2.0996-.75,1.1094-2.25,2.25-4.5,2.25-2.5498,0-4.1094-1.5-4.1094-3.9297,0-3,2.6094-3.96,6.6592-4.2598l1.71-.1797v-2.7598c-.4502-.1211-1.4697-.1807-2.0693-.1807-.96,0-1.3506.0303-2.1299.1807v1.9492ZM319.3753,445.1389c1.2598,0,2.4297-.6006,3.1494-1.2598v-2.1006l-1.71.2109c-2.3994.2695-3.0898.75-3.0898,1.7402,0,.9297.5703,1.4092,1.6504,1.4092Z"/>
    <path class="cls-2" d="M329.1859,444.719h1.7695v-7.8896h-1.71v-2.9102h4.6797v1.6201c.6904-.8398,1.8906-1.9199,4.6201-1.9199,3.1201,0,4.6201,1.8604,4.6201,5.3994v5.7002h1.7393v2.8799h-7.0488v-2.8799h1.9795v-5.3398c0-1.6494-.5703-2.6104-2.5801-2.6104-1.1699,0-2.3994.5703-2.9697,1.0205v6.9297h1.9199v2.8799h-7.0195v-2.8799Z"/>
    <path class="cls-2" d="M357.6849,436.1995l-6.8701,8.8799h4.3203l.2998-2.4609h2.4893v4.9805h-11.5195v-2.2793l6.9004-8.8809h-3.7803l-.2695,2.3105h-2.5801v-4.8301h11.0098v2.2803Z"/>
    <path class="cls-2" d="M363.9847,438.7493h-2.9404c-.2998-.5703-.4502-1.2002-.4502-1.8594,0-1.8906,1.7402-3.2705,5.5205-3.2705,4.0498,0,5.4893,1.2002,5.4893,5.1006v5.3086c0,.5703.2998.8105.7803.8105.2998,0,.5693-.0303.8096-.0898v2.8496c-.5693.1201-1.29.1797-1.9492.1797-1.7402,0-2.6406-.8398-2.8203-2.0996-.75,1.1094-2.25,2.25-4.5,2.25-2.5498,0-4.1094-1.5-4.1094-3.9297,0-3,2.6094-3.96,6.6592-4.2598l1.71-.1797v-2.7598c-.4502-.1211-1.4697-.1807-2.0693-.1807-.96,0-1.3506.0303-2.1299.1807v1.9492ZM365.0345,445.1389c1.2598,0,2.4297-.6006,3.1494-1.2598v-2.1006l-1.71.2109c-2.3994.2695-3.0898.75-3.0898,1.7402,0,.9297.5703,1.4092,1.6504,1.4092Z"/>
    <path class="cls-2" d="M381.3841,439.4993l-5.3398,6.4199-1.5303-1.2002,3.96-5.2197-3.9297-5.2197,1.5-1.2002,5.3398,6.4199ZM387.0238,439.4993l-5.3398,6.4199-1.5-1.2002,3.96-5.2197-3.96-5.2197,1.5-1.2002,5.3398,6.4199Z"/>
  </g>
</svg>