<?xml version="1.0" encoding="UTF-8" standalone="no"?>
<!-- Created with Inkscape (http://www.inkscape.org/) -->

<svg
   xmlns:dc="http://purl.org/dc/elements/1.1/"
   xmlns:cc="http://creativecommons.org/ns#"
   xmlns:rdf="http://www.w3.org/1999/02/22-rdf-syntax-ns#"
   xmlns:svg="http://www.w3.org/2000/svg"
   xmlns="http://www.w3.org/2000/svg"
   xmlns:sodipodi="http://sodipodi.sourceforge.net/DTD/sodipodi-0.dtd"
   xmlns:inkscape="http://www.inkscape.org/namespaces/inkscape"
   width="29.607378mm"
   height="41.670677mm"
   viewBox="0 0 29.607378 41.670677"
   version="1.1"
   id="svg40897"
   inkscape:version="0.92.3 (2405546, 2018-03-11)"
   sodipodi:docname="flor-bottom.svg">
  <defs
     id="defs40891" />
  <sodipodi:namedview
     id="base"
     pagecolor="#ffffff"
     bordercolor="#666666"
     borderopacity="1.0"
     inkscape:pageopacity="0.0"
     inkscape:pageshadow="2"
     inkscape:zoom="0.80390625"
     inkscape:cx="-13.631168"
     inkscape:cy="-36.704157"
     inkscape:document-units="mm"
     inkscape:current-layer="layer1"
     showgrid="false"
     fit-margin-top="2"
     fit-margin-left="2"
     fit-margin-right="2"
     fit-margin-bottom="2"
     inkscape:window-width="1366"
     inkscape:window-height="713"
     inkscape:window-x="0"
     inkscape:window-y="27"
     inkscape:window-maximized="1" />
  <metadata
     id="metadata40894">
    <rdf:RDF>
      <cc:Work
         rdf:about="">
        <dc:format>image/svg+xml</dc:format>
        <dc:type
           rdf:resource="http://purl.org/dc/dcmitype/StillImage" />
        <dc:title></dc:title>
      </cc:Work>
    </rdf:RDF>
  </metadata>
  <g
     inkscape:label="Layer 1"
     inkscape:groupmode="layer"
     id="layer1"
     transform="translate(-41.805316,-57.956692)">
    <g
       id="g2352"
       transform="matrix(0.35277777,0,0,-0.35277777,52.99413,71.41941)">
      <path
         d="M 0,0 -25.109,-67.964"
         style="fill:none;stroke:#a99c6b;stroke-width:2;stroke-linecap:butt;stroke-linejoin:miter;stroke-miterlimit:10;stroke-dasharray:none;stroke-opacity:1"
         id="path2354"
         inkscape:connector-curvature="0" />
    </g>
    <g
       id="g2356"
       transform="matrix(0.35277777,0,0,-0.35277777,58.388982,77.034212)">
      <path
         d="M 0,0 -29.15,-21.134"
         style="fill:none;stroke:#a99c6b;stroke-width:2;stroke-linecap:butt;stroke-linejoin:miter;stroke-miterlimit:10;stroke-dasharray:none;stroke-opacity:1"
         id="path2358"
         inkscape:connector-curvature="0" />
    </g>
    <g
       id="g2360"
       transform="matrix(0.35277777,0,0,-0.35277777,65.777525,74.922388)">
      <path
         d="m 0,0 c -6.024,-4.494 -13.684,-6.476 -20.944,-5.986 0.117,5.993 3.262,12.071 9.286,16.565 6.025,4.494 13.684,6.476 20.944,5.985 C 9.169,10.572 6.024,4.493 0,0 Z"
         style="fill:none;stroke:#a99c6b;stroke-width:2;stroke-linecap:butt;stroke-linejoin:miter;stroke-miterlimit:10;stroke-dasharray:none;stroke-opacity:1"
         id="path2362"
         inkscape:connector-curvature="0" />
    </g>
    <g
       id="g2364"
       transform="matrix(0.35277777,0,0,-0.35277777,58.35247,66.612143)">
      <path
         d="m 0,0 c -2.688,-6.233 -8.368,-11.044 -15.189,-13.627 -3.53,5.051 -4.39,11.421 -1.703,17.655 2.688,6.234 8.368,11.044 15.189,13.627 C 1.827,12.604 2.687,6.234 0,0 Z"
         style="fill:none;stroke:#a99c6b;stroke-width:2;stroke-linecap:butt;stroke-linejoin:miter;stroke-miterlimit:10;stroke-dasharray:none;stroke-opacity:1"
         id="path2366"
         inkscape:connector-curvature="0" />
    </g>
    <g
       id="g2368"
       transform="matrix(0.35277777,0,0,-0.35277777,52.451028,89.455871)">
      <path
         d="M 0,0 -23.483,-16.305"
         style="fill:none;stroke:#a99c6b;stroke-width:2;stroke-linecap:butt;stroke-linejoin:miter;stroke-miterlimit:10;stroke-dasharray:none;stroke-opacity:1"
         id="path2370"
         inkscape:connector-curvature="0" />
    </g>
    <g
       id="g2372"
       transform="matrix(0.35277777,0,0,-0.35277777,53.73535,95.551262)">
      <path
         d="M 0,0 -27.21,0.441"
         style="fill:none;stroke:#a99c6b;stroke-width:2;stroke-linecap:butt;stroke-linejoin:miter;stroke-miterlimit:10;stroke-dasharray:none;stroke-opacity:1"
         id="path2374"
         inkscape:connector-curvature="0" />
    </g>
    <g
       id="g2376"
       transform="matrix(0.35277777,0,0,-0.35277777,59.644377,97.246607)">
      <path
         d="m 0,0 c -5.992,-0.499 -12.029,1.398 -16.75,4.806 2.617,4.018 7.326,6.812 13.317,7.311 5.992,0.5 12.03,-1.398 16.75,-4.805 C 10.701,3.294 5.992,0.5 0,0 Z"
         style="fill:none;stroke:#a99c6b;stroke-width:2;stroke-linecap:butt;stroke-linejoin:miter;stroke-miterlimit:10;stroke-dasharray:none;stroke-opacity:1"
         id="path2378"
         inkscape:connector-curvature="0" />
    </g>
    <g
       id="g2380"
       transform="matrix(0.35277777,0,0,-0.35277777,58.123552,88.461593)">
      <path
         d="m 0,0 c -4.464,-3.094 -10.356,-3.954 -16.08,-2.818 -0.257,4.922 1.856,9.61 6.32,12.704 4.464,3.093 10.356,3.953 16.08,2.818 C 6.577,7.781 4.464,3.093 0,0 Z"
         style="fill:none;stroke:#a99c6b;stroke-width:2;stroke-linecap:butt;stroke-linejoin:miter;stroke-miterlimit:10;stroke-dasharray:none;stroke-opacity:1"
         id="path2382"
         inkscape:connector-curvature="0" />
    </g>
  </g>
</svg>
