<?xml version="1.0" encoding="UTF-8" standalone="no"?>
<!-- Created with Inkscape (http://www.inkscape.org/) -->

<svg
   xmlns:dc="http://purl.org/dc/elements/1.1/"
   xmlns:cc="http://creativecommons.org/ns#"
   xmlns:rdf="http://www.w3.org/1999/02/22-rdf-syntax-ns#"
   xmlns:svg="http://www.w3.org/2000/svg"
   xmlns="http://www.w3.org/2000/svg"
   xmlns:sodipodi="http://sodipodi.sourceforge.net/DTD/sodipodi-0.dtd"
   xmlns:inkscape="http://www.inkscape.org/namespaces/inkscape"
   width="29.526245mm"
   height="41.579037mm"
   viewBox="0 0 29.526245 41.579037"
   version="1.1"
   id="svg36286"
   inkscape:version="0.92.3 (2405546, 2018-03-11)"
   sodipodi:docname="flor-top.svg">
  <defs
     id="defs36280">
    <clipPath
       clipPathUnits="userSpaceOnUse"
       id="clipPath2816">
      <path
         d="M 0,6200 H 1440 V 0 H 0 Z"
         id="path2814"
         inkscape:connector-curvature="0" />
    </clipPath>
  </defs>
  <sodipodi:namedview
     id="base"
     pagecolor="#ffffff"
     bordercolor="#666666"
     borderopacity="1.0"
     inkscape:pageopacity="0.0"
     inkscape:pageshadow="2"
     inkscape:zoom="0.80390625"
     inkscape:cx="-279.98469"
     inkscape:cy="-67.975493"
     inkscape:document-units="mm"
     inkscape:current-layer="layer1"
     showgrid="false"
     fit-margin-top="2"
     fit-margin-left="2"
     fit-margin-right="2"
     fit-margin-bottom="2"
     inkscape:window-width="1366"
     inkscape:window-height="713"
     inkscape:window-x="0"
     inkscape:window-y="27"
     inkscape:window-maximized="1" />
  <metadata
     id="metadata36283">
    <rdf:RDF>
      <cc:Work
         rdf:about="">
        <dc:format>image/svg+xml</dc:format>
        <dc:type
           rdf:resource="http://purl.org/dc/dcmitype/StillImage" />
        <dc:title></dc:title>
      </cc:Work>
    </rdf:RDF>
  </metadata>
  <g
     inkscape:label="Layer 1"
     inkscape:groupmode="layer"
     id="layer1"
     transform="translate(-112.27802,-89.269113)">
    <g
       transform="matrix(0.35277777,0,0,-0.35277777,-93.321134,928.3184)"
       id="g2810">
      <g
         id="g2812"
         clip-path="url(#clipPath2816)">
        <g
           id="g2818"
           transform="translate(634.8911,2298.5654)">
          <path
             d="M 0,0 25.109,67.964"
             style="fill:none;stroke:#133b3c;stroke-width:1.76499999;stroke-linecap:butt;stroke-linejoin:miter;stroke-miterlimit:10;stroke-dasharray:none;stroke-opacity:1"
             id="path2820"
             inkscape:connector-curvature="0" />
        </g>
        <g
           id="g2822"
           transform="translate(619.5986,2314.4814)">
          <path
             d="M 0,0 29.15,21.134"
             style="fill:none;stroke:#133b3c;stroke-width:1.76499999;stroke-linecap:butt;stroke-linejoin:miter;stroke-miterlimit:10;stroke-dasharray:none;stroke-opacity:1"
             id="path2824"
             inkscape:connector-curvature="0" />
        </g>
        <g
           id="g2826"
           transform="translate(598.6548,2308.4951)">
          <path
             d="M 0,0 C 6.024,4.494 13.684,6.476 20.944,5.986 20.827,-0.007 17.682,-6.085 11.658,-10.579 5.633,-15.073 -2.026,-17.055 -9.286,-16.564 -9.169,-10.571 -6.024,-4.493 0,0 Z"
             style="fill:none;stroke:#133b3c;stroke-width:1.76499999;stroke-linecap:butt;stroke-linejoin:miter;stroke-miterlimit:10;stroke-dasharray:none;stroke-opacity:1"
             id="path2828"
             inkscape:connector-curvature="0" />
        </g>
        <g
           id="g2830"
           transform="translate(619.7021,2284.9385)">
          <path
             d="M 0,0 C 2.688,6.233 8.368,11.044 15.189,13.627 18.719,8.576 19.579,2.206 16.892,-4.028 14.204,-10.262 8.524,-15.072 1.703,-17.655 -1.827,-12.604 -2.688,-6.234 0,0 Z"
             style="fill:none;stroke:#133b3c;stroke-width:1.76499999;stroke-linecap:butt;stroke-linejoin:miter;stroke-miterlimit:10;stroke-dasharray:none;stroke-opacity:1"
             id="path2832"
             inkscape:connector-curvature="0" />
        </g>
        <g
           id="g2834"
           transform="translate(636.4307,2349.6924)">
          <path
             d="M 0,0 23.483,16.305"
             style="fill:none;stroke:#133b3c;stroke-width:1.76499999;stroke-linecap:butt;stroke-linejoin:miter;stroke-miterlimit:10;stroke-dasharray:none;stroke-opacity:1"
             id="path2836"
             inkscape:connector-curvature="0" />
        </g>
        <g
           id="g2838"
           transform="translate(632.79,2366.9707)">
          <path
             d="M 0,0 27.21,-0.441"
             style="fill:none;stroke:#133b3c;stroke-width:1.76499999;stroke-linecap:butt;stroke-linejoin:miter;stroke-miterlimit:10;stroke-dasharray:none;stroke-opacity:1"
             id="path2840"
             inkscape:connector-curvature="0" />
        </g>
        <g
           id="g2842"
           transform="translate(616.0396,2371.7764)">
          <path
             d="m 0,0 c 5.992,0.499 12.03,-1.398 16.75,-4.806 -2.617,-4.018 -7.325,-6.812 -13.317,-7.311 -5.992,-0.499 -12.03,1.398 -16.75,4.805 C -10.7,-3.293 -5.992,-0.499 0,0 Z"
             style="fill:none;stroke:#133b3c;stroke-width:1.76499999;stroke-linecap:butt;stroke-linejoin:miter;stroke-miterlimit:10;stroke-dasharray:none;stroke-opacity:1"
             id="path2844"
             inkscape:connector-curvature="0" />
        </g>
        <g
           id="g2846"
           transform="translate(620.3511,2346.874)">
          <path
             d="M 0,0 C 4.464,3.094 10.356,3.954 16.08,2.818 16.337,-2.104 14.224,-6.792 9.76,-9.886 5.296,-12.979 -0.596,-13.839 -6.32,-12.704 -6.577,-7.781 -4.464,-3.093 0,0 Z"
             style="fill:none;stroke:#133b3c;stroke-width:1.76499999;stroke-linecap:butt;stroke-linejoin:miter;stroke-miterlimit:10;stroke-dasharray:none;stroke-opacity:1"
             id="path2848"
             inkscape:connector-curvature="0" />
        </g>
      </g>
    </g>
  </g>
</svg>
