<?xml version="1.0" encoding="UTF-8" standalone="no"?>
<!-- Created with Inkscape (http://www.inkscape.org/) -->

<svg
   xmlns:dc="http://purl.org/dc/elements/1.1/"
   xmlns:cc="http://creativecommons.org/ns#"
   xmlns:rdf="http://www.w3.org/1999/02/22-rdf-syntax-ns#"
   xmlns:svg="http://www.w3.org/2000/svg"
   xmlns="http://www.w3.org/2000/svg"
   xmlns:sodipodi="http://sodipodi.sourceforge.net/DTD/sodipodi-0.dtd"
   xmlns:inkscape="http://www.inkscape.org/namespaces/inkscape"
   width="50.09634mm"
   height="50.892818mm"
   viewBox="0 0 50.09634 50.892818"
   version="1.1"
   id="svg5322"
   inkscape:version="0.92.3 (2405546, 2018-03-11)"
   sodipodi:docname="logo-v.svg">
  <defs
     id="defs5316" />
  <sodipodi:namedview
     id="base"
     pagecolor="#ffffff"
     bordercolor="#666666"
     borderopacity="1.0"
     inkscape:pageopacity="0.0"
     inkscape:pageshadow="2"
     inkscape:zoom="0.80390625"
     inkscape:cx="25.088132"
     inkscape:cy="-18.032559"
     inkscape:document-units="mm"
     inkscape:current-layer="layer1"
     showgrid="false"
     fit-margin-top="1"
     fit-margin-left="1"
     fit-margin-right="1"
     fit-margin-bottom="1"
     inkscape:window-width="1366"
     inkscape:window-height="713"
     inkscape:window-x="0"
     inkscape:window-y="27"
     inkscape:window-maximized="1" />
  <metadata
     id="metadata5319">
    <rdf:RDF>
      <cc:Work
         rdf:about="">
        <dc:format>image/svg+xml</dc:format>
        <dc:type
           rdf:resource="http://purl.org/dc/dcmitype/StillImage" />
        <dc:title></dc:title>
      </cc:Work>
    </rdf:RDF>
  </metadata>
  <g
     inkscape:label="Layer 1"
     inkscape:groupmode="layer"
     id="layer1"
     transform="translate(-35.5103,-93.1694)">
    <g
       id="g88"
       transform="matrix(0.35277777,0,0,-0.35277777,60.500072,124.91363)">
      <path
         d="m 0,0 v 0 c -17.751,0 -32.141,14.39 -32.141,32.141 v 22.291 c 0,17.751 14.39,32.141 32.141,32.141 17.751,0 32.141,-14.39 32.141,-32.141 V 32.141 C 32.141,14.39 17.751,0 0,0 Z"
         style="fill:none;stroke:#a99c6b;stroke-width:1.15199995;stroke-linecap:butt;stroke-linejoin:miter;stroke-miterlimit:10;stroke-dasharray:none;stroke-opacity:1"
         id="path90"
         inkscape:connector-curvature="0" />
    </g>
    <g
       id="g92"
       transform="matrix(0.35277777,0,0,-0.35277777,56.600397,95.133015)">
      <path
         d="m 0,0 c 0,-6.105 4.949,-11.054 11.054,-11.054 6.105,0 11.054,4.949 11.054,11.054"
         style="fill:none;stroke:#a99c6b;stroke-width:1.15199995;stroke-linecap:butt;stroke-linejoin:miter;stroke-miterlimit:10;stroke-dasharray:none;stroke-opacity:1"
         id="path94"
         inkscape:connector-curvature="0" />
    </g>
    <g
       id="g96"
       transform="matrix(0.35277777,0,0,-0.35277777,64.134142,96.910839)">
      <path
         d="M 0,0 14.241,-4.417"
         style="fill:none;stroke:#a99c6b;stroke-width:1.15199995;stroke-linecap:butt;stroke-linejoin:miter;stroke-miterlimit:10;stroke-dasharray:none;stroke-opacity:1"
         id="path98"
         inkscape:connector-curvature="0" />
    </g>
    <g
       id="g100"
       transform="matrix(0.35277777,0,0,-0.35277777,56.866004,96.910839)">
      <path
         d="M 0,0 -14.241,-4.417"
         style="fill:none;stroke:#a99c6b;stroke-width:1.15199995;stroke-linecap:butt;stroke-linejoin:miter;stroke-miterlimit:10;stroke-dasharray:none;stroke-opacity:1"
         id="path102"
         inkscape:connector-curvature="0" />
    </g>
    <g
       id="g104"
       transform="matrix(0.35277777,0,0,-0.35277777,58.6349,98.473715)">
      <path
         d="M 0,0 -26.877,-22.628"
         style="fill:none;stroke:#a99c6b;stroke-width:1.15199995;stroke-linecap:butt;stroke-linejoin:bevel;stroke-miterlimit:10;stroke-dasharray:none;stroke-opacity:1"
         id="path106"
         inkscape:connector-curvature="0" />
    </g>
    <g
       id="g108"
       transform="matrix(0.35277777,0,0,-0.35277777,62.365067,98.473715)">
      <path
         d="M 0,0 26.877,-22.628"
         style="fill:none;stroke:#a99c6b;stroke-width:1.15199995;stroke-linecap:butt;stroke-linejoin:bevel;stroke-miterlimit:10;stroke-dasharray:none;stroke-opacity:1"
         id="path110"
         inkscape:connector-curvature="0" />
    </g>
    <g
       id="g112"
       transform="matrix(0.35277777,0,0,-0.35277777,54.153353,142.20507)">
      <path
         d="M 0,0 V 5.123 H -1.182 V 6.239 H 0 V 8.8 H 1.264 V 6.239 H 3.957 V 5.123 H 1.264 V 0.164 c 0,-1.035 0.575,-1.412 1.428,-1.412 0.427,0 0.788,0.082 1.232,0.295 V -2.036 C 3.48,-2.266 3.004,-2.397 2.397,-2.397 1.034,-2.397 0,-1.724 0,0"
         style="fill:#a99c6b;fill-opacity:1;fill-rule:nonzero;stroke:none"
         id="path114"
         inkscape:connector-curvature="0" />
    </g>
    <g
       id="g116"
       transform="matrix(0.35277777,0,0,-0.35277777,56.453466,140.00416)">
      <path
         d="M 0,0 H 1.264 V -2.216 C 1.888,-0.805 3.12,0.213 4.729,0.148 V -1.215 H 4.63 c -1.856,0 -3.366,-1.33 -3.366,-3.891 V -8.488 H 0 Z"
         style="fill:#a99c6b;fill-opacity:1;fill-rule:nonzero;stroke:none"
         id="path118"
         inkscape:connector-curvature="0" />
    </g>
    <g
       id="g120"
       transform="matrix(0.35277777,0,0,-0.35277777,58.869357,141.86348)">
      <path
         d="M 0,0 V 5.271 H 1.264 V 0.312 c 0,-1.576 0.854,-2.561 2.348,-2.561 1.445,0 2.545,1.067 2.545,2.66 v 4.86 H 7.405 V -3.218 H 6.157 V -1.74 C 5.582,-2.66 4.712,-3.398 3.251,-3.398 1.198,-3.398 0,-2.019 0,0"
         style="fill:#a99c6b;fill-opacity:1;fill-rule:nonzero;stroke:none"
         id="path122"
         inkscape:connector-curvature="0" />
    </g>
    <g
       id="g124"
       transform="matrix(0.35277777,0,0,-0.35277777,62.351486,142.61641)">
      <path
         d="m 0,0 0.64,0.903 c 0.92,-0.69 1.938,-1.084 2.939,-1.084 1.018,0 1.757,0.526 1.757,1.347 V 1.199 C 5.336,2.052 4.334,2.381 3.218,2.693 1.888,3.07 0.411,3.53 0.411,5.09 v 0.033 c 0,1.461 1.214,2.43 2.889,2.43 1.034,0 2.184,-0.362 3.054,-0.936 L 5.779,5.665 C 4.991,6.173 4.088,6.485 3.267,6.485 2.266,6.485 1.625,5.96 1.625,5.254 V 5.221 C 1.625,4.417 2.676,4.105 3.809,3.76 5.123,3.366 6.535,2.857 6.535,1.33 V 1.297 c 0,-1.609 -1.33,-2.545 -3.021,-2.545 C 2.298,-1.248 0.952,-0.771 0,0"
         style="fill:#a99c6b;fill-opacity:1;fill-rule:nonzero;stroke:none"
         id="path126"
         inkscape:connector-curvature="0" />
    </g>
    <g
       id="g128"
       transform="matrix(0.35277777,0,0,-0.35277777,65.700087,142.20507)">
      <path
         d="M 0,0 V 5.123 H -1.182 V 6.239 H 0 V 8.8 H 1.264 V 6.239 H 3.957 V 5.123 H 1.264 V 0.164 c 0,-1.035 0.575,-1.412 1.428,-1.412 0.427,0 0.788,0.082 1.232,0.295 V -2.036 C 3.48,-2.266 3.004,-2.397 2.397,-2.397 1.034,-2.397 0,-1.724 0,0"
         style="fill:#a99c6b;fill-opacity:1;fill-rule:nonzero;stroke:none"
         id="path130"
         inkscape:connector-curvature="0" />
    </g>
    <g
       id="g132"
       transform="matrix(0.35277777,0,0,-0.35277777,41.744817,134.89216)">
      <path
         d="m 0,0 -1.382,0.299 v 4.977 h -3.871 c -0.2,0 -0.365,0.061 -0.496,0.184 -0.13,0.123 -0.195,0.277 -0.195,0.461 0,0.169 0.065,0.311 0.195,0.427 0.131,0.115 0.296,0.173 0.496,0.173 h 4.562 c 0.214,0 0.383,-0.062 0.506,-0.185 C -0.062,6.213 0,6.052 0,5.852 Z m -5.829,-2.465 c -1.229,0 -2.385,0.242 -3.468,0.725 -1.082,0.484 -2.039,1.153 -2.868,2.005 -0.83,0.853 -1.482,1.835 -1.959,2.949 -0.476,1.114 -0.714,2.3 -0.714,3.56 0,1.244 0.231,2.423 0.692,3.537 0.46,1.113 1.102,2.096 1.923,2.949 0.822,0.852 1.778,1.52 2.869,2.004 1.09,0.484 2.265,0.726 3.525,0.726 1.059,0 2.065,-0.169 3.018,-0.507 0.952,-0.338 1.843,-0.853 2.673,-1.544 C 0,13.832 0.069,13.682 0.069,13.49 c 0,-0.192 -0.062,-0.361 -0.184,-0.507 -0.123,-0.146 -0.292,-0.219 -0.507,-0.219 -0.062,0 -0.123,0.012 -0.185,0.035 -0.061,0.023 -0.123,0.054 -0.184,0.092 -0.061,0.038 -0.131,0.088 -0.207,0.15 -0.614,0.553 -1.313,0.952 -2.097,1.198 -0.783,0.245 -1.628,0.368 -2.534,0.368 -1.029,0 -2.004,-0.211 -2.926,-0.633 -0.922,-0.423 -1.736,-0.999 -2.442,-1.728 -0.707,-0.73 -1.26,-1.563 -1.659,-2.5 -0.4,-0.937 -0.6,-1.928 -0.6,-2.972 0,-1.076 0.2,-2.089 0.6,-3.042 0.399,-0.952 0.948,-1.789 1.647,-2.511 0.699,-0.722 1.509,-1.286 2.431,-1.693 0.921,-0.407 1.904,-0.611 2.949,-0.611 0.906,0 1.754,0.138 2.546,0.415 0.791,0.276 1.532,0.699 2.223,1.267 0.123,0.108 0.268,0.146 0.438,0.115 0.169,-0.031 0.314,-0.108 0.437,-0.23 C -0.062,0.361 0,0.199 0,0 0,-0.092 -0.008,-0.177 -0.023,-0.253 -0.039,-0.331 -0.084,-0.407 -0.161,-0.484 -0.914,-1.237 -1.786,-1.755 -2.776,-2.039 -3.767,-2.323 -4.785,-2.465 -5.829,-2.465"
         style="fill:#a99c6b;fill-opacity:1;fill-rule:nonzero;stroke:none"
         id="path134"
         inkscape:connector-curvature="0" />
    </g>
    <g
       id="g136"
       transform="matrix(0.35277777,0,0,-0.35277777,46.889693,135.68059)">
      <path
         d="M 0,0 C -0.169,0 -0.296,0.035 -0.38,0.104 -0.465,0.173 -0.545,0.261 -0.622,0.369 L -5.207,7.695 -3.778,8.018 0.576,1.06 C 0.775,0.752 0.818,0.499 0.703,0.299 0.587,0.1 0.354,0 0,0 m -8.985,8.525 h 3.709 c 0.86,0 1.616,0.173 2.269,0.518 0.653,0.346 1.168,0.818 1.544,1.417 0.376,0.599 0.565,1.29 0.565,2.074 0,0.798 -0.189,1.505 -0.565,2.119 -0.376,0.615 -0.891,1.095 -1.544,1.44 -0.653,0.346 -1.409,0.519 -2.269,0.519 H -8.985 Z M -9.677,0 c -0.199,0 -0.365,0.065 -0.495,0.196 -0.131,0.13 -0.196,0.295 -0.196,0.495 v 16.612 c 0,0.215 0.065,0.384 0.196,0.507 0.13,0.123 0.296,0.184 0.495,0.184 h 4.401 c 1.121,0 2.116,-0.234 2.984,-0.702 0.867,-0.469 1.547,-1.11 2.039,-1.924 0.491,-0.815 0.737,-1.759 0.737,-2.834 0,-1.045 -0.246,-1.974 -0.737,-2.788 C -0.745,8.932 -1.425,8.294 -2.292,7.833 -3.16,7.373 -4.155,7.143 -5.276,7.143 H -8.985 V 0.691 c 0,-0.2 -0.062,-0.365 -0.185,-0.495 C -9.293,0.065 -9.462,0 -9.677,0"
         style="fill:#a99c6b;fill-opacity:1;fill-rule:nonzero;stroke:none"
         id="path138"
         inkscape:connector-curvature="0" />
    </g>
    <g
       id="g140"
       transform="matrix(0.35277777,0,0,-0.35277777,48.580206,135.68059)">
      <path
         d="m 0,0 c -0.2,0 -0.365,0.065 -0.495,0.196 -0.131,0.13 -0.196,0.295 -0.196,0.495 v 16.612 c 0,0.199 0.065,0.364 0.196,0.495 0.13,0.131 0.295,0.196 0.495,0.196 h 11.083 c 0.184,0 0.345,-0.065 0.483,-0.196 0.139,-0.131 0.207,-0.296 0.207,-0.495 0,-0.184 -0.068,-0.345 -0.207,-0.484 -0.138,-0.138 -0.299,-0.207 -0.483,-0.207 H 0.691 V 9.7 H 8.317 C 8.517,9.7 8.682,9.634 8.813,9.504 8.943,9.374 9.009,9.208 9.009,9.009 9.009,8.809 8.943,8.64 8.813,8.502 8.682,8.363 8.517,8.294 8.317,8.294 H 0.691 V 1.382 h 10.392 c 0.184,0 0.345,-0.069 0.483,-0.207 0.139,-0.138 0.207,-0.3 0.207,-0.484 0,-0.2 -0.068,-0.365 -0.207,-0.495 C 11.428,0.065 11.267,0 11.083,0 Z"
         style="fill:#a99c6b;fill-opacity:1;fill-rule:nonzero;stroke:none"
         id="path142"
         inkscape:connector-curvature="0" />
    </g>
    <g
       id="g144"
       transform="matrix(0.35277777,0,0,-0.35277777,54.318558,135.68059)">
      <path
         d="m 0,0 c -0.2,0 -0.365,0.065 -0.495,0.196 -0.131,0.13 -0.196,0.295 -0.196,0.495 v 16.612 c 0,0.199 0.065,0.364 0.196,0.495 0.13,0.131 0.295,0.196 0.495,0.196 h 11.083 c 0.184,0 0.345,-0.065 0.483,-0.196 0.139,-0.131 0.207,-0.296 0.207,-0.495 0,-0.184 -0.068,-0.345 -0.207,-0.484 -0.138,-0.138 -0.299,-0.207 -0.483,-0.207 H 0.691 V 9.7 H 8.317 C 8.517,9.7 8.682,9.634 8.813,9.504 8.943,9.374 9.009,9.208 9.009,9.009 9.009,8.809 8.943,8.64 8.813,8.502 8.682,8.363 8.517,8.294 8.317,8.294 H 0.691 V 1.382 h 10.392 c 0.184,0 0.345,-0.069 0.483,-0.207 0.139,-0.138 0.207,-0.3 0.207,-0.484 0,-0.2 -0.068,-0.365 -0.207,-0.495 C 11.428,0.065 11.267,0 11.083,0 Z"
         style="fill:#a99c6b;fill-opacity:1;fill-rule:nonzero;stroke:none"
         id="path146"
         inkscape:connector-curvature="0" />
    </g>
    <g
       id="g148"
       transform="matrix(0.35277777,0,0,-0.35277777,60.056876,135.68059)">
      <path
         d="m 0,0 c -0.2,0 -0.365,0.065 -0.495,0.196 -0.131,0.13 -0.196,0.295 -0.196,0.495 v 16.612 c 0,0.199 0.065,0.364 0.196,0.495 0.13,0.131 0.295,0.196 0.495,0.196 0.215,0 0.392,-0.077 0.53,-0.23 L 12.234,2.534 v 14.769 c 0,0.199 0.065,0.364 0.196,0.495 0.131,0.131 0.296,0.196 0.495,0.196 0.185,0 0.346,-0.065 0.484,-0.196 0.138,-0.131 0.208,-0.296 0.208,-0.495 V 0.691 c 0,-0.2 -0.07,-0.365 -0.208,-0.495 C 13.271,0.065 13.11,0 12.925,0 12.818,0 12.722,0.019 12.638,0.058 12.553,0.096 12.48,0.146 12.418,0.208 L 0.691,15.46 V 0.691 C 0.691,0.491 0.626,0.326 0.496,0.196 0.365,0.065 0.2,0 0,0"
         style="fill:#a99c6b;fill-opacity:1;fill-rule:nonzero;stroke:none"
         id="path150"
         inkscape:connector-curvature="0" />
    </g>
    <g
       id="g152"
       transform="matrix(0.35277777,0,0,-0.35277777,69.5829,135.27422)">
      <path
         d="m 0,0 c 1.106,0 2.135,0.196 3.087,0.588 0.953,0.391 1.786,0.944 2.5,1.659 0.714,0.714 1.267,1.547 1.659,2.5 0.392,0.952 0.587,1.988 0.587,3.11 0,1.106 -0.195,2.135 -0.587,3.087 -0.392,0.952 -0.945,1.786 -1.659,2.5 -0.714,0.714 -1.547,1.267 -2.5,1.659 C 2.135,15.495 1.106,15.69 0,15.69 c -1.122,0 -2.158,-0.195 -3.11,-0.587 -0.953,-0.392 -1.786,-0.945 -2.5,-1.659 -0.715,-0.714 -1.267,-1.548 -1.659,-2.5 -0.392,-0.952 -0.588,-1.981 -0.588,-3.087 0,-1.122 0.196,-2.158 0.588,-3.11 0.392,-0.953 0.944,-1.786 1.659,-2.5 0.714,-0.715 1.547,-1.268 2.5,-1.659 C -2.158,0.196 -1.122,0 0,0 m 0,-1.382 c -1.321,0 -2.542,0.23 -3.664,0.691 -1.121,0.461 -2.1,1.109 -2.937,1.947 -0.837,0.837 -1.486,1.816 -1.947,2.937 -0.461,1.121 -0.691,2.343 -0.691,3.664 0,1.321 0.23,2.538 0.691,3.652 0.461,1.113 1.11,2.088 1.947,2.926 0.837,0.836 1.816,1.486 2.937,1.946 1.122,0.461 2.343,0.692 3.664,0.692 1.321,0 2.538,-0.231 3.652,-0.692 1.113,-0.46 2.088,-1.11 2.926,-1.946 C 7.415,13.597 8.064,12.622 8.525,11.509 8.985,10.395 9.216,9.178 9.216,7.857 9.216,6.536 8.985,5.314 8.525,4.193 8.064,3.072 7.415,2.093 6.578,1.256 5.74,0.418 4.765,-0.23 3.652,-0.691 2.538,-1.152 1.321,-1.382 0,-1.382"
         style="fill:#a99c6b;fill-opacity:1;fill-rule:nonzero;stroke:none"
         id="path154"
         inkscape:connector-curvature="0" />
    </g>
    <g
       id="g156"
       transform="matrix(0.35277777,0,0,-0.35277777,76.987458,135.76187)">
      <path
         d="m 0,0 c -1.229,0 -2.385,0.242 -3.468,0.726 -1.082,0.483 -2.039,1.152 -2.868,2.004 -0.83,0.853 -1.482,1.835 -1.958,2.949 -0.477,1.114 -0.715,2.3 -0.715,3.56 0,1.244 0.231,2.423 0.692,3.537 0.46,1.113 1.102,2.097 1.923,2.949 0.822,0.852 1.778,1.521 2.869,2.004 1.09,0.484 2.265,0.726 3.525,0.726 1.06,0 2.065,-0.169 3.018,-0.507 0.952,-0.338 1.843,-0.852 2.673,-1.543 0.138,-0.108 0.207,-0.258 0.207,-0.45 0,-0.192 -0.062,-0.361 -0.184,-0.507 -0.123,-0.146 -0.292,-0.219 -0.507,-0.219 -0.061,0 -0.123,0.012 -0.185,0.035 -0.061,0.023 -0.123,0.054 -0.184,0.092 -0.061,0.039 -0.13,0.088 -0.207,0.15 C 4.017,16.059 3.318,16.458 2.534,16.704 1.751,16.95 0.906,17.073 0,17.073 c -1.029,0 -2.004,-0.212 -2.926,-0.634 -0.922,-0.422 -1.736,-0.999 -2.442,-1.728 -0.707,-0.73 -1.26,-1.563 -1.659,-2.5 -0.4,-0.937 -0.599,-1.927 -0.599,-2.972 0,-1.075 0.199,-2.089 0.599,-3.041 C -6.628,5.245 -6.079,4.408 -5.38,3.687 -4.681,2.964 -3.871,2.4 -2.949,1.993 -2.028,1.586 -1.045,1.382 0,1.382 0.906,1.382 1.754,1.521 2.546,1.797 3.337,2.074 4.078,2.496 4.769,3.064 4.892,3.172 5.038,3.21 5.207,3.18 5.376,3.148 5.521,3.072 5.645,2.949 5.768,2.826 5.829,2.665 5.829,2.465 5.829,2.373 5.821,2.289 5.806,2.212 5.791,2.135 5.745,2.058 5.668,1.981 4.915,1.229 4.043,0.71 3.053,0.426 2.062,0.142 1.044,0 0,0"
         style="fill:#a99c6b;fill-opacity:1;fill-rule:nonzero;stroke:none"
         id="path158"
         inkscape:connector-curvature="0" />
    </g>
    <g
       id="g160"
       transform="matrix(0.35277777,0,0,-0.35277777,80.775164,135.68059)">
      <path
         d="m 0,0 c -0.184,0 -0.346,0.065 -0.484,0.196 -0.138,0.13 -0.207,0.295 -0.207,0.495 v 16.612 c 0,0.199 0.069,0.364 0.207,0.495 0.138,0.131 0.3,0.196 0.484,0.196 0.2,0 0.365,-0.065 0.496,-0.196 0.13,-0.131 0.195,-0.296 0.195,-0.495 V 8.847 l 8.94,8.94 c 0.077,0.077 0.157,0.13 0.242,0.161 0.084,0.031 0.18,0.046 0.288,0.046 0.199,0 0.36,-0.065 0.484,-0.196 0.122,-0.131 0.191,-0.288 0.207,-0.472 0.015,-0.184 -0.054,-0.361 -0.207,-0.53 L 4.032,10.184 10.714,1.106 C 10.836,0.937 10.882,0.764 10.852,0.587 10.821,0.411 10.744,0.269 10.622,0.161 10.499,0.054 10.353,0 10.184,0 9.922,0 9.723,0.1 9.585,0.299 L 3.019,9.17 0.691,6.843 V 0.691 C 0.691,0.491 0.626,0.326 0.496,0.196 0.365,0.065 0.2,0 0,0"
         style="fill:#a99c6b;fill-opacity:1;fill-rule:nonzero;stroke:none"
         id="path162"
         inkscape:connector-curvature="0" />
    </g>
    <g
       id="g164"
       transform="matrix(0.35277777,0,0,-0.35277777,56.824692,124.22081)">
      <path
         d="m 0,0 c 0,0 4.645,1.111 4.645,7.525 v 7.583 c 0,6.084 -1.702,13.189 -11.014,16.767 l -1.343,0.635"
         style="fill:none;stroke:#a99c6b;stroke-width:1.15199995;stroke-linecap:butt;stroke-linejoin:miter;stroke-miterlimit:10;stroke-dasharray:none;stroke-opacity:1"
         id="path166"
         inkscape:connector-curvature="0" />
    </g>
    <g
       id="g168"
       transform="matrix(0.35277777,0,0,-0.35277777,55.190167,108.22386)">
      <path
         d="M 0,0 15.047,-21.623"
         style="fill:none;stroke:#a99c6b;stroke-width:1.15199995;stroke-linecap:butt;stroke-linejoin:miter;stroke-miterlimit:10;stroke-dasharray:none;stroke-opacity:1"
         id="path170"
         inkscape:connector-curvature="0" />
    </g>
    <g
       id="g172"
       transform="matrix(0.35277777,0,0,-0.35277777,54.13561,109.89317)">
      <path
         d="M 0,0 8.134,-2.873"
         style="fill:none;stroke:#a99c6b;stroke-width:1.15199995;stroke-linecap:butt;stroke-linejoin:miter;stroke-miterlimit:10;stroke-dasharray:none;stroke-opacity:1"
         id="path174"
         inkscape:connector-curvature="0" />
    </g>
    <g
       id="g176"
       transform="matrix(0.35277777,0,0,-0.35277777,60.500072,105.29467)">
      <path
         d="M 0,0 V -36.409"
         style="fill:none;stroke:#a99c6b;stroke-width:1.15199995;stroke-linecap:butt;stroke-linejoin:miter;stroke-miterlimit:10;stroke-dasharray:none;stroke-opacity:1"
         id="path178"
         inkscape:connector-curvature="0" />
    </g>
    <g
       id="g180"
       transform="matrix(0.35277777,0,0,-0.35277777,58.060931,105.06763)">
      <path
         d="M 0,0 6.914,-6.845"
         style="fill:none;stroke:#a99c6b;stroke-width:1.15199995;stroke-linecap:butt;stroke-linejoin:miter;stroke-miterlimit:10;stroke-dasharray:none;stroke-opacity:1"
         id="path182"
         inkscape:connector-curvature="0" />
    </g>
    <g
       id="g184"
       transform="matrix(0.35277777,0,0,-0.35277777,59.692704,103.85065)">
      <path
         d="M 0,0 C 0,-1.631 0.886,-3.095 2.289,-4.093 3.691,-3.095 4.577,-1.631 4.577,0 4.577,1.632 3.691,3.095 2.289,4.094 0.886,3.095 0,1.632 0,0 Z"
         style="fill:none;stroke:#a99c6b;stroke-width:1.15199995;stroke-linecap:butt;stroke-linejoin:miter;stroke-miterlimit:10;stroke-dasharray:none;stroke-opacity:1"
         id="path186"
         inkscape:connector-curvature="0" />
    </g>
    <g
       id="g188"
       transform="matrix(0.35277777,0,0,-0.35277777,52.415289,112.81805)">
      <path
         d="M 0,0 C 1.618,-0.519 3.35,-0.407 4.787,0.187 4.242,1.417 3.073,2.459 1.455,2.978 -0.163,3.496 -1.896,3.385 -3.332,2.79 -2.787,1.56 -1.618,0.519 0,0 Z"
         style="fill:none;stroke:#a99c6b;stroke-width:1.15199995;stroke-linecap:butt;stroke-linejoin:miter;stroke-miterlimit:10;stroke-dasharray:none;stroke-opacity:1"
         id="path190"
         inkscape:connector-curvature="0" />
    </g>
    <g
       id="g192"
       transform="matrix(0.35277777,0,0,-0.35277777,52.192756,109.74451)">
      <path
         d="M 0,0 C 1.725,-0.81 3.729,-0.913 5.507,-0.421 5.173,1.062 4.083,2.412 2.357,3.222 0.632,4.031 -1.371,4.134 -3.15,3.643 -2.816,2.16 -1.726,0.81 0,0 Z"
         style="fill:none;stroke:#a99c6b;stroke-width:1.15199995;stroke-linecap:butt;stroke-linejoin:miter;stroke-miterlimit:10;stroke-dasharray:none;stroke-opacity:1"
         id="path194"
         inkscape:connector-curvature="0" />
    </g>
    <g
       id="g196"
       transform="matrix(0.35277777,0,0,-0.35277777,55.67866,104.32746)">
      <path
         d="m 0,0 c -0.5,-1.72 -0.381,-3.541 0.471,-4.978 0.852,-1.438 2.261,-2.196 3.805,-2.236 0.5,1.72 0.381,3.541 -0.471,4.978 C 2.953,-0.798 1.543,-0.04 0,0 Z"
         style="fill:none;stroke:#a99c6b;stroke-width:1.12600005;stroke-linecap:butt;stroke-linejoin:miter;stroke-miterlimit:10;stroke-dasharray:none;stroke-opacity:1"
         id="path198"
         inkscape:connector-curvature="0" />
    </g>
    <g
       id="g200"
       transform="matrix(0.35277777,0,0,-0.35277777,65.321487,104.32746)">
      <path
         d="m 0,0 c 0.5,-1.72 0.381,-3.541 -0.471,-4.978 -0.852,-1.438 -2.262,-2.196 -3.805,-2.236 -0.5,1.72 -0.382,3.541 0.471,4.978 C -2.953,-0.798 -1.543,-0.04 0,0 Z"
         style="fill:none;stroke:#a99c6b;stroke-width:1.12600005;stroke-linecap:butt;stroke-linejoin:miter;stroke-miterlimit:10;stroke-dasharray:none;stroke-opacity:1"
         id="path202"
         inkscape:connector-curvature="0" />
    </g>
    <g
       id="g204"
       transform="matrix(0.35277777,0,0,-0.35277777,53.614521,107.30212)">
      <path
         d="M 0,0 C 0.984,-1.412 2.641,-2.318 4.466,-2.613 5.086,-1.178 4.976,0.448 3.991,1.86 3.006,3.272 1.351,4.178 -0.476,4.473 -1.095,3.038 -0.985,1.412 0,0 Z"
         style="fill:none;stroke:#a99c6b;stroke-width:1.15199995;stroke-linecap:butt;stroke-linejoin:miter;stroke-miterlimit:10;stroke-dasharray:none;stroke-opacity:1"
         id="path206"
         inkscape:connector-curvature="0" />
    </g>
    <g
       id="g208"
       transform="matrix(0.35277777,0,0,-0.35277777,65.810013,108.22386)">
      <path
         d="M 0,0 -15.048,-21.623"
         style="fill:none;stroke:#a99c6b;stroke-width:1.15199995;stroke-linecap:butt;stroke-linejoin:miter;stroke-miterlimit:10;stroke-dasharray:none;stroke-opacity:1"
         id="path210"
         inkscape:connector-curvature="0" />
    </g>
    <g
       id="g212"
       transform="matrix(0.35277777,0,0,-0.35277777,67.385623,107.30212)">
      <path
         d="m 0,0 c -0.985,-1.412 -2.641,-2.318 -4.466,-2.613 -0.62,1.435 -0.51,3.061 0.475,4.473 0.985,1.412 2.64,2.318 4.466,2.613 C 1.095,3.038 0.985,1.412 0,0 Z"
         style="fill:none;stroke:#a99c6b;stroke-width:1.15199995;stroke-linecap:butt;stroke-linejoin:miter;stroke-miterlimit:10;stroke-dasharray:none;stroke-opacity:1"
         id="path214"
         inkscape:connector-curvature="0" />
    </g>
    <g
       id="g216"
       transform="matrix(0.35277777,0,0,-0.35277777,57.777403,109.59828)">
      <path
         d="M 0,0 C 0.937,-1.445 2.561,-2.407 4.375,-2.763 5.044,-1.351 4.989,0.278 4.052,1.723 3.116,3.167 1.492,4.129 -0.323,4.486 -0.991,3.074 -0.936,1.444 0,0 Z"
         style="fill:none;stroke:#a99c6b;stroke-width:1.15199995;stroke-linecap:butt;stroke-linejoin:miter;stroke-miterlimit:10;stroke-dasharray:none;stroke-opacity:1"
         id="path218"
         inkscape:connector-curvature="0" />
    </g>
    <g
       id="g220"
       transform="matrix(0.35277777,0,0,-0.35277777,60.512137,112.07651)">
      <path
         d="M 0,0 -3.043,4.262"
         style="fill:none;stroke:#a99c6b;stroke-width:1.15199995;stroke-linecap:butt;stroke-linejoin:miter;stroke-miterlimit:10;stroke-dasharray:none;stroke-opacity:1"
         id="path222"
         inkscape:connector-curvature="0" />
    </g>
    <g
       id="g224"
       transform="matrix(0.35277777,0,0,-0.35277777,64.175486,124.22081)">
      <path
         d="m 0,0 c 0,0 -4.645,1.111 -4.645,7.525 v 7.583 c 0,6.084 1.702,13.189 11.014,16.767 l 1.343,0.635"
         style="fill:none;stroke:#a99c6b;stroke-width:1.15199995;stroke-linecap:butt;stroke-linejoin:miter;stroke-miterlimit:10;stroke-dasharray:none;stroke-opacity:1"
         id="path226"
         inkscape:connector-curvature="0" />
    </g>
    <g
       id="g228"
       transform="matrix(0.35277777,0,0,-0.35277777,66.864359,109.89317)">
      <path
         d="M 0,0 -8.133,-2.873"
         style="fill:none;stroke:#a99c6b;stroke-width:1.15199995;stroke-linecap:butt;stroke-linejoin:miter;stroke-miterlimit:10;stroke-dasharray:none;stroke-opacity:1"
         id="path230"
         inkscape:connector-curvature="0" />
    </g>
    <g
       id="g232"
       transform="matrix(0.35277777,0,0,-0.35277777,62.939035,105.06763)">
      <path
         d="M 0,0 -6.914,-6.845"
         style="fill:none;stroke:#a99c6b;stroke-width:1.15199995;stroke-linecap:butt;stroke-linejoin:miter;stroke-miterlimit:10;stroke-dasharray:none;stroke-opacity:1"
         id="path234"
         inkscape:connector-curvature="0" />
    </g>
    <g
       id="g236"
       transform="matrix(0.35277777,0,0,-0.35277777,68.584857,112.81805)">
      <path
         d="m 0,0 c -1.618,-0.519 -3.35,-0.407 -4.787,0.187 0.545,1.23 1.714,2.272 3.332,2.791 C 0.163,3.496 1.896,3.385 3.332,2.79 2.787,1.56 1.618,0.519 0,0 Z"
         style="fill:none;stroke:#a99c6b;stroke-width:1.15199995;stroke-linecap:butt;stroke-linejoin:miter;stroke-miterlimit:10;stroke-dasharray:none;stroke-opacity:1"
         id="path238"
         inkscape:connector-curvature="0" />
    </g>
    <g
       id="g240"
       transform="matrix(0.35277777,0,0,-0.35277777,68.807425,109.74451)">
      <path
         d="m 0,0 c -1.725,-0.81 -3.729,-0.913 -5.508,-0.421 0.334,1.483 1.425,2.833 3.15,3.643 C -0.633,4.031 1.371,4.134 3.15,3.643 2.816,2.16 1.725,0.81 0,0 Z"
         style="fill:none;stroke:#a99c6b;stroke-width:1.15199995;stroke-linecap:butt;stroke-linejoin:miter;stroke-miterlimit:10;stroke-dasharray:none;stroke-opacity:1"
         id="path242"
         inkscape:connector-curvature="0" />
    </g>
    <g
       id="g244"
       transform="matrix(0.35277777,0,0,-0.35277777,63.222563,109.59828)">
      <path
         d="m 0,0 c -0.936,-1.445 -2.56,-2.407 -4.375,-2.763 -0.668,1.412 -0.613,3.041 0.323,4.486 0.936,1.444 2.56,2.406 4.375,2.763 C 0.991,3.074 0.937,1.444 0,0 Z"
         style="fill:none;stroke:#a99c6b;stroke-width:1.15199995;stroke-linecap:butt;stroke-linejoin:miter;stroke-miterlimit:10;stroke-dasharray:none;stroke-opacity:1"
         id="path246"
         inkscape:connector-curvature="0" />
    </g>
    <g
       id="g248"
       transform="matrix(0.35277777,0,0,-0.35277777,60.48783,112.07651)">
      <path
         d="M 0,0 3.043,4.262"
         style="fill:none;stroke:#a99c6b;stroke-width:1.15199995;stroke-linecap:butt;stroke-linejoin:miter;stroke-miterlimit:10;stroke-dasharray:none;stroke-opacity:1"
         id="path250"
         inkscape:connector-curvature="0" />
    </g>
    <g
       id="g252"
       transform="matrix(0.35277777,0,0,-0.35277777,62.553522,118.72641)">
      <path
         d="m 0,0 c 6.577,-0.948 12.642,-3.48 17.797,-7.194 2.644,2.863 4.774,6.207 6.243,9.888 C 18.061,6.88 11.162,9.845 3.708,11.223"
         style="fill:none;stroke:#a99c6b;stroke-width:1.15199995;stroke-linecap:butt;stroke-linejoin:miter;stroke-miterlimit:10;stroke-dasharray:none;stroke-opacity:1"
         id="path254"
         inkscape:connector-curvature="0" />
    </g>
    <g
       id="g256"
       transform="matrix(0.35277777,0,0,-0.35277777,57.189182,114.75783)">
      <path
         d="m 0,0 c -7.51,-1.366 -14.458,-4.342 -20.476,-8.556 1.469,-3.68 3.599,-7.025 6.243,-9.888 5.051,3.64 10.976,6.143 17.4,7.135"
         style="fill:none;stroke:#a99c6b;stroke-width:1.15199995;stroke-linecap:butt;stroke-linejoin:miter;stroke-miterlimit:10;stroke-dasharray:none;stroke-opacity:1"
         id="path258"
         inkscape:connector-curvature="0" />
    </g>
  </g>
</svg>
