<?xml version="1.0" encoding="UTF-8" standalone="no"?>
<!-- Created with Inkscape (http://www.inkscape.org/) -->

<svg
   xmlns:dc="http://purl.org/dc/elements/1.1/"
   xmlns:cc="http://creativecommons.org/ns#"
   xmlns:rdf="http://www.w3.org/1999/02/22-rdf-syntax-ns#"
   xmlns:svg="http://www.w3.org/2000/svg"
   xmlns="http://www.w3.org/2000/svg"
   xmlns:sodipodi="http://sodipodi.sourceforge.net/DTD/sodipodi-0.dtd"
   xmlns:inkscape="http://www.inkscape.org/namespaces/inkscape"
   width="85.402802mm"
   height="27.737961mm"
   viewBox="0 0 85.402802 27.737961"
   version="1.1"
   id="svg12997"
   inkscape:version="0.92.3 (2405546, 2018-03-11)"
   sodipodi:docname="logo.svg">
  <defs
     id="defs12991" />
  <sodipodi:namedview
     id="base"
     pagecolor="#ffffff"
     bordercolor="#666666"
     borderopacity="1.0"
     inkscape:pageopacity="0.0"
     inkscape:pageshadow="2"
     inkscape:zoom="0.80390625"
     inkscape:cx="-200.51364"
     inkscape:cy="191.97115"
     inkscape:document-units="mm"
     inkscape:current-layer="layer1"
     showgrid="false"
     fit-margin-top="1"
     fit-margin-left="1"
     fit-margin-right="1"
     fit-margin-bottom="1"
     inkscape:window-width="1366"
     inkscape:window-height="713"
     inkscape:window-x="0"
     inkscape:window-y="27"
     inkscape:window-maximized="1" />
  <metadata
     id="metadata12994">
    <rdf:RDF>
      <cc:Work
         rdf:about="">
        <dc:format>image/svg+xml</dc:format>
        <dc:type
           rdf:resource="http://purl.org/dc/dcmitype/StillImage" />
        <dc:title></dc:title>
      </cc:Work>
    </rdf:RDF>
  </metadata>
  <g
     inkscape:label="Layer 1"
     inkscape:groupmode="layer"
     id="layer1"
     transform="translate(-95.20077,-171.88774)">
    <g
       id="g366"
       transform="matrix(0.35277777,0,0,-0.35277777,126.16035,185.46526)">
      <path
         d="M 0,0 -1.724,0.374 V 6.579 H -6.55 c -0.249,0 -0.455,0.076 -0.618,0.23 -0.163,0.153 -0.244,0.344 -0.244,0.575 0,0.21 0.081,0.387 0.244,0.531 0.163,0.144 0.369,0.216 0.618,0.216 h 5.688 c 0.268,0 0.478,-0.077 0.633,-0.231 C -0.077,7.747 0,7.546 0,7.298 Z m -7.269,-3.073 c -1.532,0 -2.972,0.302 -4.323,0.904 -1.35,0.604 -2.542,1.437 -3.577,2.5 -1.034,1.063 -1.848,2.288 -2.441,3.677 -0.594,1.388 -0.891,2.868 -0.891,4.438 0,1.552 0.287,3.022 0.862,4.41 0.575,1.389 1.374,2.615 2.399,3.677 1.024,1.064 2.217,1.897 3.576,2.5 1.36,0.603 2.825,0.904 4.395,0.904 1.322,0 2.577,-0.21 3.764,-0.631 1.188,-0.422 2.298,-1.063 3.332,-1.925 C 0,17.247 0.086,17.06 0.086,16.82 c 0,-0.239 -0.076,-0.45 -0.23,-0.632 -0.153,-0.181 -0.364,-0.272 -0.631,-0.272 -0.078,0 -0.155,0.014 -0.231,0.043 -0.076,0.028 -0.153,0.066 -0.229,0.115 -0.077,0.047 -0.163,0.11 -0.259,0.187 -0.766,0.689 -1.638,1.187 -2.614,1.493 -0.977,0.307 -2.031,0.46 -3.161,0.46 -1.283,0 -2.499,-0.264 -3.648,-0.79 -1.148,-0.527 -2.164,-1.245 -3.045,-2.154 -0.881,-0.911 -1.57,-1.95 -2.068,-3.118 -0.498,-1.168 -0.747,-2.403 -0.747,-3.706 0,-1.341 0.249,-2.604 0.747,-3.792 0.498,-1.187 1.182,-2.231 2.053,-3.131 0.872,-0.9 1.882,-1.604 3.032,-2.112 1.149,-0.507 2.374,-0.761 3.676,-0.761 1.13,0 2.189,0.172 3.175,0.517 0.987,0.345 1.91,0.872 2.773,1.58 0.152,0.134 0.335,0.183 0.546,0.144 0.21,-0.038 0.391,-0.134 0.546,-0.287 C -0.077,0.45 0,0.249 0,0 0,-0.114 -0.01,-0.22 -0.029,-0.315 -0.048,-0.411 -0.105,-0.507 -0.201,-0.603 -1.14,-1.541 -2.227,-2.188 -3.462,-2.542 -4.697,-2.896 -5.966,-3.073 -7.269,-3.073"
         style="fill:#a99c6b;fill-opacity:1;fill-rule:nonzero;stroke:none"
         id="path368"
         inkscape:connector-curvature="0" />
    </g>
    <g
       id="g370"
       transform="matrix(0.35277777,0,0,-0.35277777,132.57544,186.44818)">
      <path
         d="M 0,0 C -0.211,0 -0.369,0.043 -0.475,0.129 -0.58,0.216 -0.681,0.325 -0.776,0.46 l -5.717,9.135 1.781,0.402 5.43,-8.676 C 0.967,0.938 1.02,0.622 0.876,0.373 0.732,0.124 0.44,0 0,0 m -11.204,10.629 h 4.625 c 1.072,0 2.016,0.216 2.83,0.646 0.813,0.432 1.455,1.021 1.925,1.768 0.469,0.746 0.703,1.608 0.703,2.585 0,0.996 -0.234,1.877 -0.703,2.643 -0.47,0.766 -1.112,1.365 -1.925,1.795 -0.814,0.431 -1.758,0.647 -2.83,0.647 h -4.625 z M -12.066,0 c -0.249,0 -0.455,0.081 -0.618,0.244 -0.163,0.162 -0.244,0.368 -0.244,0.618 v 20.713 c 0,0.268 0.081,0.479 0.244,0.632 0.163,0.152 0.369,0.23 0.618,0.23 h 5.487 c 1.397,0 2.638,-0.292 3.721,-0.876 1.081,-0.585 1.928,-1.384 2.542,-2.4 0.612,-1.015 0.919,-2.192 0.919,-3.533 0,-1.303 -0.307,-2.461 -0.919,-3.476 C -0.93,11.137 -1.777,10.342 -2.858,9.768 -3.941,9.193 -5.182,8.905 -6.579,8.905 h -4.625 V 0.862 c 0,-0.25 -0.077,-0.456 -0.231,-0.618 C -11.588,0.081 -11.798,0 -12.066,0"
         style="fill:#a99c6b;fill-opacity:1;fill-rule:nonzero;stroke:none"
         id="path372"
         inkscape:connector-curvature="0" />
    </g>
    <g
       id="g374"
       transform="matrix(0.35277777,0,0,-0.35277777,134.68318,186.44818)">
      <path
         d="M 0,0 C -0.249,0 -0.455,0.081 -0.617,0.244 -0.78,0.406 -0.861,0.612 -0.861,0.862 v 20.713 c 0,0.248 0.081,0.454 0.244,0.617 0.162,0.162 0.368,0.245 0.617,0.245 h 13.818 c 0.23,0 0.431,-0.083 0.604,-0.245 0.172,-0.163 0.259,-0.369 0.259,-0.617 0,-0.23 -0.087,-0.431 -0.259,-0.603 -0.173,-0.173 -0.374,-0.259 -0.604,-0.259 H 0.862 v -8.618 h 9.509 c 0.249,0 0.455,-0.082 0.617,-0.244 0.163,-0.163 0.245,-0.37 0.245,-0.619 0,-0.249 -0.082,-0.459 -0.245,-0.631 -0.162,-0.172 -0.368,-0.259 -0.617,-0.259 H 0.862 V 1.724 h 12.956 c 0.23,0 0.431,-0.086 0.604,-0.259 0.172,-0.172 0.259,-0.373 0.259,-0.603 0,-0.25 -0.087,-0.456 -0.259,-0.618 C 14.249,0.081 14.048,0 13.818,0 Z"
         style="fill:#a99c6b;fill-opacity:1;fill-rule:nonzero;stroke:none"
         id="path376"
         inkscape:connector-curvature="0" />
    </g>
    <g
       id="g378"
       transform="matrix(0.35277777,0,0,-0.35277777,141.83829,186.44818)">
      <path
         d="M 0,0 C -0.249,0 -0.455,0.081 -0.617,0.244 -0.78,0.406 -0.861,0.612 -0.861,0.862 v 20.713 c 0,0.248 0.081,0.454 0.244,0.617 0.162,0.162 0.368,0.245 0.617,0.245 h 13.818 c 0.23,0 0.431,-0.083 0.604,-0.245 0.172,-0.163 0.259,-0.369 0.259,-0.617 0,-0.23 -0.087,-0.431 -0.259,-0.603 -0.173,-0.173 -0.374,-0.259 -0.604,-0.259 H 0.862 v -8.618 h 9.509 c 0.249,0 0.455,-0.082 0.617,-0.244 0.163,-0.163 0.245,-0.37 0.245,-0.619 0,-0.249 -0.082,-0.459 -0.245,-0.631 -0.162,-0.172 -0.368,-0.259 -0.617,-0.259 H 0.862 V 1.724 h 12.956 c 0.23,0 0.431,-0.086 0.604,-0.259 0.172,-0.172 0.259,-0.373 0.259,-0.603 0,-0.25 -0.087,-0.456 -0.259,-0.618 C 14.249,0.081 14.048,0 13.818,0 Z"
         style="fill:#a99c6b;fill-opacity:1;fill-rule:nonzero;stroke:none"
         id="path380"
         inkscape:connector-curvature="0" />
    </g>
    <g
       id="g382"
       transform="matrix(0.35277777,0,0,-0.35277777,148.99305,186.44818)">
      <path
         d="M 0,0 C -0.249,0 -0.455,0.081 -0.617,0.244 -0.78,0.406 -0.861,0.612 -0.861,0.862 v 20.713 c 0,0.248 0.081,0.454 0.244,0.617 0.162,0.162 0.368,0.245 0.617,0.245 0.269,0 0.488,-0.096 0.661,-0.288 L 15.255,3.16 v 18.415 c 0,0.248 0.081,0.454 0.244,0.617 0.162,0.162 0.368,0.245 0.617,0.245 0.231,0 0.432,-0.083 0.604,-0.245 0.173,-0.163 0.259,-0.369 0.259,-0.617 V 0.862 C 16.979,0.612 16.893,0.406 16.72,0.244 16.548,0.081 16.347,0 16.116,0 15.982,0 15.862,0.023 15.758,0.072 15.652,0.119 15.561,0.182 15.484,0.259 L 0.862,19.276 V 0.862 C 0.862,0.612 0.78,0.406 0.618,0.244 0.455,0.081 0.249,0 0,0"
         style="fill:#a99c6b;fill-opacity:1;fill-rule:nonzero;stroke:none"
         id="path384"
         inkscape:connector-curvature="0" />
    </g>
    <g
       id="g386"
       transform="matrix(0.35277777,0,0,-0.35277777,160.87072,185.94137)">
      <path
         d="m 0,0 c 1.379,0 2.662,0.244 3.85,0.732 1.187,0.489 2.226,1.178 3.117,2.069 0.89,0.89 1.58,1.929 2.068,3.117 0.488,1.187 0.733,2.479 0.733,3.878 0,1.379 -0.245,2.662 -0.733,3.85 -0.488,1.187 -1.178,2.226 -2.068,3.117 -0.891,0.89 -1.93,1.58 -3.117,2.068 -1.188,0.488 -2.471,0.732 -3.85,0.732 -1.397,0 -2.69,-0.244 -3.878,-0.732 -1.187,-0.488 -2.226,-1.178 -3.117,-2.068 -0.891,-0.891 -1.58,-1.93 -2.068,-3.117 -0.489,-1.188 -0.733,-2.471 -0.733,-3.85 0,-1.399 0.244,-2.691 0.733,-3.878 C -8.575,4.73 -7.886,3.691 -6.995,2.801 -6.104,1.91 -5.065,1.221 -3.878,0.732 -2.69,0.244 -1.397,0 0,0 m 0,-1.724 c -1.646,0 -3.17,0.287 -4.567,0.862 -1.399,0.575 -2.62,1.383 -3.663,2.427 -1.044,1.044 -1.853,2.265 -2.427,3.664 -0.575,1.397 -0.863,2.919 -0.863,4.567 0,1.647 0.288,3.165 0.863,4.554 0.574,1.388 1.383,2.604 2.427,3.648 1.043,1.044 2.264,1.853 3.663,2.428 1.397,0.574 2.921,0.861 4.567,0.861 1.647,0 3.165,-0.287 4.554,-0.861 1.388,-0.575 2.604,-1.384 3.648,-2.428 1.044,-1.044 1.854,-2.26 2.428,-3.648 0.574,-1.389 0.861,-2.907 0.861,-4.554 0,-1.648 -0.287,-3.17 -0.861,-4.567 C 10.056,3.83 9.246,2.609 8.202,1.565 7.158,0.521 5.942,-0.287 4.554,-0.862 3.165,-1.437 1.647,-1.724 0,-1.724"
         style="fill:#a99c6b;fill-opacity:1;fill-rule:nonzero;stroke:none"
         id="path388"
         inkscape:connector-curvature="0" />
    </g>
    <g
       id="g390"
       transform="matrix(0.35277777,0,0,-0.35277777,170.10355,186.54947)">
      <path
         d="m 0,0 c -1.532,0 -2.973,0.302 -4.323,0.904 -1.351,0.604 -2.542,1.437 -3.577,2.5 -1.035,1.063 -1.848,2.288 -2.442,3.677 -0.594,1.389 -0.89,2.868 -0.89,4.439 0,1.551 0.287,3.021 0.862,4.41 0.574,1.388 1.374,2.614 2.398,3.676 1.025,1.064 2.217,1.897 3.576,2.5 1.361,0.603 2.826,0.905 4.396,0.905 1.321,0 2.576,-0.211 3.764,-0.632 1.187,-0.422 2.298,-1.063 3.332,-1.925 0.173,-0.134 0.258,-0.321 0.258,-0.56 0,-0.24 -0.076,-0.451 -0.229,-0.632 -0.153,-0.182 -0.364,-0.273 -0.632,-0.273 -0.077,0 -0.154,0.014 -0.23,0.043 -0.076,0.029 -0.154,0.067 -0.23,0.115 -0.077,0.047 -0.163,0.11 -0.259,0.187 -0.765,0.689 -1.637,1.187 -2.614,1.493 -0.976,0.307 -2.03,0.46 -3.16,0.46 -1.283,0 -2.499,-0.264 -3.648,-0.79 -1.149,-0.526 -2.164,-1.245 -3.045,-2.154 -0.881,-0.91 -1.571,-1.949 -2.069,-3.117 -0.498,-1.168 -0.747,-2.404 -0.747,-3.706 0,-1.341 0.249,-2.605 0.747,-3.792 0.498,-1.188 1.183,-2.232 2.054,-3.131 0.871,-0.901 1.882,-1.605 3.031,-2.113 1.15,-0.506 2.374,-0.76 3.677,-0.76 1.13,0 2.188,0.172 3.175,0.516 0.986,0.345 1.91,0.872 2.772,1.58 C 6.1,3.954 6.282,4.003 6.493,3.964 6.703,3.926 6.885,3.83 7.039,3.677 7.191,3.523 7.269,3.322 7.269,3.073 7.269,2.959 7.259,2.854 7.239,2.758 7.221,2.662 7.163,2.566 7.067,2.471 6.129,1.532 5.042,0.886 3.807,0.531 2.571,0.177 1.303,0 0,0"
         style="fill:#a99c6b;fill-opacity:1;fill-rule:nonzero;stroke:none"
         id="path392"
         inkscape:connector-curvature="0" />
    </g>
    <g
       id="g394"
       transform="matrix(0.35277777,0,0,-0.35277777,174.82612,186.44818)">
      <path
         d="m 0,0 c -0.229,0 -0.431,0.081 -0.603,0.244 -0.172,0.162 -0.258,0.368 -0.258,0.618 v 20.713 c 0,0.248 0.086,0.454 0.258,0.617 0.172,0.162 0.374,0.245 0.603,0.245 0.249,0 0.455,-0.083 0.618,-0.245 0.162,-0.163 0.244,-0.369 0.244,-0.617 V 11.031 l 11.147,11.147 c 0.095,0.095 0.196,0.163 0.302,0.201 0.104,0.038 0.224,0.058 0.358,0.058 0.249,0 0.45,-0.083 0.603,-0.245 0.154,-0.163 0.24,-0.359 0.259,-0.588 0.019,-0.23 -0.067,-0.451 -0.259,-0.662 L 5.027,12.698 13.358,1.379 C 13.512,1.168 13.569,0.952 13.531,0.732 13.492,0.512 13.396,0.335 13.244,0.201 13.091,0.066 12.908,0 12.698,0 12.372,0 12.123,0.124 11.951,0.373 L 3.764,11.434 0.862,8.532 V 0.862 C 0.862,0.612 0.78,0.406 0.618,0.244 0.455,0.081 0.249,0 0,0"
         style="fill:#a99c6b;fill-opacity:1;fill-rule:nonzero;stroke:none"
         id="path396"
         inkscape:connector-curvature="0" />
    </g>
    <g
       id="g398"
       transform="matrix(0.35277777,0,0,-0.35277777,121.07436,194.33848)">
      <path
         d="M 0,0 V 7.223 H -1.666 V 8.797 H 0 v 3.61 H 1.783 V 8.797 H 5.579 V 7.223 H 1.783 V 0.231 c 0,-1.458 0.81,-1.99 2.014,-1.99 0.601,0 1.111,0.115 1.736,0.417 V -2.87 C 4.908,-3.194 4.236,-3.379 3.38,-3.379 1.459,-3.379 0,-2.431 0,0"
         style="fill:#a99c6b;fill-opacity:1;fill-rule:nonzero;stroke:none"
         id="path400"
         inkscape:connector-curvature="0" />
    </g>
    <g
       id="g402"
       transform="matrix(0.35277777,0,0,-0.35277777,124.3155,191.23513)">
      <path
         d="m 0,0 h 1.783 v -3.125 c 0.879,1.99 2.615,3.426 4.884,3.333 V -1.714 H 6.528 c -2.616,0 -4.745,-1.874 -4.745,-5.485 v -4.769 H 0 Z"
         style="fill:#a99c6b;fill-opacity:1;fill-rule:nonzero;stroke:none"
         id="path404"
         inkscape:connector-curvature="0" />
    </g>
    <g
       id="g406"
       transform="matrix(0.35277777,0,0,-0.35277777,127.71995,193.85652)">
      <path
         d="M 0,0 V 7.431 H 1.782 V 0.439 c 0,-2.221 1.204,-3.611 3.311,-3.611 2.036,0 3.588,1.505 3.588,3.75 v 6.853 h 1.758 V -4.537 H 8.681 v 2.083 C 7.87,-3.75 6.644,-4.792 4.583,-4.792 1.689,-4.792 0,-2.848 0,0"
         style="fill:#a99c6b;fill-opacity:1;fill-rule:nonzero;stroke:none"
         id="path408"
         inkscape:connector-curvature="0" />
    </g>
    <g
       id="g410"
       transform="matrix(0.35277777,0,0,-0.35277777,132.62645,194.91826)">
      <path
         d="m 0,0 0.903,1.273 c 1.296,-0.971 2.732,-1.527 4.144,-1.527 1.434,0 2.476,0.74 2.476,1.898 V 1.69 C 7.523,2.894 6.111,3.356 4.537,3.797 2.662,4.329 0.579,4.978 0.579,7.176 v 0.047 c 0,2.059 1.713,3.425 4.074,3.425 1.458,0 3.078,-0.509 4.305,-1.319 L 8.148,7.986 C 7.037,8.704 5.764,9.144 4.606,9.144 3.194,9.144 2.292,8.403 2.292,7.407 V 7.361 C 2.292,6.228 3.773,5.787 5.37,5.301 7.223,4.746 9.213,4.028 9.213,1.875 V 1.829 C 9.213,-0.439 7.338,-1.759 4.954,-1.759 3.241,-1.759 1.343,-1.088 0,0"
         style="fill:#a99c6b;fill-opacity:1;fill-rule:nonzero;stroke:none"
         id="path412"
         inkscape:connector-curvature="0" />
    </g>
    <g
       id="g414"
       transform="matrix(0.35277777,0,0,-0.35277777,137.34521,194.33848)">
      <path
         d="M 0,0 V 7.223 H -1.666 V 8.797 H 0 v 3.61 H 1.783 V 8.797 H 5.579 V 7.223 H 1.783 V 0.231 c 0,-1.458 0.81,-1.99 2.014,-1.99 0.601,0 1.111,0.115 1.735,0.417 V -2.87 C 4.908,-3.194 4.236,-3.379 3.38,-3.379 1.459,-3.379 0,-2.431 0,0"
         style="fill:#a99c6b;fill-opacity:1;fill-rule:nonzero;stroke:none"
         id="path416"
         inkscape:connector-curvature="0" />
    </g>
    <g
       id="g418"
       transform="matrix(0.35277777,0,0,-0.35277777,105.7995,198.45672)">
      <path
         d="M 0,0 V 0 C -14.763,0 -26.73,11.968 -26.73,26.73 V 45.27 C -26.73,60.032 -14.763,72 0,72 14.763,72 26.73,60.032 26.73,45.27 V 26.73 C 26.73,11.968 14.763,0 0,0 Z"
         style="fill:none;stroke:#a99c6b;stroke-width:0.958;stroke-linecap:butt;stroke-linejoin:miter;stroke-miterlimit:10;stroke-dasharray:none;stroke-opacity:1"
         id="path420"
         inkscape:connector-curvature="0" />
    </g>
    <g
       id="g422"
       transform="matrix(0.35277777,0,0,-0.35277777,102.55627,173.68892)">
      <path
         d="m 0,0 c 0,-5.078 4.116,-9.193 9.193,-9.193 5.078,0 9.193,4.115 9.193,9.193"
         style="fill:none;stroke:#a99c6b;stroke-width:0.958;stroke-linecap:butt;stroke-linejoin:miter;stroke-miterlimit:10;stroke-dasharray:none;stroke-opacity:1"
         id="path424"
         inkscape:connector-curvature="0" />
    </g>
    <g
       id="g426"
       transform="matrix(0.35277777,0,0,-0.35277777,108.82185,175.16754)">
      <path
         d="M 0,0 11.844,-3.674"
         style="fill:none;stroke:#a99c6b;stroke-width:0.958;stroke-linecap:butt;stroke-linejoin:miter;stroke-miterlimit:10;stroke-dasharray:none;stroke-opacity:1"
         id="path428"
         inkscape:connector-curvature="0" />
    </g>
    <g
       id="g430"
       transform="matrix(0.35277777,0,0,-0.35277777,102.77711,175.16754)">
      <path
         d="M 0,0 -11.844,-3.674"
         style="fill:none;stroke:#a99c6b;stroke-width:0.958;stroke-linecap:butt;stroke-linejoin:miter;stroke-miterlimit:10;stroke-dasharray:none;stroke-opacity:1"
         id="path432"
         inkscape:connector-curvature="0" />
    </g>
    <g
       id="g434"
       transform="matrix(0.35277777,0,0,-0.35277777,104.24834,176.46739)">
      <path
         d="M 0,0 -22.353,-18.819"
         style="fill:none;stroke:#a99c6b;stroke-width:0.958;stroke-linecap:butt;stroke-linejoin:bevel;stroke-miterlimit:10;stroke-dasharray:none;stroke-opacity:1"
         id="path436"
         inkscape:connector-curvature="0" />
    </g>
    <g
       id="g438"
       transform="matrix(0.35277777,0,0,-0.35277777,107.35045,176.46739)">
      <path
         d="M 0,0 22.353,-18.819"
         style="fill:none;stroke:#a99c6b;stroke-width:0.958;stroke-linecap:butt;stroke-linejoin:bevel;stroke-miterlimit:10;stroke-dasharray:none;stroke-opacity:1"
         id="path440"
         inkscape:connector-curvature="0" />
    </g>
    <g
       id="g442"
       transform="matrix(0.35277777,0,0,-0.35277777,102.74265,197.88072)">
      <path
         d="m 0,0 c 0,0 3.863,0.925 3.863,6.259 v 6.306 c 0,5.061 -1.415,10.969 -9.16,13.945 l -1.117,0.528"
         style="fill:none;stroke:#a99c6b;stroke-width:0.958;stroke-linecap:butt;stroke-linejoin:miter;stroke-miterlimit:10;stroke-dasharray:none;stroke-opacity:1"
         id="path444"
         inkscape:connector-curvature="0" />
    </g>
    <g
       id="g446"
       transform="matrix(0.35277777,0,0,-0.35277777,101.38339,184.57644)">
      <path
         d="M 0,0 12.515,-17.982"
         style="fill:none;stroke:#a99c6b;stroke-width:0.958;stroke-linecap:butt;stroke-linejoin:miter;stroke-miterlimit:10;stroke-dasharray:none;stroke-opacity:1"
         id="path448"
         inkscape:connector-curvature="0" />
    </g>
    <g
       id="g450"
       transform="matrix(0.35277777,0,0,-0.35277777,100.50628,185.96447)">
      <path
         d="M 0,0 6.765,-2.39"
         style="fill:none;stroke:#a99c6b;stroke-width:0.958;stroke-linecap:butt;stroke-linejoin:miter;stroke-miterlimit:10;stroke-dasharray:none;stroke-opacity:1"
         id="path452"
         inkscape:connector-curvature="0" />
    </g>
    <g
       id="g454"
       transform="matrix(0.35277777,0,0,-0.35277777,105.7995,182.1404)">
      <path
         d="M 0,0 V -30.279"
         style="fill:none;stroke:#a99c6b;stroke-width:0.958;stroke-linecap:butt;stroke-linejoin:miter;stroke-miterlimit:10;stroke-dasharray:none;stroke-opacity:1"
         id="path456"
         inkscape:connector-curvature="0" />
    </g>
    <g
       id="g458"
       transform="matrix(0.35277777,0,0,-0.35277777,103.77103,181.95127)">
      <path
         d="M 0,0 5.75,-5.693"
         style="fill:none;stroke:#a99c6b;stroke-width:0.958;stroke-linecap:butt;stroke-linejoin:miter;stroke-miterlimit:10;stroke-dasharray:none;stroke-opacity:1"
         id="path460"
         inkscape:connector-curvature="0" />
    </g>
    <g
       id="g462"
       transform="matrix(0.35277777,0,0,-0.35277777,105.12802,180.93914)">
      <path
         d="M 0,0 C 0,-1.357 0.737,-2.574 1.903,-3.405 3.069,-2.574 3.806,-1.357 3.806,0 3.806,1.356 3.069,2.573 1.903,3.404 0.737,2.573 0,1.356 0,0 Z"
         style="fill:none;stroke:#a99c6b;stroke-width:0.958;stroke-linecap:butt;stroke-linejoin:miter;stroke-miterlimit:10;stroke-dasharray:none;stroke-opacity:1"
         id="path464"
         inkscape:connector-curvature="0" />
    </g>
    <g
       id="g466"
       transform="matrix(0.35277777,0,0,-0.35277777,99.075523,188.39742)">
      <path
         d="M 0,0 C 1.346,-0.431 2.787,-0.338 3.981,0.156 3.528,1.18 2.556,2.046 1.21,2.477 -0.136,2.908 -1.576,2.815 -2.771,2.321 -2.318,1.298 -1.346,0.432 0,0 Z"
         style="fill:none;stroke:#a99c6b;stroke-width:0.958;stroke-linecap:butt;stroke-linejoin:miter;stroke-miterlimit:10;stroke-dasharray:none;stroke-opacity:1"
         id="path468"
         inkscape:connector-curvature="0" />
    </g>
    <g
       id="g470"
       transform="matrix(0.35277777,0,0,-0.35277777,98.890526,185.84115)">
      <path
         d="M 0,0 C 1.435,-0.673 3.101,-0.759 4.58,-0.35 4.303,0.883 3.396,2.006 1.961,2.68 0.526,3.354 -1.141,3.438 -2.62,3.03 -2.342,1.797 -1.435,0.674 0,0 Z"
         style="fill:none;stroke:#a99c6b;stroke-width:0.958;stroke-linecap:butt;stroke-linejoin:miter;stroke-miterlimit:10;stroke-dasharray:none;stroke-opacity:1"
         id="path472"
         inkscape:connector-curvature="0" />
    </g>
    <g
       id="g474"
       transform="matrix(0.35277777,0,0,-0.35277777,101.78958,181.33564)">
      <path
         d="M 0,0 C -0.416,-1.431 -0.317,-2.944 0.392,-4.141 1.1,-5.336 2.273,-5.967 3.556,-6 3.972,-4.569 3.874,-3.056 3.165,-1.86 2.456,-0.664 1.284,-0.034 0,0 Z"
         style="fill:none;stroke:#a99c6b;stroke-width:0.93599999;stroke-linecap:butt;stroke-linejoin:miter;stroke-miterlimit:10;stroke-dasharray:none;stroke-opacity:1"
         id="path476"
         inkscape:connector-curvature="0" />
    </g>
    <g
       id="g478"
       transform="matrix(0.35277777,0,0,-0.35277777,109.80924,181.33564)">
      <path
         d="M 0,0 C 0.416,-1.431 0.317,-2.944 -0.392,-4.141 -1.1,-5.336 -2.272,-5.967 -3.556,-6 -3.972,-4.569 -3.874,-3.056 -3.165,-1.86 -2.456,-0.664 -1.284,-0.034 0,0 Z"
         style="fill:none;stroke:#a99c6b;stroke-width:0.93599999;stroke-linecap:butt;stroke-linejoin:miter;stroke-miterlimit:10;stroke-dasharray:none;stroke-opacity:1"
         id="path480"
         inkscape:connector-curvature="0" />
    </g>
    <g
       id="g482"
       transform="matrix(0.35277777,0,0,-0.35277777,100.07286,183.80989)">
      <path
         d="M 0,0 C 0.819,-1.174 2.196,-1.928 3.715,-2.173 4.23,-0.979 4.139,0.373 3.319,1.547 2.5,2.722 1.124,3.475 -0.395,3.72 -0.911,2.527 -0.819,1.175 0,0 Z"
         style="fill:none;stroke:#a99c6b;stroke-width:0.958;stroke-linecap:butt;stroke-linejoin:miter;stroke-miterlimit:10;stroke-dasharray:none;stroke-opacity:1"
         id="path484"
         inkscape:connector-curvature="0" />
    </g>
    <g
       id="g486"
       transform="matrix(0.35277777,0,0,-0.35277777,110.2154,184.57644)">
      <path
         d="M 0,0 -12.514,-17.982"
         style="fill:none;stroke:#a99c6b;stroke-width:0.958;stroke-linecap:butt;stroke-linejoin:miter;stroke-miterlimit:10;stroke-dasharray:none;stroke-opacity:1"
         id="path488"
         inkscape:connector-curvature="0" />
    </g>
    <g
       id="g490"
       transform="matrix(0.35277777,0,0,-0.35277777,111.52593,183.80989)">
      <path
         d="M 0,0 C -0.819,-1.174 -2.196,-1.928 -3.715,-2.173 -4.23,-0.979 -4.138,0.373 -3.319,1.547 -2.5,2.722 -1.123,3.475 0.396,3.72 0.911,2.527 0.819,1.175 0,0 Z"
         style="fill:none;stroke:#a99c6b;stroke-width:0.958;stroke-linecap:butt;stroke-linejoin:miter;stroke-miterlimit:10;stroke-dasharray:none;stroke-opacity:1"
         id="path492"
         inkscape:connector-curvature="0" />
    </g>
    <g
       id="g494"
       transform="matrix(0.35277777,0,0,-0.35277777,103.5352,185.71952)">
      <path
         d="M 0,0 C 0.778,-1.201 2.129,-2.001 3.639,-2.298 4.194,-1.123 4.149,0.232 3.37,1.434 2.591,2.635 1.241,3.435 -0.269,3.731 -0.825,2.557 -0.779,1.202 0,0 Z"
         style="fill:none;stroke:#a99c6b;stroke-width:0.958;stroke-linecap:butt;stroke-linejoin:miter;stroke-miterlimit:10;stroke-dasharray:none;stroke-opacity:1"
         id="path496"
         inkscape:connector-curvature="0" />
    </g>
    <g
       id="g498"
       transform="matrix(0.35277777,0,0,-0.35277777,105.80949,187.78036)">
      <path
         d="M 0,0 -2.531,3.544"
         style="fill:none;stroke:#a99c6b;stroke-width:0.958;stroke-linecap:butt;stroke-linejoin:miter;stroke-miterlimit:10;stroke-dasharray:none;stroke-opacity:1"
         id="path500"
         inkscape:connector-curvature="0" />
    </g>
    <g
       id="g502"
       transform="matrix(0.35277777,0,0,-0.35277777,108.85614,197.88072)">
      <path
         d="m 0,0 c 0,0 -3.863,0.925 -3.863,6.259 v 6.306 c 0,5.061 1.415,10.969 9.16,13.945 l 1.117,0.528"
         style="fill:none;stroke:#a99c6b;stroke-width:0.958;stroke-linecap:butt;stroke-linejoin:miter;stroke-miterlimit:10;stroke-dasharray:none;stroke-opacity:1"
         id="path504"
         inkscape:connector-curvature="0" />
    </g>
    <g
       id="g506"
       transform="matrix(0.35277777,0,0,-0.35277777,111.09254,185.96447)">
      <path
         d="M 0,0 -6.765,-2.39"
         style="fill:none;stroke:#a99c6b;stroke-width:0.958;stroke-linecap:butt;stroke-linejoin:miter;stroke-miterlimit:10;stroke-dasharray:none;stroke-opacity:1"
         id="path508"
         inkscape:connector-curvature="0" />
    </g>
    <g
       id="g510"
       transform="matrix(0.35277777,0,0,-0.35277777,107.82797,181.95127)">
      <path
         d="M 0,0 -5.75,-5.693"
         style="fill:none;stroke:#a99c6b;stroke-width:0.958;stroke-linecap:butt;stroke-linejoin:miter;stroke-miterlimit:10;stroke-dasharray:none;stroke-opacity:1"
         id="path512"
         inkscape:connector-curvature="0" />
    </g>
    <g
       id="g514"
       transform="matrix(0.35277777,0,0,-0.35277777,112.52327,188.39742)">
      <path
         d="M 0,0 C -1.345,-0.431 -2.786,-0.338 -3.981,0.156 -3.528,1.18 -2.555,2.046 -1.21,2.477 0.136,2.908 1.577,2.815 2.771,2.321 2.318,1.298 1.346,0.432 0,0 Z"
         style="fill:none;stroke:#a99c6b;stroke-width:0.958;stroke-linecap:butt;stroke-linejoin:miter;stroke-miterlimit:10;stroke-dasharray:none;stroke-opacity:1"
         id="path516"
         inkscape:connector-curvature="0" />
    </g>
    <g
       id="g518"
       transform="matrix(0.35277777,0,0,-0.35277777,112.70844,185.84115)">
      <path
         d="m 0,0 c -1.435,-0.673 -3.101,-0.759 -4.581,-0.35 0.278,1.233 1.185,2.356 2.62,3.03 C -0.526,3.354 1.14,3.438 2.62,3.03 2.342,1.797 1.435,0.674 0,0 Z"
         style="fill:none;stroke:#a99c6b;stroke-width:0.958;stroke-linecap:butt;stroke-linejoin:miter;stroke-miterlimit:10;stroke-dasharray:none;stroke-opacity:1"
         id="path520"
         inkscape:connector-curvature="0" />
    </g>
    <g
       id="g522"
       transform="matrix(0.35277777,0,0,-0.35277777,108.06377,185.71952)">
      <path
         d="m 0,0 c -0.779,-1.201 -2.129,-2.001 -3.639,-2.298 -0.556,1.175 -0.51,2.53 0.268,3.732 0.779,1.201 2.13,2.001 3.64,2.297 C 0.824,2.557 0.778,1.202 0,0 Z"
         style="fill:none;stroke:#a99c6b;stroke-width:0.958;stroke-linecap:butt;stroke-linejoin:miter;stroke-miterlimit:10;stroke-dasharray:none;stroke-opacity:1"
         id="path524"
         inkscape:connector-curvature="0" />
    </g>
    <g
       id="g526"
       transform="matrix(0.35277777,0,0,-0.35277777,105.78931,187.78036)">
      <path
         d="M 0,0 2.531,3.544"
         style="fill:none;stroke:#a99c6b;stroke-width:0.958;stroke-linecap:butt;stroke-linejoin:miter;stroke-miterlimit:10;stroke-dasharray:none;stroke-opacity:1"
         id="path528"
         inkscape:connector-curvature="0" />
    </g>
    <g
       id="g530"
       transform="matrix(0.35277777,0,0,-0.35277777,107.50723,193.31116)">
      <path
         d="M 0,0 C 5.47,-0.788 10.514,-2.894 14.802,-5.982 17,-3.602 18.772,-0.82 19.994,2.241 15.021,5.723 9.283,8.188 3.083,9.334"
         style="fill:none;stroke:#a99c6b;stroke-width:0.958;stroke-linecap:butt;stroke-linejoin:miter;stroke-miterlimit:10;stroke-dasharray:none;stroke-opacity:1"
         id="path532"
         inkscape:connector-curvature="0" />
    </g>
    <g
       id="g534"
       transform="matrix(0.35277777,0,0,-0.35277777,103.04582,190.01037)">
      <path
         d="m 0,0 c -6.246,-1.137 -12.024,-3.611 -17.029,-7.116 1.222,-3.061 2.993,-5.842 5.192,-8.223 4.201,3.026 9.129,5.109 14.471,5.934"
         style="fill:none;stroke:#a99c6b;stroke-width:0.958;stroke-linecap:butt;stroke-linejoin:miter;stroke-miterlimit:10;stroke-dasharray:none;stroke-opacity:1"
         id="path536"
         inkscape:connector-curvature="0" />
    </g>
  </g>
</svg>
