<svg xmlns="http://www.w3.org/2000/svg" width="49" height="36" viewBox="0 0 49 36" fill="none">
    <mask id="path-1-inside-1_15_42" fill="white">
        <path
            d="M1.47998 1H46.98V32C46.98 34.2091 45.1891 36 42.98 36H5.47998C3.27084 36 1.47998 34.2091 1.47998 32V1Z" />
    </mask>
    <path
        d="M1.47998 1H46.98H1.47998ZM47.98 32C47.98 34.7614 45.7414 37 42.98 37H5.47998C2.71856 37 0.47998 34.7614 0.47998 32H2.47998C2.47998 33.6569 3.82313 35 5.47998 35H42.98C44.6368 35 45.98 33.6569 45.98 32H47.98ZM5.47998 37C2.71856 37 0.47998 34.7614 0.47998 32V1H2.47998V32C2.47998 33.6569 3.82313 35 5.47998 35V37ZM47.98 1V32C47.98 34.7614 45.7414 37 42.98 37V35C44.6368 35 45.98 33.6569 45.98 32V1H47.98Z"
        fill="#A99C6B" mask="url(#path-1-inside-1_15_42)" />
    <path
        d="M24.2627 21.9871C24.0685 22.1686 23.7662 22.1665 23.5746 21.9822L2.13552 1.36035C1.8111 1.04829 2.03199 0.499998 2.48215 0.499998L45.9763 0.499998C46.4299 0.499998 46.6491 1.05543 46.3178 1.36522L24.2627 21.9871Z"
        stroke="#A99C6B" />
</svg>